/* XPM */
static char *_5b8ca403b1e48bd85bfe171e81b26f5C57WXZ1lZMFlY24O[] = {
/* columns rows colors chars-per-pixel */
"64 64 190 2 ",
"   c #0E0F0D",
".  c #120D0D",
"X  c #0A1909",
"o  c #14100D",
"O  c #19110D",
"+  c #151212",
"@  c #1B1A15",
"#  c #23170E",
"$  c #2B1A0E",
"%  c #241B15",
"&  c #2A1910",
"*  c #221D1B",
"=  c #321E11",
"-  c #0A220B",
";  c #0A2A08",
":  c #11250E",
">  c #093508",
",  c #142314",
"<  c #162A15",
"1  c #123C10",
"2  c #1F3B1B",
"3  c #3B220F",
"4  c #25221F",
"5  c #2D2119",
"6  c #352214",
"7  c #3B2414",
"8  c #35261B",
"9  c #3E2819",
"0  c #2D2927",
"q  c #352C26",
"w  c #253025",
"e  c #3B322B",
"r  c #383735",
"t  c #422612",
"y  c #492B14",
"u  c #512E15",
"i  c #5C3317",
"p  c #583318",
"a  c #653818",
"s  c #6A3B19",
"d  c #723E1A",
"f  c #413934",
"g  c #433D3A",
"h  c #0C4408",
"j  c #0D5302",
"k  c #0A5B02",
"l  c #0C580A",
"z  c #105406",
"x  c #165D0E",
"c  c #1B4117",
"v  c #165713",
"b  c #21491E",
"n  c #215F1B",
"m  c #076500",
"M  c #0B6303",
"N  c #056F00",
"B  c #0A6D04",
"V  c #0F640B",
"C  c #11690C",
"Z  c #067202",
"A  c #0A7405",
"S  c #077804",
"D  c #0A7D07",
"F  c #0E730B",
"G  c #0B7C08",
"H  c #1D7419",
"J  c #1F7A1B",
"K  c #226B1F",
"L  c #295928",
"P  c #2E6D2C",
"I  c #3D693B",
"U  c #387234",
"Y  c #74411B",
"T  c #7C451C",
"R  c #43413F",
"E  c #40633A",
"W  c #407B3F",
"Q  c #484746",
"!  c #4B4B4A",
"~  c #435142",
"^  c #575856",
"/  c #467643",
"(  c #577756",
")  c #656565",
"_  c #646C63",
"`  c #6B746B",
"'  c #767876",
"]  c #FB1A22",
"[  c #FB2324",
"{  c #FC2D25",
"}  c #FC3226",
"|  c #FC3927",
" . c #FC3D28",
".. c #87461E",
"X. c #864A1E",
"o. c #8B4E21",
"O. c #945321",
"+. c #9C5423",
"@. c #9F5923",
"#. c #A65824",
"$. c #AA5D25",
"%. c #B55F27",
"&. c #AC6026",
"*. c #B46427",
"=. c #B86629",
"-. c #BB6929",
";. c #C55F28",
":. c #FD4529",
">. c #FD4B2A",
",. c #FD542C",
"<. c #FD5B2D",
"1. c #CD6229",
"2. c #C46D2B",
"3. c #D4642B",
"4. c #CC722C",
"5. c #D4762E",
"6. c #DA792F",
"7. c #DE7D30",
"8. c #E8682D",
"9. c #F3662E",
"0. c #FE642E",
"q. c #FE6A2F",
"w. c #E17D2F",
"e. c #FE6D30",
"r. c #E27E31",
"t. c #E97830",
"y. c #FE7431",
"u. c #FE7C33",
"i. c #188315",
"p. c #21811F",
"a. c #258C23",
"s. c #2C8329",
"d. c #2F912C",
"f. c #398936",
"g. c #379435",
"h. c #408C3E",
"j. c #4B854A",
"k. c #4C8E4A",
"l. c #479545",
"z. c #449C42",
"x. c #4B9949",
"c. c #50934E",
"v. c #5C8857",
"b. c #5C995A",
"n. c #60995E",
"m. c #51A04E",
"M. c #55A353",
"N. c #668863",
"B. c #679165",
"V. c #768476",
"C. c #769273",
"Z. c #6FA36C",
"A. c #E68131",
"S. c #EC8432",
"D. c #F28533",
"F. c #FF8434",
"G. c #F68834",
"H. c #FF8D36",
"J. c #FF8E39",
"K. c #FF923E",
"L. c #FF9544",
"P. c #FF9949",
"I. c #FF9C52",
"U. c #FFA663",
"Y. c #FFAD6D",
"T. c #FFAD70",
"R. c #FFB37A",
"E. c #878A86",
"W. c #8A958A",
"Q. c #88A487",
"!. c #81B180",
"~. c #96AB95",
"^. c #9CAA9C",
"/. c #99BA98",
"(. c #FFBA87",
"). c #FFC092",
"_. c #FFC59C",
"`. c #FEC89F",
"'. c #FFCDAB",
"]. c #FED3B4",
"[. c #FFD6B9",
"{. c #FFDDC4",
"}. c #FFDFC8",
"|. c #FEE6D4",
" X c #FFEADB",
".X c #FEEEE3",
"XX c #FFF1E7",
"oX c #FFF2E9",
"OX c #FFFAF6",
"+X c #FFFDFC",
/* pixels */
"D D D D Z N N N D D D D Z N N N D D D D k j j j m N N N D D D D D D D D Z N N N N N N N k j j j A D D D Z N N N N N N N N N N N ",
"D D D D Z N N N D D D D Z N N N D D D D k j j j m N N N D D D D D D D D Z N N N N N N N k j j j A D D D Z N N N N N N N N N N N ",
"D D D D M k k k M M M M S S S S M M M M B B B B S S S S M M M M M M M M Z S S S M k k k m m m m M M M M Z S S S M k k k B S S S ",
"D D D D j j j j j j j j D D D D j j j j S D D D D D D D k j j j j j j j A D D D k j j j m N N N k j j j B D D D M j j j B D D D ",
"D D D D j j j j j j j j D D D D j j j j S D D D D D D D k j j j j j j j A D D D k j j j m N N N k j j j B D D D M j j j B D D D ",
"D D D D j j j j j j j j D D D D j j j j S D D D D D D D k j j j j j j j A D D D k j j j m N N N k j j j B D D D M j j j B D D D ",
"D D D D M k k k M M M M B B B B j j j j Z S S S B B B B M k k k k k k k Z S S S m M M M N N N N M M M M B B B B k j j j m S S S ",
"D D D D Z N N N D D D D j j j j j j j j m N N N k j j j m N N N N N N N N N N N D D D D Z N N N D D D D M j j j j j j j m N N N ",
"D D D D Z N N N D D D D j j j j j j j j m N N N k j j j m N N N N N N N N N N N D D D D Z N N N D D D D M j j j j j j j m N N N ",
"D D D D Z N N N D D D D j j j j j j j j m N N N k j j j m N Z Z N N N N N N N N D D D D Z N N N D D D D M j j j j j j j m N N N ",
"D D D D Z Z Z Z D D D D k j j j j j j j N Z Z Z k j j x f.k.j./ W j.k.h.J m m m S D D D N m m m S D D D M k k k k j j j m N N N ",
"N N N N D D D D D D D D Z N N N N N N N D D D D p.n.V.^ r 5 6 7 7 6 5 0 ! ` N.U m N Z N k j j j m N N N S D D D Z N N N N N N N ",
"N N N N D D D D D D D D Z N N N N N N N D D g.Q.) q p @.4.A.G.G.G.G.S.5.&.s 8 ! W.c.Z N k j j j m N N N S D D D S N N N N N N N ",
"N N N N D D D D D D D D Z N N N N N N N i.!.' 8 X.6.G.H.H.H.H.H.H.H.H.H.H.H.A.@.9 ! Q.s.k j j j m N N N S D D D S N N N N N N N ",
"N N N N D D D D D D D D Z N N N N N N f.^.e Y w.H.U.'.U.H.H.H.H.H.H.H.H.H.H.H.H.S.O.5 ' v.j j j m N N N S D D D Z N N N N N N N ",
"N N N N N N N Z D D D D D D D D D D M.W.8 *.G.U.}.OX+X).H.H.H.H.H.H.H.H.H.H.H.H.H.H.5.t ^ C.z j j j j j m N N N S D D D D D D D ",
"N N N N N N N N D D D D D D D D D M.V.9 5.K.`.OX+X{.T.K.H.H.H.H.H.H.H.H.H.H.H.H.H.H.H.S.i r C.j j j j j m N N N D D D D D D D D ",
"N N N N N N N N D D D D D D D D z.E.7 r.P.}.+X XY.H.H.H.H.H.H.H.H.H.H.H.H.H.H.H.H.H.H.H.D.a R N.j j j j m N N N D D D D D D D D ",
"N N N N N N N N D D D D D D D a.^.6 6.I.|.+X].P.H.H.H.H.H.H.H.H.H.H.H.H.H.H.H.H.H.H.H.H.H.D.u ^ / j j j m N N N D D D D D D D D ",
"k k k k S S S S M M M M Z S S /.q 2.P.|.+X_.J.H.H.H.H.H.H.H.H.H.H.H.H.H.H.H.H.H.H.H.H.H.H.H.A.= ` H B B N N N N m M M M S D D D ",
"j j j j D D D D k j j j N N b.) X.J.[.+X'.J.H.H.H.H.H.H.H.H.H.H.H.H.H.H.H.H.H.H.H.H.H.H.H.H.H.=.4 N.D D S Z N N k j j j B D D D ",
"j j j j D D D D k j j j N F ^.9 S.R.+X{.K.H.H.H.H.H.H.H.H.H.H.H.H.H.H.H.H.H.H.H.H.H.H.H.H.H.H.G.a ! s.D S N N N k j j j B D D D ",
"j j j j D D D D k j j j N b.^ $.L.XXoXI.H.H.H.H.F.0.H.H.H.H.H.H.H.H.H.H.<.H.H.H.H.H.H.H.H.H.H.H.6.% ( D Z N N N k j j j B D D D ",
"k k k k B A A A j j j j N ~.y D._.+X(.H.H.H.H.H.<.[ F.H.H.H.H.H.H.H.H.y.[ e.H.H.H.H.H.H.H.H.H.H.H.d Q H N N N N M k k k A D D D ",
"D D D D j j j j j j j j s.' O.L.XX.XK.H.H.H.u.y.{ ] >.y.F.H.H.H.H.u.y. .] | y.u.H.H.H.H.H.H.H.H.H.4.* E m N N N D D D D S N N N ",
"D D D D j j j j j j j j Z.e 6.(.+X).H.H.H.y.[ ] ] ] ] ] :.H.H.H.F.{ ] ] ] ] ] } F.H.H.H.H.H.H.H.H.G.t ~ M N N N D D D D Z N N N ",
"D D D D j j j j j j j j Q.t G.[.+XP.H.H.H.H.q.] ] ] ] } F.H.H.H.H.y.[ ] ] ] [ y.H.H.H.H.H.H.H.H.H.H.T r C N N N D D D D S N N N ",
"D D D D k j j j j j j j E.T H.R._.J.H.H.H.H.H.| ] ] ] q.H.H.H.H.H.H.,.] ] ] :.H.H.H.H.H.H.H.H.H.H.H.-.* K Z Z Z S D D D Z N N Z ",
"D D D D N N N N D D D a.) &.H.H.H.H.H.H.H.H.F.{ [ } ] <.H.H.H.H.H.H. .] } ]  .H.H.H.H.H.H.H.H.H.H.H.r.@ P D D D Z N N N D D D D ",
"D D D D Z N N N D D D z.R 4.H.H.H.H.H.H.H.H.F.:.u.H.q.,.H.H.H.H.H.H.:.e.H.e.:.H.H.H.H.H.H.H.H.H.H.H.G.$ L D D D Z N N N D D D D ",
"D D D D Z N N N D D D m.f r.H.H.H.H.H.H.H.H.H.H.H.H.H.H.H.H.H.H.H.H.H.H.H.H.H.H.H.H.H.H.H.H.H.H.H.H.H.3 L D D D Z N N N D D D D ",
"D D D D Z N N N D D D x.e S.H.H.H.H.H.H.H.H.H.H.H.H.H.H.H.H.H.H.H.H.H.H.H.H.H.H.H.H.H.H.H.H.H.H.H.H.H.t b D D D S N N N D D D D ",
"Z Z Z Z D D D D D D D l.q S.H.H.H.H.H.H.H.H.H.H.H.H.H.H.H.H.H.H.H.H.H.H.H.H.H.H.H.H.H.H.H.H.H.H.H.H.H.y 2 k k k A D D D S Z Z Z ",
"N N N N D D D D D D D x.e A.H.H.H.H.H.H.H.H.H.H.H.H.H.H.H.H.H.H.H.H.H.H.H.H.H.H.H.H.H.H.H.H.H.H.H.H.H.t 2 j j j B D D D S N N N ",
"N N N N D D D D D D D z.f 7.H.H.H.H.H.H.H.H.H.H.H.H.H.F.H.H.H.H.H.H.H.H.H.H.H.H.H.H.H.H.H.H.H.H.H.H.H.= 2 j j j B D D D S N N N ",
"N N N N D D D D D D D d.Q 2.H.H.H.H.H.H.H.H.H.H.H.H.H.:.u.H.H.H.H.H.H.H.H.H.<.0.H.H.H.H.H.H.H.H.H.H.S.# c j j j B D D D S N N N ",
"S S S S B B B B B B B C ) @.H.H.H.H.H.H.H.H.H.H.H.H.y.] :.H.H.H.H.H.H.H.H.F.{ } H.H.H.H.H.H.H.H.H.H.5.+ v M M M S D D D S S S S ",
"D D D D j j j j j j j j V.s H.H.H.H.H.H.H.H.H.H.q.>.{ ] ]  .<.u.H.H.H.e.>.| ] ] | ,.y.H.H.H.H.H.H.H.$.+ F D D D D D D D D D D D ",
"D D D D j j j j j j j j B.6 G.H.H.H.H.H.H.H.H.H.<.] ] ] ] ] { u.H.H.H.e.[ ] ] ] ] [ y.H.H.H.H.H.H.H.s , S D D D D D D D D D D D ",
"D D D D j j j j j j j j f.g 4.H.H.H.H.H.H.H.H.H.H.,.] ] ] [ F.H.H.H.H.H.q.] ] ] ] e.H.H.H.H.H.H.H.S.$ c S D D D D D D D D D D D ",
"D D D D k k k k k k k j A ` T H.H.H.H.H.H.H.H.H.H.q.] ] ] } H.H.H.H.H.H.u.] ] ] [ u.H.H.H.H.H.H.H.*.+ V A S S S D D D D S S S S ",
"D D D D Z N N N N N N N D b.8 r.H.H.H.H.H.H.H.H.H.,.[ ,. .[ H.H.H.H.H.H.e.[ >.:.[ y.H.H.H.H.H.H.G.u < D M j j j m N N N k j j j ",
"D D D D Z N N N N N N N D i.^ X.H.H.H.H.H.H.H.H.H.e.F.H.H.e.F.H.H.H.H.H.u.u.H.H.y.u.H.H.H.H.H.H.-.. x D M j j j m N N N k j j j ",
"D D D D Z N N N N N N N D D b.0 6.H.H.H.H.H.H.H.H.H.H.H.H.H.H.H.H.H.H.H.H.H.H.H.H.H.H.H.H.H.H.D.t < G D M j j j m N N N k j j j ",
"D D D D Z N N N N N N N D D i._ p G.H.H.H.H.H.H.H.H.H.H.H.H.H.H.H.H.H.H.H.H.H.H.H.H.H.H.H.H.H.o.  V D D M j j j m N N N k j j j ",
"Z Z Z Z D D D D Z N N N D D D f.r O.H.H.H.H.H.H.H.H.H.H.H.H.H.H.H.H.H.H.H.H.H.H.H.H.H.H.H.H.2.O 1 Z Z Z S D D D M j j j B D D D ",
"N N N N D D D D Z N N N D D D D j.* &.H.H.H.H.H.H.H.H.H.H.H.H.H.H.H.H.H.H.H.H.H.H.H.H.H.H.5.& < N N N N S D D D M j j j B D D D ",
"N N N N D D D D Z N N N D D D D Z / % =.H.F.:.F.H.H.H.H.H.H.H.H.H.H.H.H.H.H.H.H.H.e.F.H.6.= , m N N N N S D D D M j j j B D D D ",
"N N N N D D D D Z N N N D D D D Z N I % #.q.| u.q.F.H.H.H.H.H.H.H.H.H.H.H.H.H.u.u.q.u.2.$ , m N N N N N S D D D M j j j B D D D ",
"D D D D Z Z Z Z D D D D Z Z Z Z D D D U 4 d t.0.:. .<.y.H.H.H.H.H.H.H.H.F.H.u.<.<.D.+.O : j k k Z D D D D D D D S A A A Z Z Z Z ",
"D D D D Z N N N D D D D Z N N N D D D D n w 7 #.9.:.| q.0.q.0.<.<.u.u.<.>.0.y.u.;.u   h k j j j A D D D D D D D D D D D S N N N ",
"D D D D Z N N N D D D D N N N N D D D D k j b @ t +.8.u.,.:. . .:.<.y.<.<.8.%.p o > M N k j j j A D D D D D D D D D D D S N N N ",
"D D D D Z N N N D D D D Z N N N D D D D k j j z v < # u ..$.1.3.3.1.*...i $   ; k N N N k j j j A D D D D D D D D D D D S N N N ",
"S S S S S S S S B B B B m m m m B B B B M M M M D D F l h > - - - X ; > > h j j k m m m M M M M B B B B S S S S D D D D S S S S ",
"N N N N D D D D j j j j j j j j j j j j S D D D D D D D D D D D Z Z N N k j j j j j j j A D D D k j j j m N N N D D D D D D D D ",
"N N N N D D D D k j j j j j j j j j j j S D D D D D D D D D D D Z N N N k j j j j j j j A D D D k j j j m N N N D D D D D D D D ",
"N N N N D D D D k j j j j j j j j j j j S D D D D D D D D D D D Z N N N k j j j j j j j A D D D k j j j m N N N D D D D D D D D ",
"Z Z Z Z S D D S k j j j j j j j j k k k S D D D D D D D D D D D Z N N N k j j j j k k j A D D D k j j j m N N N S D D D D D D D ",
"D D D D k j j j N N N N j j j j D D D D Z N N N N N N N j j j j m N N N N N N N D D D D Z N N N N N N N N N N N k j j j m N N N ",
"D D D D k j j j m N N N j j j j D D D D Z N N N N N N N j j j j m N N N N N N N D D D D Z N N N Z N N N N N N N k j j j m N N N ",
"D D D D j j j j m N N Z j j j j D D D D Z N N N N N N N j j j j m N Z Z N N N N D D D D Z N N N Z Z N N N N N N k j j j m N N N ",
"D D D D j j j j m N N N j j j j D D D D Z N N N N N N N j j j j m N Z Z N N N N D D D D Z N N N N N N N N N N N k j j j m N N N ",
"Z Z Z Z N m m m D D D D N m m m Z Z Z Z k j j j j j j j A D D D Z N N Z S D D D Z Z Z Z k j j j A D D D Z N N N N m m m S D D D ",
"N N N N N N N N D D D D Z N N N N N N N j j j j j j j j S D D D Z N N N D D D D Z N N N k j j j A D D D Z N N N N N N N D D D D "
};
