/* XPM */
static char *_fa76e8a38e045a9c45a78838aab8c450IB7trQwIRDR1SoL[] = {
/* columns rows colors chars-per-pixel */
"64 64 195 2 ",
"   c None",
".  c #231F18",
"X  c #24211C",
"o  c #2C2519",
"O  c #372C1A",
"+  c None",
"@  c #2B2824",
"#  c None",
"$  c #332E26",
"%  c #383126",
"&  c #3A3835",
"*  c #3B3936",
"=  c #473518",
"-  c #533D1A",
";  c #4F3D21",
":  c #694C18",
">  c #704E16",
",  c #735116",
"<  c #544020",
"1  c #44423D",
"2  c #7C663F",
"3  c #4C4944",
"4  c #524F4A",
"5  c #5A5650",
"6  c #60594C",
"7  c #645D52",
"8  c #645F58",
"9  c #69645C",
"0  c #746C5D",
"q  c #777165",
"w  c #9C0501",
"e  c #AF0500",
"r  c #A80901",
"t  c #B20300",
"y  c #BD0200",
"u  c #B40C02",
"i  c #BA0A01",
"p  c #AD1B00",
"a  c #B71505",
"s  c #BB2900",
"d  c #BB3500",
"f  c #C20500",
"g  c #C90600",
"h  c #C50C01",
"j  c #CB0A02",
"k  c #DB0301",
"l  c #D30A01",
"z  c #DD0C00",
"x  c #C71705",
"c  c #D41D00",
"v  c #D61904",
"b  c #E10A00",
"n  c #C52D00",
"m  c #CB230C",
"M  c #D62A00",
"N  c #C93B00",
"B  c #D83500",
"V  c #D53D00",
"C  c #E82000",
"Z  c #EC2F00",
"A  c #E63B00",
"S  c #F13700",
"D  c #805611",
"F  c #8A5E15",
"G  c #99650C",
"H  c #8D6419",
"J  c #976613",
"K  c #A16B0E",
"L  c #AF730C",
"P  c #B57508",
"I  c #BF7C09",
"U  c #A57A2D",
"Y  c #C34200",
"T  c #D04A00",
"R  c #C95100",
"E  c #DB5900",
"W  c #E84800",
"Q  c #F74800",
"!  c #EC5700",
"~  c #F95200",
"^  c #F15B00",
"/  c #FD5C00",
"(  c #D86600",
")  c #DB6B00",
"_  c #C37F0B",
"`  c #E76600",
"'  c #FF6100",
"]  c #F66A00",
"[  c #FE6C00",
"{  c #E47800",
"}  c #EE7D00",
"|  c #F17300",
" . c #FE7400",
".. c #F47B00",
"X. c #FF7C00",
"o. c #8D7852",
"O. c #867D6C",
"+. c #D58806",
"@. c #DD8D06",
"#. c #E98300",
"$. c #FF8400",
"%. c #F48B00",
"&. c #F78806",
"*. c #FF8B00",
"=. c #E99504",
"-. c #F39300",
";. c #FF9300",
":. c #F59B02",
">. c #FE9C00",
",. c #F19508",
"<. c #FFA200",
"1. c #FFAD00",
"2. c #FEA50C",
"3. c #FFAA09",
"4. c #FFB300",
"5. c #FFBB01",
"6. c #FFB80B",
"7. c #FFAA10",
"8. c #FFB116",
"9. c #FFB61B",
"0. c #CD9128",
"q. c #FFAF23",
"w. c #FFA42D",
"e. c #FFB527",
"r. c #FFB923",
"t. c #FFB12A",
"y. c #FBAA36",
"u. c #FFBB39",
"i. c #FFC203",
"p. c #FFC40C",
"a. c #FFC617",
"s. c #FFC525",
"d. c #FFCB35",
"f. c #FFCB39",
"g. c #988158",
"h. c #AA8747",
"j. c #8B8478",
"k. c #938B7E",
"l. c #F0BA5C",
"z. c #FFC346",
"x. c #FFCD45",
"c. c #FFC54A",
"v. c #FFC94D",
"b. c #FFC458",
"n. c #FFC95C",
"m. c #FFD256",
"M. c #FFD25F",
"N. c #FFCC60",
"B. c #FFCE6E",
"V. c #FFD46A",
"C. c #FFCD75",
"Z. c #FFD779",
"A. c #9C9486",
"S. c #A59C8D",
"D. c #A89F90",
"F. c #B5A280",
"G. c #ADA494",
"H. c #B0A797",
"J. c #BFB5A3",
"K. c #CCB791",
"L. c #C7BCA9",
"P. c #FFD683",
"I. c #FFD985",
"U. c #FFD68A",
"Y. c #F2CF91",
"T. c #FCD591",
"R. c #FFDC93",
"E. c #FFDE9B",
"W. c #FFE09F",
"Q. c #CDC1AE",
"!. c #CFC4B0",
"~. c #D2C5B0",
"^. c #D7CBB7",
"/. c #F2DCB5",
"(. c #FFE2A6",
"). c #FFE3AC",
"_. c #FEE5B3",
"`. c #FFE7BA",
"'. c #FFEABC",
"]. c #EADCC6",
"[. c #ECDFC8",
"{. c #EFE1CA",
"}. c #F2E1C3",
"|. c #FFECC7",
" X c #F4E6CE",
".X c #FFEDCC",
"XX c #FEEED4",
"oX c #FFF0D6",
"OX c #FFF1DA",
"+X c #FFF3E0",
"@X c #FFF5E1",
"#X c #FFF5E5",
"$X c #FFF7EA",
"%X c #FFF8EE",
"&X c #FFFAF1",
/* pixels */
"    #     #     # +   # +   + #   + #     #     # +   # +   + #     #     #     # +   # #   + #     #     #     # +   # #   + # ",
"+ + + + + +   + + + + + +   + + + + + + + + + + + +   + +   + +   + + +   + + + + + + + + + + + + + + + + +   + + + + + + + + + ",
"# #   + #   + #     #     #     # +   # #   + #     #     #     # +   # #   + #     #     #     # +   # #   + #     #     #     ",
"    #     #     # +   # +   + #     #     #     # +   # +   + #   + #     #     # +   # +   + #     #     #     # +   # +   + # ",
"    #     #     # +   + +   + #     #     #     # +   # +   + #   + #     #     # +   + +   + #   + #     #     # +   + +   + # ",
"# #   + #   + #   + #     #     # +   # #   + #   + #     #     # +   # #   + #     #     #     # +   # #   + #     #     #     ",
"+ + + +   + +   + +   + +   + +   + +   + + +   + +   + + # # # + + + + + + +   + +   + +   + +   + + + + + +   + +   + +   + + ",
"    #     #     # +   # #   + #     #     #     4 O.H.^. XXXoXoXXX].!.D.q 1     # +   # #   + #     #     #     # +   # #   + # ",
"# #   + #   + #   + #     #     # +   # # * A.].oXoXoX.X).E.U.P.U.R.).|.oXoX^.j.#   #     #     # +   # #   + #     #     #     ",
"+ +   + +   + +   + +   + + +   + +   4 J.XXoXXXR.n.r.1.1.1.1.1.1.1.1.1.9.c.I.|. XS.*   + + +   + +   + +   + +   + + +   + +   ",
"    #     #     # +   # #   + #   $ H.XXoXoXoX_.3.>.;.;.*.*.*.*.*.*.;.>.<.1.1.3.c.(. Xj.#   + #     #     #     # +   # #   + # ",
"+ +   + #   + #   + #     #     8 ].oXoXoXoXoXoXy.*.*.*.*.*.*.*.*.*.*.*.*.*.;.<.1.1.u.).~.1     # +   + +   + #   + #     # +   ",
"+ +   + #   + #   + #     # + j.XXoXoXoXoXoXoXoXw.*.*.*.*.*.*.*.*.*.*.*.*.*.*.*.;.1.1.1.n.}.7   # +   + +   + #   + #     # +   ",
"    #     #     # +   # #   D.XXoXoXoXoXoXOXOX.X;.;.*.*.*.*.*.*.*.*.*.*.*.*.>.<.1.1.1.1.1.q._.q     #     #     # +   # #   + # ",
"+ +   + +   + +     +   + D.oXoXoXoXOXOXOX@X@XB.>.;.;.*.*.*.*.*.*.*.*.*.>.1.1.1.1.1.1.>.<.<.2.E.0 +   + +   + +     + + + +     ",
"# #   + #   + #   + #   k.oXoXoXoXOX@X@X#X#XoXs.5.4.1.<.>.;.*.*.*.*.*.<.1.1.1.1.<.;.*.*.$.>.<.<.T.6   # #   + #     #     #     ",
"    #     #     # +   9 XXoXoXoXOX@X#X$X%X%X(.V.f.i.5.4.1.1.<.>.*.;.1.1.1.1.<.;.*.*.*.*.$.X.>.<.<.Y.1     #     # +   # #   + # ",
"  + + +   + +   + + * {.oXoXoXOX+X#X$X&X&XoX).R.M.a.5.4.1.1.1.1.1.1.1.1.1.>.*.*.*.*.*.*.$.X. .>.<.2.K.+   + +   + +   + +   + + ",
"# #   + #   + #   + J.oX_.oXoXOX@X$X&X&XoX'.`.W.V.s.5.4.4.1.1.1.1.1.1.1.>.*.*.*.*.*.*.*.$.X. . .>.<.t.O.#   + #     #     #     ",
"    #     #     # 5 oXW.R.oXoXOX@X$X%XoX'.'.`.W.V.a.5.4.1.1.1.1.1.1.1.1.1.;.*.*.*.*.*.*.*.[ X.[ $.<.<.l.$ # +   # +   + +   + # ",
"    #     #     # Q.XXr.R.oXoXOX@XoX(.).`._.(.I.x.i.5.4.4.1.1.1.1.1.1.<.1.1.;.*.*.*.*.*.*. .[ [ [ >.<.<.g.#     # +   + +   + # ",
"# #   + #   + # 3 oXP.1.w.`..X(.m.x.Z.R.E.R.Z.v.,.5.4.4.1.1.1.1.1.1.1.W 1.1.1.*.*.*.*.*.*.$.~ [ ' X.<.<.y.X + #     #     #     ",
"+ + + +   + + + G.XX9.>.*.*.>.5.5.p.f.m.M.m.d.&.V 4.4.1.1.1.1.1.1.1.>.l { 1.1.>.*.*.*.*.*.*./ / ' ' >.<.<.2 +   + +   + +   + + ",
"    #     #   +  XR.1.*.*.*.1.4.5.5.i.p.6.5.1.Z i %.<.<.1.1.1.-.X.| W g s | | %.*.*.*.*.*.*.[ ~ ' ' $.<.<.0.    # +   # #   + # ",
"# #   + #   + 9 oXz.<.*.*.*.1.R.v.4.5.5.` c b k h l y n :.1.1.<.N f l v x i s -.>.*.*.*.*.*. .~ / ' [ <.<.2.$ #     #     #     ",
"+ +   + +   + A..X3.>.*.*.;.v.XX9.4.4.4.4.#.u x m w R 1.1.1.1.1.1.E y x w d <.1.<.*.*.*.*.*. .~ ~ ' ' >.<.<.: +     +     + +   ",
"    #     #   L.E.1.;.*.*.>.N.z.1.1.1.1.1.1.Z u l w :.1.1.1.1.1.1.] j y h Y >.1.1.*.*.*.*.*. .~ ~ / ' *.<.<.G   # +   # #   + # ",
"+ +   + #   + [.B.1.*.*.*.>.1.1.1.1.1.1.1.<.l d ^ h ( 1.1.1.1.1.1.W s -.W a ;.1.1.;.*.*.*.*. .~ ~ / ' X.<.<.I #   + #     # +   ",
"# +   + #   # oXz.1.*.*.*.>.1.1.1.1.1.1.1.%.) 1.1.%.E 1.1.1.1.1.1.{ 1.1.1.} ..1.1.;.*.*.*.*. .~ ~ / '  .<.<.@.#   + #     #     ",
"    #     # * oXe.<.*.*.*.;.1.1.1.1.1.1.1.1.1.1.1.1.1.1.1.1.1.1.1.1.1.1.1.1.*.<.1.;.*.*.*.$.[ ~ ~ / ' [ <.<.:.  # +   # #   + # ",
"+ + + +   + 1 oX8.<.*.*.*.*.1.1.1.1.1.1.1.1.1.1.1.1.1.1.1.1.1.1.1.1.1.1.1.<.*.<.1.;.*.*.*.$.' ~ ~ / ' [ <.<.:.+ + + + + +   + + ",
"# #   + #   1 oX3.<.*.*.*.*.<.1.1.1.1.1.1.1.1.1.1.1.1.1.1.1.1.1.1.1.1.1.1.>.*.>.1.*.*.*.*.$.~ ~ ~ / ' [ <.<.:.#     #     #     ",
"    #     # * oX3.<.$.*.*.*.>.1.1.1.1.1.1.1.1.1.1.1.1.1.1.1.1.1.1.1.1.1.1.*.*.>.<.*.*.*.$. .~ ~ ~ / ' [ <.<.:.  # +   # #   + # ",
"    # +   # # oX7.<.$.*.*.*.*.1.1.1.1.1.1.1.1.1.1.1.%.1.1.1.1.1.1.1.1.1.>.] ..>.;.*.*.*.$.' ~ ~ ~ / '  .<.<.@.  # +   + +   + # ",
"# #   + #   + ].q.<.X.$.*.*.*.;.1.1.1.1.1.1.1.1.1.<.c 1.1.1.1.1.1.1.1.1.*.S T >.*.*.*.$.X.~ ~ ~ ~ / ' X.<.<._ #     #     #     ",
"    +     + + L.u.<.$.X.$.*.*.*.>.1.1.1.1.1.1.1.1.| f { 1.1.1.1.1.1.1.;.$.z p *.*.*.*.X.[ ~ ~ ~ ~ ' ' *.<.<.G   + +   + +   + + ",
"    #     #   k.n.<.*.X.$.$.*.*.*.>.1.1.1.1.} A S v f x A V } 1.1.:.B z b l t l h B X. .~ ~ ~ ~ / ' ' >.<.<.:   # +   # #   + # ",
"# #   + #   + 8 U.<.>. .X.X.$.*.*.*.;.1.1.1.1.( r i m u r ) 1.1.<.*.$.N r m a w T $. ./ ~ ~ ~ ~ / ' [ <.<.<.% #     #     #     ",
"+ + + + + + + # /.<.<. . .X.[ $.*.*.*.*.>.1.1.1.` j x w ) 1.<.;.*.*.*.*.b u j p $.X./ ~ ~ ~ ~ ~ / ' $.<.<.+.+ + + + + +   +     ",
"    #     #     G.t.<.*.[  .[ ' $.*.*.*.*.*.;.>.Q e c g Y ;.*.*.*.*.*.[ f n C e ] ' ~ ~ ~ ~ ~ / / [ >.<.<.F     # +   # #   + # ",
"+ +   + #   + # 3 C.<.>.[ [  ./ ' $.*.*.*.*.*.*.M ` *.^ x *.*.*.*.*.*.! E $.X.A B ~ ~ ~ ~ ~ ~ ' ' X.<.<.:.o + #     #     #     ",
"+ +   + #   + #   K.2.<.*.' [ [ ~ / X.$.$.*.*.$.$.*.*.*...$.*.*.*.*.*.$.$.X.[ / ~ ~ ~ ~ ~ ~ / ' [ >.<.<.K   + #   + #     #     ",
"    #     #     # 5 b.<.<. .' [ ' ~ ~ [ X.$.$.*.*.*.*.*.*.*.*.*.$.$.X.X. .' ~ ~ ~ ~ ~ ~ ~ / ' ' *.<.<.:.O #     # +   # #   + # ",
"+ +   + +   + +   + F.2.<.>.[ ' [ / ~ ~ ~ [  .X.X.$.$.$.$.$.X.X. . .[ ' ~ ~ ~ ~ ~ ~ ~ ~ / ' '  .<.<.<.J +   + +   + +     + +   ",
"# #   + #   + #   + * l.<.<.*.' ' ' / / ' / / / ' [ [ [ [ [ [ ' / ~ ~ ~ ~ ~ ~ ~ ~ ~ ~ / ' ' [ >.<.<.+.# #   + #     #     #     ",
"    #     #     # +   7 q.<.<.*.' ' ' / ~ ~ ~ ~ ~ ~ ~ ~ ~ ~ ~ ~ ~ ~ ~ ~ ~ ~ ~ ~ ~ ~ / ' ' [ >.<.<.:.;     #     # +   # #   + # ",
"+ + + +   + + + + + + + o.2.<.<.*.' ' ' / ~ ~ ~ ~ ~ ~ ~ ~ ~ ~ ~ ~ ~ ~ ~ ~ ~ ~ ~ ~ / ' ' [ >.<.<.<.> +   + + + + + + + + + + + + ",
"# #   + #   + #   + #     h.<.<.<.;.[ ' ' ' / ~ ~ ~ ~ ~ ~ ~ ~ ~ ~ ~ ~ ~ ~ ~ ~ / ' ' '  .>.<.<.<.F +   # #   + #     #     #     ",
"    #     #     # +   # +   U <.<.<.>. .' ' ' ' / / ~ ~ ~ ~ ~ ~ ~ ~ ~ ~ / / ' ' ' [ *.<.<.<.<.F   + #     #     # +   # #   + # ",
"    # +   #     + +   + +   + H <.<.<.<.;.[ ' ' ' ' ' ' / / / / / / ' ' ' ' ' ' X.>.<.<.<.:., #   + #     # +   + +   + +   + # ",
"# #   + #   + #     #     #     : =.<.<.<.<.;. .' ' ' ' ' ' ' ' ' ' ' ' ' [ $.>.<.<.<.<.@.<     # +   # #   + #     #     #     ",
"    + +   + +   + +   + +   + +   O L <.<.<.<.<.>.;.$. .[ [ ' [ [ [ X.$.;.<.<.<.<.<.:.J @   + +   + +     + +   + +   + +   + + ",
"    #     #     # +   # #   + #   + # = I <.<.<.<.<.<.<.<.<.<.<.<.<.<.<.<.<.<.<.:.L O # #   + #     #     #     # +   # #   + # ",
"# #   + #   + #     #     #     # +   # # = K =.<.<.<.<.<.<.<.<.<.<.<.<.<.<.=.J O   #     #     # +   # #   + #     #     #     ",
"+ + + + + + + + + + + + + +     + + + + + + + + - F P @.:.<.<.<.<.:.@.L D = + + + + + + + +     + + + + + + + + + + + + + +     ",
"    #     #     # +   # #   + #   + #     #     # +   # # X O % . X #     #     # +   # #   + #     #     #     # +   # #   + # ",
"+ +   + #   + +     #     #     + +   + +   + #   + #     #     # +   + +   + #   + #     # +   # +   + +   + #   + #     # +   ",
"# +   + #   + #   + #     #     # +   + +   + #   + #     #     # +   # +   + #   + #     #     # +   # +   + #   + #     # +   ",
"    #     #     # +   # #   + #     #     #     # +   # #   + #   + #     #     # +   # #   + #     #     #     # +   # #   + # ",
"+ + + + + + + + + + + + + + + + + +   + + + + +     + + + + + + + + + + + + + +     + + + + + + + + + + + + + +     + + + + + + ",
"# #   + #   + #   + #     #     # +   # #   + #     #     #     # +   # #   + #     #     #     # +   # #   + #     #     #     ",
"    #     #     # +   # #   + #   + #     #     # +   # #   + #   + #     #     # +   # #   + #     #     #     # +   # #   + # ",
"    + +   + +   + +   + +   + +   + +     + +   + +   + +   + +   + +     +     + +   + +   + +   + +     + +   + +   + +   + + ",
"# #   + #   + #     #     #     # +   # #   + #   + #     #     # +   # #   + #     #     #     # +   # #   + #     #     #     "
};
