/* XPM */
static char *a12ec4f078a44313aa2c854b9a95ecb1A4gvCxZKfJmY1veI[] = {
/* columns rows colors chars-per-pixel */
"64 64 217 2 ",
"   c None",
".  c #2C0C00",
"X  c #330F00",
"o  c #2D1A07",
"O  c #2C1406",
"+  c #3B1A03",
"@  c #371907",
"#  c #2D1D10",
"$  c #392515",
"%  c #393228",
"&  c #411301",
"*  c #441B04",
"=  c #4A1905",
"-  c #561E03",
";  c #47250D",
":  c #522504",
">  c #54260D",
",  c #582C09",
"<  c #5B320E",
"1  c #5B330B",
"2  c #462E1A",
"3  c #4F3014",
"4  c #5C3213",
"5  c #58371B",
"6  c #69340A",
"7  c #722F14",
"8  c #663915",
"9  c #783A15",
"0  c #4D2B21",
"q  c #453626",
"w  c #593E24",
"e  c #593C2D",
"r  c #4E3D35",
"t  c #673B20",
"y  c #754319",
"u  c #63442D",
"i  c #684226",
"p  c #774826",
"a  c #624631",
"s  c #61493F",
"d  c #765231",
"f  c #554942",
"g  c #594F46",
"h  c #59554D",
"j  c #5F5C53",
"k  c #7A5F49",
"l  c #675E5A",
"z  c #615C56",
"x  c #68584B",
"c  c #69675F",
"v  c #746152",
"b  c #6E6A66",
"n  c #6D6562",
"m  c #7D726B",
"M  c #7D7674",
"N  c #EC1C12",
"B  c #F21C19",
"V  c #DB2D0F",
"C  c #E4250E",
"Z  c #E82B0D",
"A  c #E4350D",
"S  c #ED2415",
"D  c #E32B14",
"F  c #EB211A",
"G  c #E42915",
"H  c #F32A1B",
"J  c #F4231B",
"K  c #ED3C1B",
"L  c #EA3317",
"P  c #F3341B",
"I  c #F83823",
"U  c #934D1B",
"Y  c #9A4A27",
"T  c #945526",
"R  c #96592C",
"E  c #8B5C37",
"W  c #935832",
"Q  c #8A5428",
"!  c #A0492B",
"~  c #A6592B",
"^  c #A55C25",
"/  c #BB5B38",
"(  c #92613A",
")  c #9A6339",
"_  c #AB632B",
"`  c #AD6C35",
"'  c #A66C3C",
"]  c #B36B39",
"[  c #DA4E1B",
"{  c #EA4219",
"}  c #E84919",
"|  c #F1461A",
" . c #E6531B",
".. c #F2591D",
"X. c #D34E23",
"o. c #CB5935",
"O. c #D95C36",
"+. c #D95B21",
"@. c #EB4A22",
"#. c #F64826",
"$. c #EC5223",
"%. c #EF5C21",
"&. c #E65B2B",
"*. c #F35C24",
"=. c #F25B29",
"-. c #F75826",
";. c #F14C30",
":. c #F45D30",
">. c #DA693C",
",. c #D2783B",
"<. c #C7703A",
"1. c #F76927",
"2. c #FB732C",
"3. c #FE7C2D",
"4. c #F6792A",
"5. c #EA6734",
"6. c #FD6531",
"7. c #FF6E34",
"8. c #FF6C3B",
"9. c #FF673A",
"0. c #E97638",
"q. c #FF7633",
"w. c #FD7B34",
"e. c #FE7C3B",
"r. c #F37535",
"t. c #E5752D",
"y. c #9A6E48",
"u. c #866752",
"i. c #A36E45",
"p. c #A57447",
"a. c #A77349",
"s. c #B47246",
"d. c #BE7C49",
"f. c #AD7952",
"g. c #947963",
"h. c #C87A4A",
"j. c #D47E42",
"k. c #DB764C",
"l. c #CE7D53",
"z. c #D86745",
"x. c #FF7644",
"c. c #FF7D42",
"v. c #FF7B4B",
"b. c #FF7249",
"n. c #E67243",
"m. c #D7803D",
"M. c #FF8427",
"N. c #FD852D",
"B. c #F68B2D",
"V. c #FD8B2D",
"C. c #FB8D26",
"Z. c #FD902D",
"A. c #EE8B3B",
"S. c #FE8533",
"D. c #F68C33",
"F. c #FE8C34",
"G. c #FF853B",
"H. c #F58F38",
"J. c #FE8C3B",
"K. c #F58531",
"L. c #F49034",
"P. c #FD9134",
"I. c #F5913A",
"U. c #FE923B",
"Y. c #FF9939",
"T. c #AB8256",
"R. c #B3835F",
"E. c #998476",
"W. c #BB8C65",
"Q. c #C28046",
"!. c #D9894B",
"~. c #CC8157",
"^. c #D28750",
"/. c #DD9555",
"(. c #ED8D4C",
"). c #E98A49",
"_. c #FF8542",
"`. c #F48E43",
"'. c #FE8B42",
"]. c #FF844A",
"[. c #FF8A4C",
"{. c #F18142",
"}. c #EC944B",
"|. c #E89647",
" X c #F39244",
".X c #FE9143",
"XX c #F3934C",
"oX c #FC934A",
"OX c #FB9A4A",
"+X c #ED8450",
"@X c #E88F52",
"#X c #F88950",
"$X c #E59254",
"%X c #ED9553",
"&X c #E89958",
"*X c #F39353",
"=X c #F39B53",
"-X c #F19959",
";X c #D89C6D",
":X c #D09C74",
">X c #CC976F",
",X c #E79C65",
"<X c #ECA76D",
"1X c #FFBE7B",
"2X c #E2A77D",
"3X c #868785",
"4X c #948B86",
"5X c #979494",
"6X c #A49284",
"7X c #D5AF8A",
"8X c #D2AF95",
"9X c #E7AF80",
"0X c #F3AF80",
"qX c #E8BC97",
"wX c #F3B585",
"eX c #E7BEA2",
"rX c #EAC08E",
/* pixels */
"                                                                                                                                ",
"                                                                                                                                ",
"                                                                                                                                ",
"                                                                                                                                ",
"                                                                                                                                ",
"                                                                                                                                ",
"                                                                                                                                ",
"                                                                                                                                ",
"                                                                                                                                ",
"                                                                                                                                ",
"                                                                                                                                ",
"                                                                                                                                ",
"                                                                                                                                ",
"                                                            a u u                                                               ",
"                                                    8 y T _ !.,.j.<._ R y <                                                     ",
"                                                i E R.;X%X`.J.J.J.J.OX(.$X^.T 6                                                 ",
"                                            p Q W.8X    &XI.D.P.F.U.U.J.`..X`.!.U 8                                             ",
"                                          e a.;X        =XB.U.D.U.P.S.J.J.F.F.J.}.` 4                                           ",
"                                        5 T.7X      <X)..XS.K.OXP.B.S.J.U.F.F.U. X%Xd.1                                         ",
"                                      5 T.rX    9X/. XU.S.J.J.K.V.Z.P.F.H.F.F.F.J.`.%XQ.1                                       ",
"                                      f.qX    <X%XA.U.C.N.J.F.U.V.P.F.H.D.H.F.F.F.J.D.XX` ,                                     ",
"                                    E 2X    ,XXXJ.F.V.M.F.F.F.F.F.S.J.U.U.P.V.V.N.F.N.D.=XR e                                   ",
"                                  w :X    0X(.'.'.'.S.P.V.N.J.J.J.G.'.G.J.F.V.N.F.S.U.N.H./.8                                   ",
"                                  y.eX  wX@XG.G.].r.2.G.S.F.J.J.'.[.c.r.2.S.F.N.F.J.N.N.U.}.' 3                                 ",
"                                y :X    -XJ.G.].v.@.} v.]..XS.J.'.].b.}  .G.F.S.J.J.F.F.F. X!.8 v                               ",
"                                W 2X  qX`.S._.$.#.L D @.&.e.F.J.q.=.#.D A | 1.S.'.J.F.F.F.I.XX^ 5                               ",
"                              a W.    &XJ.G.].;.C J J G $._.J.F.w. .C S C V %.G.'.G.J.F.F.F..Xj.; 4X                            ",
"                              u >X  1X}.U.J._.v.P N N I x._.S.J.G.8.P S C | ]._.'.G.J.F.F.F.J.(.4 x                             ",
"                              p $XXX=X X`.J.S.e.{ K P K c.'.S.F.G.7.A L L { c.G.J.F.F.F.F.P.G.*Xp e                             ",
"                              E =XD.J..X`.J.S.3.%.8.8.*.w.J.J.S.J.2.*.8.8.*.e..XJ.F.S.S.F.U.F.XXE 2                             ",
"                              ) |.Y.N.F.F.S.J.J._.G.J.F.U.D.D.U.K.G.J.G.G.G.G.G.H.P.D.F.F.F.L.|.y.;                             ",
"                            k p. XC.F.S.F.F.J.J.'.F.V.C.B.I.I.H.U.J.U.F.F.F.S.F.B.P.B.U.F.F.L.|.p.+ E.                          ",
"                            u.i.XXS.S.F.P.B.J.J.'.G.F.V.Z.B.I.I.J.J.P.P.N.N.S.V.V.P.N.J.F.J.U.}.a.+ E.                          ",
"                            g.) XXF.F.B.F.B.U.J.G.G.U.F.S.F.U.D..XJ.D.D.J.S.N.S.N.S.F.U.J.U.U.}.i.@ E.                          ",
"                              ( *XJ.P.B.D.P.U.H.J.G.'.w.2._.G..XS.F.'._.'.4.4.G.'.J.J.U.B.F.F.}.( @ 6X                          ",
"                              p %XD.F.F.H.P.L.H.J.'.c. .} v.c.G.F.S._.].v.[  .c._.'.J.J.P.P.F.XXp 2                             ",
"                              i @XJ.F.F.P.P.D.H.S.1.#.L G #.-.q.S.F.w.:.;.D D #.-.e.G.S.U.F.N.}.8 q                             ",
"                              i j..XF.F.F.F.D.J.G...Z S F C | w.M.U.e.$.D F F C #.e.G.S.U.D.S.m.+ g                             ",
"                              u.~ `.J.F.F.S.J.G.G.c.I N B P 7.S.F.F.G.x.I B B I 7.'.F.F.J.J.oX^ X m                             ",
"                                9 ).I.F.F.F.G.G.G._.| Z H L w.F.V.F.J.c.K H H P c.J.M.V.J.`.$X6 $ 5X                            ",
"                                d ` }.U.S.F.J.S.J.3...6.9.=.S.F.P.F.J.e.*.8.8.-.w.P.C.V.J.*Xs.X f                               ",
"                                  1 !.A.F.F.F.U.F.F.S.'.[.e.J.D.P.F.J.J.e.G.G.G.J.B.Y.P.`.!.t # 3X                              ",
"                                  k ) %X`.F.F.F.V.Z.V.F.J.`..XJ.H.F.F.F.U.F.F.J.P.F.B.I.-XW . h                                 ",
"                                    > d.*XoX'.G.N.V.Z.B.H..X'.J.J.F.P.C.F.B.F.D.U.J..X*Xs.* % 3X                                ",
"                                      < h.+X[._.J.F.P.F.J.G.G.J.J.K.P.V.S.F.U.J.J.oX+Xl.> o c                                   ",
"                                        , ~.+X+.G.S.J.G.G.G.G.U.J.N.F.U.J.G.J.G.t.(.l.- @ l                                     ",
"                                          < ~ >.5.6.7._.'.G.S.N.F.F.G.'.G.G.3.r.).] : o f                                       ",
"                                            : Y z.O.X.&.r.w.w.3.4.J.e.0.0.{.t.,.U & o j                                         ",
"                                              w > W / k.n.&. . . .e.5.>.<.h.R : . q c                                           ",
"                                                  2 > 7 ! / o.O.>.o./ Y 9 = + $ h                                               ",
"                                                    m s 0 + & = * X + @ o r l 5X                                                ",
"                                                          4XM n z b b M 5X                                                      ",
"                                                                                                                                ",
"                                                                                                                                ",
"                                                                                                                                ",
"                                                                                                                                ",
"                                                                                                                                ",
"                                                                                                                                ",
"                                                                                                                                ",
"                                                                                                                                ",
"                                                                                                                                ",
"                                                                                                                                ",
"                                                                                                                                ",
"                                                                                                                                "
};
