/* XPM */
static char *xpm_[] = {
/* columns rows colors chars-per-pixel */
"64 64 192 2 ",
"   c gray2",
".  c #0C0C0C",
"X  c #141414",
"o  c #1B1B1C",
"O  c #170825",
"+  c #1C1F20",
"@  c #211A2E",
"#  c #2B1C35",
"$  c #35183D",
"%  c #242424",
"&  c #28272C",
"*  c #2B2B2B",
"=  c #302E2F",
"-  c #31322C",
";  c #2E2836",
":  c #312F32",
">  c #33223B",
",  c #333333",
"<  c #353932",
"1  c #3C3B3B",
"2  c #3E403E",
"3  c #42423E",
"4  c #381A46",
"5  c #3D1E50",
"6  c #332744",
"7  c #392D45",
"8  c #3D244E",
"9  c #3A3441",
"0  c #3F3D43",
"q  c #3A2050",
"w  c #411A53",
"e  c #433F45",
"r  c #452C58",
"t  c #4F3A51",
"y  c #4D345B",
"u  c #533B58",
"i  c #56186A",
"p  c #5B0871",
"a  c #5C0D7D",
"s  c #5C1678",
"d  c #61197B",
"f  c #613164",
"g  c #662B76",
"h  c #434343",
"j  c #484846",
"k  c #4C4B4C",
"l  c #4E504C",
"z  c #4C4852",
"x  c #514856",
"c  c #4F5151",
"v  c #535454",
"b  c #595955",
"n  c #5C5C5C",
"m  c #605D5F",
"M  c #5C615D",
"N  c #61635D",
"B  c #604E6A",
"V  c #645F65",
"C  c #695871",
"Z  c #5F6165",
"A  c #646464",
"S  c #696767",
"D  c #696964",
"F  c #6A676A",
"G  c #6B6B6B",
"H  c #6E6E70",
"J  c #716B74",
"K  c #716778",
"L  c #747474",
"P  c #78767B",
"I  c #7C7C7C",
"U  c #827D7E",
"Y  c #7E817D",
"T  c #83837E",
"R  c #630E8B",
"E  c #631485",
"W  c #661885",
"Q  c #66178B",
"!  c #6A158F",
"~  c #6A1692",
"^  c #6B2888",
"/  c #712A8A",
"(  c #72348B",
")  c #6F2998",
"_  c #743391",
"`  c #793198",
"'  c #7B4A8D",
"]  c #755D89",
"[  c #7D4898",
"{  c #7F7787",
"}  c #7E7C82",
"|  c #823EA5",
" . c #804D92",
".. c #824D9D",
"X. c #84519D",
"o. c #827C83",
"O. c #936A9E",
"+. c #93719F",
"@. c #8344A3",
"#. c #874AAB",
"$. c #8949A9",
"%. c #8A53A6",
"&. c #8A48B3",
"*. c #8E55B0",
"=. c #945DB1",
"-. c #9768AE",
";. c #9471AC",
":. c #9869B4",
">. c #9F74B5",
",. c #A26EBA",
"<. c #A475BD",
"1. c #A27BB8",
"2. c #9B63C1",
"3. c #A273C1",
"4. c #A47AC0",
"5. c #7E8283",
"6. c #838384",
"7. c #898A86",
"8. c #88848B",
"9. c #8B8B8B",
"0. c #908E8F",
"q. c #8E918B",
"w. c #91938E",
"e. c #928E93",
"r. c #958C9B",
"t. c #998B9C",
"y. c #939393",
"u. c #989897",
"i. c #9B9B9B",
"p. c #9A84A6",
"a. c #A294A9",
"s. c #A585B4",
"d. c #AC8ABC",
"f. c #B18DBD",
"g. c #AC94B8",
"h. c #A3A3A3",
"j. c #AAA7A8",
"k. c #ADADAD",
"l. c #AFB2AB",
"z. c #ADADB3",
"x. c #B3AAB6",
"c. c #B3B3B3",
"v. c #B6B5BA",
"b. c #B9B8B8",
"n. c #BCBCBC",
"m. c #BFC1BE",
"M. c #AB83C2",
"N. c #B28AC4",
"B. c #B698C7",
"V. c #B9A6C4",
"C. c #B8AAC5",
"Z. c #BAB7C2",
"A. c #B7A4D0",
"S. c #C6B7CB",
"D. c #C5A7D6",
"F. c #CEB2DA",
"G. c #CEAAE0",
"H. c #C4C4C4",
"J. c #C7C5C9",
"K. c #CCCCCD",
"L. c #D0D5CD",
"P. c #CBC8D3",
"I. c #D1CED2",
"U. c #D4C8DA",
"Y. c #CFD2D0",
"T. c #D4D4D4",
"R. c #D8D7D7",
"E. c #D6D5DA",
"W. c #D9D8D8",
"Q. c #DCDCDC",
"!. c #E0DFDA",
"~. c #DFE5DA",
"^. c #E2E3DF",
"/. c #DBC8E2",
"(. c #DED8E3",
"). c #E3C9EA",
"_. c #E2DFE5",
"`. c #E3D4E8",
"'. c #EBCBF5",
"]. c #E4E4E4",
"[. c #E5E4E6",
"{. c #E8E6E6",
"}. c #E9EBE6",
"|. c #E8E6E9",
" X c #EBEBEB",
".X c #EDF1EA",
"XX c #EEE9F3",
"oX c #F1EFF1",
"OX c #F7EAF9",
"+X c #F2F2F2",
"@X c #F8F7F6",
"#X c #F9F9F9",
/* pixels */
" X].].].|. X^._.^.|. X].].^.]. X}.]._.]. X}.^._.].|.}._.S.f.f.f.f.f.B.].}._.~.].]. X].^._.]. X}.].]._.}.[.].].]. X]._.].].|.|.].",
"+X].].]. X|.].].].|. X].]._.]. X|.].^.]. X].].].].{.U.U.1._ _ / / / $./.K.].].].|..X].].^.]. X}.].].].|.].].].]. X|._.].].].|.].",
"@X X|.|.+X+X X X X.X+XXX X}. X+X.X X X X@X X|..XXXOXs s -.).`.'.B.-.` i O T.]. XXX+X X X|. X+XoX X X X.XoX X X X+X.X X X X+X+X}.",
"@X X X X.XoX|.|.}..X+X X|.|. X+X X|. X X+X X|. XP.i @.G.)./.oXOX).D.4.&.i # i. X.X+X|.|.|. X+X X X X].+X X X X X+X.X[. X X X+X}.",
" X].].].|. X].^.^.|..X].].].]. X|.}._.]. X].].~.F.Q <.F./.!.].`.V.>.#.) @.6 y. X].XX].^.^.].XX|.].].].|.}.].].]. X|.].].].]. X].",
"oX].].].|. X^.].].|. X|.].].]. X|.].^.].oX].].S.>...-.N.D./.`.D.d.*.) ! ` f K h.|..X].].].|..X|.].].]. X].].].[. X}.^.].]. X X].",
"oX].].]. X.X].].].|. X|.].].]..X|.}.].].oX].^.s.) :.:.:.N.F.G.B.<.@.W ~ E #.y Z  X.X].].].]. X|.].].]. X X].[.].XX|.].].]. X X].",
"@X.X X X+XoX X|. XoX+X X}. XXX+XoX X X X#X X}.s.E i R.].B.%...'.-._ E R a &.y Z  X+X X|. X X+X.X X X|.+X.X X X X+X.X|. X X+X+X X",
"+X|.}.|..X.X|.].}. X+X X].]. X X X|. X}.+X X}.s.( C.E.T.(.XXXX' 3.2.@.R E $.r m |.+X|.}.|.|.+X.X X]. X.X X|. X[.+XoX].|.|..X.XXX",
".X].].].|.|.].].].]. X].].].]. X].].^._. X]._.r.z z.c.J.K.T.|.U.;.*.&.| R r ; N }.|.].].^.^. X|.]._.].|.|.^.].]. X].].~.].|.}.].",
"oX].].].|. X].].].]. X].].^.]. X].]._.]. X]._.8.e k.y.n.T.Q.}.}.Z.N.1.` 5 K h M ]. X].Q.].]..X|.].~.]. X].].].]. X|.].].].|. X].",
" X].].].|. X].].].]. X].].].]. X}.].].}..X|.].7.1 h.u.H.J.J.K.P.!.Q.Z. .z T k A ]. X].].].]. X|.].].]. X].].].]. X|.].].].]. X].",
"+X X X|. X+X|.|.|. XoX X].]. XoX X X|.|.+X X].q.< P ].R.k.} } I K.].(.L.l.: & D  X+X|.}.].|.+X X].]. X.X.X X X X+X.X].|.|.oXoX}.",
"#X X.X X+X+X X X X+X+X.X X X X+XoX.X X X@XoX X XH.X T.b.m.m.I +Xe c 9.k.X + i. XoX@X X X XoX+X+XXX XXX+X+X X X X+X+X X]. X+X+X.X",
".X].].]. X X].].]. X X}.].].]. X}.].].]. X|.].].H.o 9.6.j.K.H.9.L i.J.^.F * i.].}. X].].^.].|.|.].].]. X[.].].].oX].].].].}. X].",
"+X].].]. X.X].].].|. X|.].].|. X|.|.].].oX}.].].T.0.k k q.J.m.z.k.n.H.j.I = i.].|. X].].].}. X|.].].|..X X[.].|..X X].].]. XXX].",
"XX].].].]. X].].].].[.].~.].]. X].].].]. X].].].].}.n 1 A h.k.T.S.x.g.9.A Z k.].]. X].^.~.].].].].].].[.[.].].]..X[._._.~.[. X].",
".X].}.|.}. X].].]. XoX[.[.].].oX X].[.]..X|.].].|. X|.v % h k.K.g.' ' k.o Y.].].].oX].].]. X.X X[.[.]. X X[.].[..X X].].].XXoX].",
"#X.XoXXX+X+X X X.X+X+XoXoX X.X+XoX.X+XoX+X+X X.X X@X+Xk k S X . Z.P.r.X #X X XXX.X#XoX X XXX+X+XXX.X.X+X+X XoX.X#X+X X.X X+X+XoX",
"+X].|.]. X X].].]. X X.X].].].oX[.[.].[.+X|.].].}. X].v v I L h.j = b E.+X].].].|.oX[.[.[.[.oX}.].[.].oX X[.[.[. X X].].]. X X].",
"oX].].]. X X].].].]. X].].].]. X|.].].]..X].].].Y.S G A H 6.i.0.A M M G H F v.].]. X].].].].}.|.].].]. X|.].].]. X[._.].]. X X].",
".X].].]. X X].].].]. X|.].].]. X].].].].XX].z.h.9.1 h G o.6.i.I y.y.P > x x { v.]..X].].].].oX].].].]..X|.].].[. X[.].].].]. X].",
"+X].|.|.XX.X].].]. X+X X].|.|.+X X X].]. XQ.v & 1 6.6.I T T 6.6.n.Z.p.Q 4.M.B Z (..X|.].].|. X X[.[.[..X X].[.[..XoX].].[. X.X[.",
"#XXX.X X+X+X X X X+X+X X X XXX+X.XXX XoX#XX + j 8.c.Q.y.j.Q.#X#Xy.k.x.s [ ).A.:.s #X}..X X+X+X+X.X XoX+X+X X.XXX+X+X X.X.X+X+XoX",
".X].].]. X X].].].[..X[.].].]. X].].{.].XX% A y.l.L.Y b.R.~.L.T.9.j.I.`.@.*.*.` ^ +X].].].].oX|.].].]..X[.].].]..X X].].]. X X].",
" X].].].[.].].].].]. X].]._.~. X].].].T.n Z z C ;.3.( [ %.;.b.u.b.I.Q.].C.V.p.C q  X].].^.]. X]._.]._.|.[.].].].|.].Q.].].].[.].",
"+X|.].]. X X].].]. X X[.].].]. X}.}.J.5.b { 0 u *.#.[ [ X.O.;.a.E.(.R.L.c.9.H Z 5. X].].].].XX X].].]..X X].].[.oX X].].[. X.X].",
".X].].]. X.X].].]. X X[.].].]..X].T.y.z V.%.r t [ %.4.4.A.C.f E.].E.J.c.I h h L |. X].].].]..X].].].]. X.X].].]. X X].].]. X X].",
"#XXX XoX+X+X X XXX+X+XoX X XoX+X+XM v V.[ &.8 + , o.[ %.N.m.} Q.E.T.L.R.L ].|. XoX+X.X X XoX+X+X X.X.X+X+X.X XoX+X+X X X.X+X+X+X",
"+X}.|.|..XoX].].]. XoX}.].].].oX}.Z h { s Q W s s + { } 5.y.T.T.T.h.T 6.oX]. X|. X+X|.].]. X.X X[.[.].+X X].|.|.oX X].].[. X.X|.",
".X].].].|. X].].].}. X].].].]. X|.Z j 5.] ] y q 7 A 1 h h v y.y.y.S M J.|.].].}.[. X].~.].]. X[.].].]. X X].].]. X X_.].]. X X].",
".X_.].].|. X].].].]. X].].].^. X|.i.G v c b < 1 Z y.L L Z l v v b S y.]. X].].].[. X]._.].]. X[.]._.]. X].].].]. X[.~._.].|. X_.",
" X].].].]. X].].]. X X].].].]. X].].h.j h % , N y.c.].K.k.I h , , I H.}.|.].^.].|.XX].].Q.]..X].].].Q. X].].].]. X].Q.].]. X|.].",
"+X X|. X.X.X X|. X X+X X]. X X+XoX X X X@X+ S h.K.c. XT.T.T.T.I I k c oX+X X|. X.X+X}.|. X X+X XXX}. X+XoX X X X+X X}. X|..X.X X",
"#X X X X+X+X X|. X X+X X X X X+X X X X X@Xo 9.k.v.Q.T.T.T.J.c. X|.I c  X+X X|. X X+X}.}. X X+X X X X X+X.X X}.XX+X+X|.|. X.X+X X",
" X].].]. X X].].].]. X].].].]. X|.|.].].+X% 9.i.y.T.T.K.T.K.Q.Q.R.i.A k +X].].}. X X].].].]. X X].].]. X|.}.].]. X X].]._. X X].",
"+X|.].]. X X].].].]. X].].].]. X}.].].].oX% 9.u.9.H.T.K.J.m.^.^.R.b.I % +X].].]. XXX].].].]..X|.].].]. X X].].]. X}.].].].|. X].",
".X].].]. X X].].]. X X}.].].]. X].].].}.+X% 9.i.q.h.J.J.v.k.K. X].J.0.% H.Q.].}.|..X].].].|. X|.].].]. X X].].]. X|.].].|. X X].",
"+X X X XoX+X X|. XoX+X X|.}. X+X X X X|.@X+ 9.H.J.I l.c.y.y.E.+X X~.h.o X T.|. X X+X}.|.|. X+X.X X X X X X X X X.X+X}.|.XX.X+X X",
"#X X X X.X.X X|. XoX+X X X X X+XoX X X X@Xo 9.m.J.l.I , k 9.c.+X X|.b.X X T. X X X+X X X|. X+X.X X].}.oX+X X X X+XoX|.|. XoX.X X",
" X].].].[. X].].].|. X].].].]. X|.].].].oX% 9.n.K.K.j.j : c z. X].].c.% h.k h.].|. X].].^.]. X|.].].]. X[.].].]. X|.].].~. X X].",
"oX].].].|. X].].]. X X].].].]. X}.].].].+X% 9.n.K.T.c.j % 1 y.~.].].v.+ K., u.].}. X].]._.}. X|.].].]. X X].].]. X X].].].|. X].",
".X[.[.].|.oX].].].|. X|.].].]. X|.].].].#X% 9.m.Y.T.z.j 2 A S T.].].n.k j.Z 9.m.|.oX].].].|. X|.].].]..X|.].].]. X}.].].]. X X].",
"+X X X X.X.X|.[. X.XoX X|.|.}.+X X X X X@Xo 8.n.Y.T.c.h 6.b.o T.].}.Q.l.. m.S M  X+X].}.|. X+X.X X}.].oXoX X|. X+XXX].}. XXX+X].",
"#X X X|.+X+X X X X X+X.X X}..X+X.X X X X@Xo A y.b.Q.c.h U n.o c.K.T.T.R.. T.L n oX+X X X X X+X+X X X X+X.XXX.X X+X.X X X X+X+X.X",
"XX].].]. X X].].].|.XX].].].]. X].}.|.]..XJ.b P J.c.l.j 6.Q.H., u.K.R.c.X Y.H.0.k oX].^._.}. X|.].].]. X}.].].].XX].].].].|. X].",
".X].].].|. X].].].].[.].].].(. X|.].]._. X}.b G l.y.z.j 6.].].o } v.K.k.X H.R.h.: .X].^._._. X].]._.].|.].].].]. X|.(.].].|. X].",
" X].].].|.].]._.].[. X].~.].]. X|.].].]. X].v A y.P h.h 6.Q.].% I h.k.i.1 0.H.c.v j.Q._.~.]. X}.].^.]. X].].].]. X].~.].].]. X].",
".X].].|. X X].].]. X X X].].].+X}.}.].|.+X|.b c 5.6.6.3 5.T.}.* e.e.6.5.8.= u.T.j.X Y.].].|..X X].].].oX X].|.|..X X].].]. X X].",
"#X+XXX.X+X+XoX.XoX+X+XXX.X+X.X+X+XoX X X@X+Xc N b.Q.(.b.D z +X#Xe G b.Q.].- i.].K.X E. X XoX@X+XoX X X+X+X X.XXX#X+X X X+X+X+XoX",
"+X|.}.]. XoX].].z.1 .X].].].].+X X|.].].oX}.T.6.7 g ^ p.F k |.: % J t./ g > u.].Q.X Y.].].|.XX X].].]..X.X].|.]. X X].].]. XoX].",
".X].].]. X X].].h.& A ~.|.].].oX|.|.].}.oX}.].7.7 -.~ p.D 1 S b : G r.Q =.6 y.T.K.o Y.].].]..X X|.].].oX X].].|. X X].].]. X.X].",
".X].].].}. X].].h.% Z i.h.v.]. X].].].].oX].].7.9 ,.W s.S = 0 y.1 H r.Q <.r K h.n.o K.^.^.]. X|.].].].|.|.].].]. X X].].]. X X].",
"+X].].]. X X].].l.2 J.h , H T.E. X].].|. X].R.5.7 $.g p.D h o.c.j H e.^ &.~ w v h.o Y.].].|..X|.].].]. X X].].]. X[.].].]. X X].",
"#XoXXXXX+X+XXX X.X_.  J.}.h.X   ].+X+X+X#X+Xl o # d C.1 D c.v.v.v.V e C.p ! > 2 L . E. X XoX#X.X.X X+X+X+X.X X.X+X+X X.XXX+X+X+X",
".X|.}.]. X.X}.].|. X].2 q.E.Q.}.< % % % % % 6.G > s x.j D l.k.} I x j x.s Q 5 % : |.].].].|. X X].|.]..X X].|.|..X X].[.]. X X].",
"oX].].].|. X].].].|.XXc.L M Z ~.h.u.i.i.6.8.Z 1 ; 4 k , n 9.9.1 0 P y.k $ 8 ; & = .X]._._.}. X|.].].]. X|.].].]. X X].].]. X X].",
".X].].]. X X].].^.|. X|.h.L L 9.7.k.k.6.L L b b A G M F Z b b L L 6.9.G n G A A L y.y.J._.^. X|.].].]. X X].].]. X|._.]._.[. X].",
"+X].|.]. X.X].].].|..X}.].].T., 1 I I 1 1 1 L u.v.K.i.n.6.1 % |.L.I A K.u.J.n.b.m., 2 u.T.|..X|.].|.]..X X].].]..X X].].]..X X].",
"#X X X XoX+X X X.X+X+XXX X X X#X+Xn S Q.#XQ.T.Q.L.v.o 9.J.z.o @Xj 9.Q.c.. H.].J.} ]..XA A .X@X+X X X X+X+X X X.X+X+X X X X+X+XoX",
"+X X X]. X.X|.|.}.XX.X|.|.|.|.+X XA % % @ % * % % + !.b % * + .Xh % & %  X1 I H.Q.o h.m.5.2 +X X|.].|.oX X|.|.].+X.X].].|..X+X].",
" X].].].]. X].].].|.|.}.].^.^. X].H.c.k.c.k.c.c.k.v.].b.z.l.c.|.n.c.l.c. Xc.L k M v.v c k 2 |.].].].]. X|.^.].].|.]._.~.].[.|.].",
" X].].]. X X].].].|. X|.].].]. X].].].]..X{.].].]. X X].].]. X X].].].]. X].j.I 5.oX5.5.5.5. X X].].].]. X].].]. X|._.].]. X X].",
"+X].].].|. X^.].].}. X].].].]. X}.].].]. X}.].].]. X].].].].|. X].].].}. X].].]. X X].].].|..X].].]._..X].].].]. X X_.^.]. X X]."
};
