/* XPM */
static char *f246e35a244541cdfac030b3ee7061266vYd4IErJwDk643d[] = {
/* columns rows colors chars-per-pixel */
"64 64 242 2 ",
"   c #2D3029",
".  c #373728",
"X  c #353C2D",
"o  c #38243B",
"O  c #363B37",
"+  c #3C3D33",
"@  c #4D3730",
"#  c #473C34",
"$  c #663937",
"%  c #773935",
"&  c #1A4E0F",
"*  c #0D5402",
"=  c #0C5A03",
"-  c #135809",
";  c #155B0C",
":  c #1B5A13",
">  c #294C1F",
",  c #225B1A",
"<  c #0D6406",
"1  c #056E00",
"2  c #0A6E05",
"3  c #15670E",
"4  c #067101",
"5  c #0A7506",
"6  c #0A7D06",
"7  c #0E7209",
"8  c #0C7D09",
"9  c #12740D",
"0  c #127C0E",
"q  c #196916",
"w  c #197515",
"e  c #157B12",
"r  c #1E7C1B",
"t  c #24631B",
"y  c #20751C",
"u  c #1E5F26",
"i  c #38452C",
"p  c #295A25",
"a  c #345D2D",
"s  c #2C4835",
"d  c #3B4434",
"f  c #394636",
"g  c #3C453A",
"h  c #3E4A3B",
"j  c #385937",
"k  c #2A6823",
"l  c #2C6B2A",
"z  c #326727",
"x  c #32652C",
"c  c #2B7324",
"v  c #267E22",
"b  c #2A7728",
"n  c #35782C",
"m  c #396837",
"M  c #3B6C34",
"N  c #2D7430",
"B  c #387836",
"V  c #4A482E",
"C  c #52462E",
"Z  c #424535",
"A  c #424B35",
"S  c #474539",
"D  c #444D3C",
"F  c #4A4D3C",
"G  c #534431",
"H  c #524C32",
"J  c #594837",
"K  c #45513C",
"L  c #4A533D",
"P  c #435A3A",
"I  c #4B593E",
"U  c #595437",
"Y  c #654439",
"T  c #675838",
"R  c #6C5C3B",
"E  c #447D2E",
"W  c #446538",
"Q  c #546A38",
"!  c #6B623A",
"~  c #73633A",
"^  c #3B2546",
"/  c #3D3748",
"(  c #3B3751",
")  c #442A4A",
"_  c #512F41",
"`  c #463849",
"'  c #543848",
"]  c #442C55",
"[  c #4A2D53",
"{  c #482E5B",
"}  c #522E58",
"|  c #483756",
" . c #4B335B",
".. c #53315D",
"X. c #553A5B",
"o. c #673C4B",
"O. c #4D3767",
"+. c #543462",
"@. c #543A65",
"#. c #5A3A65",
"$. c #54376A",
"%. c #563B6B",
"&. c #5B3B6B",
"*. c #4C3874",
"=. c #523A74",
"-. c #5C3C73",
";. c #573E7D",
":. c #5D3D7A",
">. c #603C6E",
",. c #613D75",
"<. c #633E7C",
"1. c #3A444C",
"2. c #3A584A",
"3. c #3B6746",
"4. c #3D754A",
"5. c #464647",
"6. c #444D43",
"7. c #574748",
"8. c #465242",
"9. c #4A5442",
"0. c #4E5A43",
"q. c #475A49",
"w. c #545445",
"e. c #515C44",
"r. c #525C4B",
"t. c #59584C",
"y. c #484655",
"u. c #544657",
"i. c #495B5B",
"p. c #565956",
"a. c #654B47",
"s. c #675648",
"d. c #74514E",
"f. c #644B56",
"g. c #6A5B55",
"h. c #476846",
"j. c #4B6C43",
"k. c #566346",
"l. c #54634B",
"z. c #5B644E",
"x. c #497845",
"c. c #54794C",
"v. c #4B6456",
"b. c #556453",
"n. c #566757",
"m. c #5D6C55",
"M. c #5D6B5C",
"N. c #437152",
"B. c #5A7658",
"V. c #6D6542",
"C. c #776748",
"Z. c #636B57",
"A. c #776559",
"S. c #687654",
"D. c #65745B",
"F. c #494A6C",
"G. c #5C436B",
"H. c #54486A",
"J. c #5A5666",
"K. c #584675",
"L. c #5D437C",
"P. c #5B5572",
"I. c #62486B",
"U. c #645869",
"Y. c #745765",
"T. c #634275",
"R. c #674977",
"E. c #63417C",
"W. c #695776",
"Q. c #745275",
"!. c #566863",
"~. c #5C7364",
"^. c #656966",
"/. c #756860",
"(. c #637264",
"). c #687968",
"_. c #71776D",
"`. c #6F6977",
"'. c #76687B",
"]. c #677B74",
"[. c #893E40",
"{. c #8D4B4E",
"}. c #89585A",
"|. c #8A754E",
" X c #836C57",
".X c #877557",
"XX c #9B6664",
"oX c #9D6867",
"OX c #857567",
"+X c #8D6C73",
"@X c #0A8007",
"#X c #0C8009",
"$X c #12800F",
"%X c #178314",
"&X c #198316",
"*X c #21821E",
"=X c #2A8627",
"-X c #33842F",
";X c #398636",
":X c #43873C",
">X c #4E874D",
",X c #70855C",
"<X c #78876C",
"1X c #6A8775",
"2X c #738872",
"3X c #96835C",
"4X c #9C8A64",
"5X c #848676",
"6X c #878B70",
"7X c #998978",
"8X c #A4936C",
"9X c #A8956A",
"0X c #AA9976",
"qX c #B1977A",
"wX c #B3A278",
"eX c #593E82",
"rX c #643F81",
"tX c #5B4282",
"yX c #644283",
"uX c #694384",
"iX c #6B438B",
"pX c #664888",
"aX c #694D8D",
"sX c #724A8D",
"dX c #695387",
"fX c #76578A",
"gX c #6E4A93",
"hX c #704D93",
"jX c #6C5493",
"kX c #765B98",
"lX c #7A6587",
"zX c #7D6397",
"xX c #7D65A1",
"cX c #855E9C",
"vX c #887888",
"bX c #876696",
"nX c #8E6F94",
"mX c #966BA2",
"MX c #8D72A6",
"NX c #A278AC",
"BX c #928A89",
"VX c #A888AA",
/* pixels */
"6 6 6 6 4 1 1 4 6 6 6 6 4 1 1 4 6 6 6 6 = * * * 1 1 1 4 v B c.<XZ.n.M.M 5 4 1 1 1 4 4 1 * * * = 6 6 6 6 4 1 1 1 1 1 1 1 1 1 1 1 ",
"6 6 6 6 4 1 1 4 6 6 6 6 4 1 1 4 6 6 6 6 = * - M y 9 c c ,X5XBXOXt.r.r.r.a n w 1 1 4 4 1 * * * * 6 6 6 6 4 1 1 1 1 1 1 1 1 1 1 1 ",
"6 6 6 6 4 1 1 4 6 6 6 6 4 1 1 4 6 6 6 6 = * p (.B.c./.OX7X7XA.7.C..X3X3XC.s.W 3 4 1 4 1 * * * * 6 6 6 6 4 1 1 1 1 1 1 1 1 1 1 1 ",
"6 6 6 6 4 1 1 1 6 6 6 6 4 4 4 4 6 6 6 6 = * x h.)._.a.s.w.w.s..X0X0X7XOX'.W.I.u.h.k 7 1 = * * = 5 6 6 6 4 4 4 4 1 1 1 1 4 4 4 4 ",
"6 6 6 6 = = = = = = = = 5 6 6 5 = = = = 5 5 e v ).^.# O f 6.A.0X7XvXnXMXkXjXpXyX<.P.z = 1 1 1 1 = = = = 5 6 6 6 = = = = 5 6 6 6 ",
"6 6 6 6 = * * * * * * * 6 6 6 6 = * * * 5 6 6 r (.n.q.h.: i .X7XbXMXxXkXdXdXdXE.:.K.a = 1 4 4 1 * * * * 5 6 6 6 = * * * 6 6 6 6 ",
"6 6 6 6 = * * * * * * * 6 6 6 6 = * * * 5 6 6 n ~.>X>X,XM i A.lXkXkXzX'._.<XBX].P.K.2.- 1 1 1 1 * - * * 5 6 6 6 = * * * 6 6 6 6 ",
"6 6 6 6 = * * * * * * = 5 6 6 5 = * * * 5 6 %Xx.B 0 6 B D.w.J.jXzXlXBX5X2X_.2X1X(.p.P.q.2 1 1 1 = - * = 5 6 6 5 = * * * 5 6 6 6 ",
"6 6 6 6 1 1 1 1 5 5 5 5 = = = = * * * * 1 4 5 N ; = = k r.r.P.fXW.(.6X2X1X~.~.B.l.e.u.pX3.4 1 1 5 5 5 5 = = = = * * * * 1 4 4 4 ",
"6 6 6 6 4 1 1 4 6 6 6 6 = * * * * * * * 1 1 1 1 * * * M D.9.n.J.p.6X2X2X1X~.r.k.k.I D K.K.q 1 4 6 6 6 6 = * * * * * * * 1 1 1 1 ",
"6 6 6 6 4 1 1 4 6 6 6 6 = * * * * * * * 1 1 1 1 * * * x _.e.9.b.).2X~.1X(.l.e.0.0.I h y.:.2.4 4 6 6 6 6 = * * * * * * * 1 1 1 1 ",
"6 6 6 6 4 4 4 4 6 6 6 6 = * * * * * * = 1 4 4 1 = * * W `.r.L n.].].].).m.k.e.e.0.K f y.T.H.b 7 6 8 6 6 = * * * * * * = 1 1 1 1 ",
"4 4 4 4 6 6 6 6 6 6 6 6 1 1 1 1 1 1 1 1 6 6 6 6 1 2 2 M U.p.e.b.n.n.!.M.b.e.e.0.I f f 1.&.G.v.- w 9 4 4 5 6 6 5 1 1 1 1 1 1 1 1 ",
"1 1 1 4 6 6 6 6 6 6 6 6 4 1 1 1 1 1 1 4 6 6 6 6 4 1 9 n.`.t.z.D M._.0.0.e.0.e.I K f g 2.u.&.p.W j.M 2 4 6 8 6 6 4 1 1 1 1 1 1 1 ",
"1 1 1 4 6 6 6 6 6 6 6 6 4 1 1 1 1 1 1 4 6 6 6 6 4 5 b '.U.l.M.0.m.).z.e.I 0.0.L f D g 8.9.D Z A j.;X1 4 6 6 6 6 4 1 1 1 1 1 1 1 ",
"1 1 1 4 6 6 6 6 6 6 6 6 4 4 4 4 4 4 4 4 6 6 6 6 4 y B.VX^.m.b.e.D.5Xz.L 9.k.I I A D D D i X + p.q 7 1 1 6 6 6 6 4 4 4 4 4 4 4 4 ",
"1 1 1 1 4 4 4 4 6 6 6 6 6 6 6 6 6 6 6 6 4 4 4 4 1 e B.VX'.).m.r.D.).t.f 0.r.I A f g 6.f f 5.| pXp - - = 1 4 4 4 6 6 6 6 6 6 6 6 ",
"1 1 1 1 1 1 1 4 6 6 6 6 6 6 6 6 6 6 6 6 4 1 1 1 1 e B.VXlXD.).F m.M.g X D n.8.f g h g h y.,.$.yXq.k t * 1 1 1 4 6 6 6 6 6 6 6 6 ",
"1 1 1 1 1 1 4 4 6 6 6 8 6 6 6 6 6 6 6 6 4 1 1 1 1 9 B.+XlXp.Z.e.b.).b.D X g g f g h h g %.<.#.L.J., ; * 1 1 1 4 6 6 6 6 6 6 6 6 ",
"1 1 1 1 4 4 4 4 6 6 6 8 =X=X8 6 6 8 0 8 r ;Xw 7 1 4 c.XX+XJ.e.Z.M.b.(.8.f D D f X X h 5.yXuX,.E.P.: * = 1 1 1 4 6 6 6 6 6 6 6 6 ",
"= = = = 5 6 6 6 < = = l l.x.5 1 = t x.j._.vXvX(.m c B.XXoXY.9.D.M.5.g O O f g f i f 6.G.iXiXuXE.G.l 5 5 4 1 1 1 = = = = 6 6 6 6 ",
"* * * - 0 #X8 6 = * ; D.q.b 4 1 * W BXVXVXNXmXbXfXQ.W.}.qXXXY._.).y.1.  X g g A K 5.G.yXE.yXuX,.@.m #X6 4 1 1 1 * * * * 6 6 6 6 ",
"* * * , P B ;X8 = * z Z.W v 4 2 z nXNXNXMXzXkXkXmXmXfXY.}.{.[.U.(.P.F.O h g S 5.u.G.-.-.:.E.,.&. .v.$X6 4 1 1 1 * * * * 6 6 6 6 ",
"* * * t K 9.B.-Xq t x z.j.r 1 2 M nXbXxXzXjXjXxXmXMXR.d.}.{.% a.!.!.i.6.g y.X.#.&. .@.yXpXE.&...+.i.e 6 4 1 1 1 = * * = 5 6 6 6 ",
"5 5 5 0 t h.z.Z.2Xx.j.z.j.v 4 4 N W.dXdXjXaXaXkXkXjXG.d.}.d.{.d.(.e.f g ` | X.#. .:.uXuXE.>.#...[ y.; = 1 1 1 4 5 5 5 5 4 4 4 4 ",
"6 6 6 6 = t j.r.m.B.n.l.l.n 4 7 >XW.G.E.yXpXyXaXpXyX#.o.{.$ }.Y.7.y.5.G.#.G.I.T.uXiXuXE.E.&.#.} ) y.: * 1 1 1 4 6 6 6 6 4 1 1 1 ",
"6 6 6 6 = * ; m 0.b.m.l.e.j.7 4 B fXR.T.&.T.E.uXK.yXT._ $ $ $ f.7.X.-.T.I.R.R.G.u.7.7.7.J G ` ) ) H.p * 1 1 1 4 6 6 6 6 4 1 1 1 ",
"6 #Xe n x.c.M m l.9.9.r.0.e.c 4 e W.G.| @...&.,. .$.<._ @ $ J s.s.s.7.f.' u.# G T R T R ~ T C # # y.p = 1 4 4 4 6 6 6 6 4 4 4 4 ",
"6 v l.r.m.Z.l.r.9.9.8.r.w.Y R n w h.R.X.7.A. XOXg.u.T.' a. X3X4X0X0X8X3XC.w.G R V.V.~ ~ ~ R U H + f r 6 6 6 6 6 4 4 4 4 6 6 6 6 ",
"6 =X>XN M l x j D h g D Y $ J A.6X,XOX.X4XwXwX0X9X Xf.OX0X0X0XwXqX0X9X|.R L J R ~ ~ ~ ! R U U U f n $X6 6 6 6 6 4 1 1 4 6 6 6 6 ",
"6 8 #X8 4 1 4 k l.0.D Z @ @ 9.w.A.OX4X8X9X4X8X3X Xg./.7X8X8X8XwX4X3X|.R S F J s.R ~ ! T T U H e.B &X#X6 6 6 6 6 4 1 1 4 6 6 6 6 ",
"6 6 6 6 5 5 5 M 9.D g + @ # 6.8.r.g./.OX.X X Xd.t.r.p.g. X|.|.4X XC.T G Z Z J R ! ! T T U H H P ;X*X0 6 6 6 6 6 4 4 4 4 6 6 6 6 ",
"4 4 4 4 &X&XB r.q.x l M j f f D 9.q.M.^.Z.t.w.e.0.D D D F w.s.s.a.J L D f f @ T T T U H V V K q ; - = = = = = = 5 6 6 6 4 4 4 4 ",
"1 1 1 4 %X:Xl.j r #X6 %X9 9 9 k j S 9.r.r.e.0.L D A D D D L 9.F L K K f X X . @ U H V V Z I l 1 * * * * * * * * 5 6 6 6 4 1 1 1 ",
"1 1 1 4 e 0.m &X#X6 6 6 4 1 1 4 0 a + + Z Z Z f f + f D 9.8.K D D D f X .     . # C U L P k 1 1 * * * * * * * * 5 6 6 6 4 1 1 1 ",
"4 4 4 4 w a v $X6 6 6 6 4 1 1 9 E V.G G # # S + + + O g 5.6.6.D A f i X O O / ` [ J.j.t 7 4 4 1 = * * * * * * = 6 6 6 6 4 4 4 4 ",
"6 6 6 6 q ; = = = = = = 1 1 3 k.C.C.# # A c r w c y w p ` @.` y.5.` | X.X...+...[ P.x.1 5 6 6 6 1 1 1 1 5 5 5 5 6 6 6 6 6 6 6 6 ",
"6 6 6 6 = * * * * * * * 1 1 2 t z z p , w #X6 8 #X@X6 0 v.E.%.iX<.<.iX<.&.+.$.+. .P.c.4 6 6 6 6 4 1 1 4 6 6 6 6 6 6 6 6 6 6 6 6 ",
"6 6 6 6 = * * * * * * * 1 1 1 1 4 4 4 4 6 6 6 6 6 6 6 6 N K.L.sXuX<.iXrX&...$.+.O.v.x.4 6 6 6 6 4 1 1 4 6 6 6 6 6 6 6 6 6 6 6 6 ",
"6 6 6 6 = * * * * * * = 1 4 4 4 1 1 1 1 6 6 6 6 6 6 6 6 6 3.yXsXiX<.iXrX+...$.] y.N n 4 6 6 6 6 4 4 4 4 6 6 6 6 6 6 6 6 6 6 6 6 ",
"6 6 6 6 1 1 1 1 1 1 1 1 6 6 6 5 = * * = 1 4 4 4 6 6 6 6 4 x E.iXiXiXiX,.}  .] ] H.b %X6 4 4 4 4 6 6 6 6 < = = = 1 4 4 1 = = = = ",
"6 6 6 6 4 1 1 1 1 1 1 4 6 6 6 6 = * * * 1 1 1 4 6 8 6 6 4 m uXE.iXiXrX&.[ ) ]  .=.3.#X6 4 4 1 4 6 6 6 6 = * * * 1 1 1 1 * * * * ",
"6 6 6 6 4 1 1 1 1 1 1 4 6 6 6 6 = * * * 1 1 1 4 6 6 6 6 5 l fX,.iXuX,.-.-...[ ] *.4.&X6 4 1 1 4 6 6 6 6 = * * * 1 1 1 1 * * * * ",
"6 6 6 6 4 4 4 4 1 1 1 4 6 6 6 6 = * * = 1 4 4 4 6 6 6 8 v h.Q.R.E.uXrXyX<...) ^ *.N.&X6 4 1 1 4 6 6 6 6 = * * = 1 1 1 1 = * * * ",
"4 4 4 4 6 6 6 6 4 1 1 4 6 6 6 6 1 1 1 1 6 6 6 6 4 4 4 5 x.'.dXsX,.iXiXyX:.{ ^ ^ *.i.k = 1 1 1 1 4 4 4 4 5 6 6 5 = * * = 5 6 6 6 ",
"1 1 1 4 6 6 6 6 4 1 1 4 6 6 6 6 4 1 1 4 6 6 6 6 4 1 1 2 B.lX@.pXuXuXiXeX=.) ^ ^ *.v.p * 1 1 1 1 1 1 1 4 6 6 6 6 = * * * 6 6 6 6 ",
"1 1 1 4 6 6 6 6 4 1 1 4 6 6 6 6 4 1 1 4 6 6 6 6 4 1 1 2 B.lXT.@.sX<.yXeX$.^ o ^ K.j : * 1 1 1 1 1 1 1 4 6 6 6 6 = * * * 6 6 6 6 ",
"4 4 4 4 6 6 6 6 4 4 4 4 6 6 6 6 4 4 4 4 5 6 6 6 4 4 4 5 m.'.fX .iXyX-.=.{ o o ] K.q.; = 1 1 1 1 4 4 4 4 6 6 6 6 = = * = 5 6 6 6 ",
"6 6 6 6 4 4 4 4 6 6 6 6 4 4 4 4 6 6 6 6 = = = = 5 6 6 8 n.lXcX@.:.iX$.) ) o o ] L.3.e 1 = * * = 6 6 6 6 6 6 6 6 6 6 6 6 4 4 4 4 ",
"6 6 6 6 4 1 1 4 6 6 6 6 4 1 1 4 6 6 6 6 = * * * 5 0 *Xn ^.fXcX,.+.yXrX[ ) ^ ^ *.tXx.r 1 = * * = 6 6 6 6 6 6 6 6 6 6 6 6 4 1 1 1 ",
"6 6 6 6 4 1 1 4 6 6 6 6 4 1 1 4 6 6 6 6 = * * * 8 b BXnXfXjXkXuX@.:.rXtX=.O.*.tXK.>X=X1 = * * * 6 6 6 6 6 6 6 6 6 6 6 6 4 1 1 1 ",
"6 6 6 6 4 4 4 4 6 6 6 6 1 1 1 1 6 6 6 6 = * * - =X(.bXfXaXjXhXiX:.%.-.-.;.eX=.*.H.B 9 1 = * * = 5 6 6 6 6 6 6 6 6 6 6 6 4 4 4 4 ",
"4 4 4 4 6 6 6 6 = = = = = = = = = = = = 5 5 0 n D.bXsXpX@.aXhXiX<.&.-.+.[ ] ^ { y.n q = 5 5 5 5 = = = = 1 4 4 4 6 6 6 6 6 6 6 6 ",
"1 1 1 4 6 6 6 6 = * * * * * * * * * * * 5 6 n V.Y.kXiX-./ pXhXiXyXrX<.%.) o ^ ( j , ; * 6 6 6 6 = * * * 1 1 1 4 6 6 6 6 6 6 6 6 ",
"1 1 1 4 6 6 6 6 = * * * * * * * * * * * 5 8 Q T I.hXyX .) L.gXiXyXyXE.-.[ o ^ s M - * * 6 6 6 6 = * * * 1 1 1 4 6 6 6 6 6 6 6 6 ",
"4 4 4 4 6 6 6 5 = * * * * * * * * * * = 5 8 Q J I.pXyX . .+.yX:.:.:.-.@. .[ 1., k = * = 5 6 6 6 = * * * 1 1 1 4 6 6 6 6 6 6 6 6 ",
"6 6 6 6 < = = = 1 1 1 1 * * * * 5 6 5 5 4 5 W G X.T.E.%.$. .] %. .-.:.%.%.1.u c 5 5 5 5 4 4 4 4 1 1 1 1 1 1 1 1 = = = = 1 4 4 4 ",
"6 6 6 6 = * * * 1 4 1 1 * * * = 6 6 6 6 4 4 Q G O @.-.:.-.*.] $. .O.tXK.2.q q v 6 8 8 6 4 1 1 1 1 1 1 1 1 1 1 1 * * * * 1 1 1 1 ",
"6 6 6 6 = * * * 1 1 1 1 * * * = 6 6 6 6 4 c C.J   +.:.:.%.O.*.*.| ( s u 3 1 5 5 6 6 8 6 4 1 1 1 1 1 1 1 1 1 1 1 * * * * 1 1 1 1 ",
"6 6 6 6 = * * = 1 4 4 1 = * * = 6 6 6 6 5 S.C.G . . g y.H.| / p 3 3 1 4 4 4 4 5 6 6 6 6 1 1 1 1 4 4 4 4 1 1 1 1 = * * = 1 4 4 4 ",
"4 4 4 4 1 1 1 1 6 6 6 6 1 1 1 1 4 4 4 1 3 C.T . . X * = q q w 5 4 1 1 4 6 6 6 6 4 4 4 1 = * * = 5 6 6 6 4 1 1 1 1 1 1 1 6 6 6 6 ",
"1 1 1 1 1 1 1 4 6 6 6 6 4 1 1 1 1 1 1 1 t V.G . X & * * 6 6 6 6 4 1 4 4 6 6 6 6 4 4 1 1 * * * = 6 6 6 6 4 1 1 1 1 1 1 4 6 6 6 6 ",
"1 1 1 1 1 1 1 4 6 6 6 6 4 1 1 1 1 1 1 1 t U U # > * * * 6 6 6 6 4 1 1 4 6 6 6 6 4 1 1 1 * * * = 6 6 6 6 4 1 1 1 1 1 1 4 6 6 6 6 ",
"1 1 1 1 1 1 1 4 6 6 6 6 4 1 1 1 1 1 1 1 ; k.G S x * * * 6 6 6 6 4 1 1 4 6 6 6 6 4 1 1 1 * * * = 6 6 6 6 4 1 1 1 1 1 1 4 6 6 6 6 "
};
