/* XPM */
static char *a00c9b8145274bf7c1b65a3b09993a44wrhMhzH3lM5DtYXh[] = {
/* columns rows colors chars-per-pixel */
"64 64 256 2 ",
"   c #283514",
".  c #582D31",
"X  c #643038",
"o  c #364A16",
"O  c #325C1B",
"+  c #33512E",
"@  c #396434",
"#  c #4D5830",
"$  c #586125",
"%  c #506D2F",
"&  c #183D56",
"*  c #0E3C69",
"=  c #123A6A",
"-  c #593543",
";  c #683649",
":  c #6C3B4F",
">  c #30574E",
",  c #316C4F",
"<  c #0C486E",
"1  c #084976",
"2  c #14457B",
"3  c #245568",
"4  c #377370",
"5  c #714C52",
"6  c #4B7054",
"7  c #757547",
"8  c #575165",
"9  c #7C4876",
"0  c #48746E",
"q  c #833E51",
"w  c #933D72",
"e  c #A43C6B",
"r  c #B53760",
"t  c #D83250",
"y  c #8D575D",
"u  c #915366",
"i  c #89447B",
"p  c #944477",
"a  c #8D696F",
"s  c #A66A73",
"d  c #CB6E73",
"f  c #6E8834",
"g  c #738A56",
"h  c #508970",
"j  c #698D61",
"k  c #8A904F",
"l  c #96A45D",
"z  c #97966D",
"x  c #ABB378",
"c  c #154A86",
"v  c #0E5585",
"b  c #165787",
"n  c #175599",
"m  c #314D97",
"M  c #156292",
"N  c #307090",
"B  c #0648A8",
"V  c #094CAA",
"C  c #0852A9",
"Z  c #0A54AC",
"A  c #0C59AE",
"S  c #155BA7",
"D  c #0A4CB4",
"F  c #0753B7",
"G  c #0B54B3",
"H  c #0D5BB4",
"J  c #0D5CBA",
"K  c #115DBA",
"L  c #2953A9",
"P  c #3855A6",
"I  c #1B6BAE",
"U  c #0F62BE",
"Y  c #1966B7",
"T  c #1262BD",
"R  c #2B76AD",
"E  c #52529B",
"W  c #6D4E8E",
"Q  c #4B698D",
"!  c #4956A6",
"~  c #4C7AA3",
"^  c #0D5CC5",
"/  c #115FC7",
"(  c #0E64C1",
")  c #0E65CB",
"_  c #1165C2",
"`  c #146AC5",
"'  c #1467CA",
"]  c #146BCB",
"[  c #1572CC",
"{  c #1A73CB",
"}  c #0F68D3",
"|  c #136DD2",
" . c #126ED8",
".. c #1572D4",
"X. c #1977D4",
"o. c #1675DA",
"O. c #1976DA",
"+. c #167ADB",
"@. c #197DDD",
"#. c #2C76C9",
"$. c #2B78C8",
"%. c #177DE2",
"&. c #1A7EE1",
"*. c #8F6484",
"=. c #AC788B",
"-. c #E07786",
";. c #34838C",
":. c #358BB2",
">. c #54918B",
",. c #4F94B5",
"<. c #6F97AE",
"1. c #1C81DD",
"2. c #3896C7",
"3. c #2E8CD0",
"4. c #34A3D1",
"5. c #1784E6",
"6. c #1B83E3",
"7. c #1C89E5",
"8. c #1A86EA",
"9. c #1D8CEC",
"0. c #1D92EE",
"q. c #1B8EF2",
"w. c #1E93F4",
"e. c #1F97F8",
"r. c #1E9BFB",
"t. c #248BE3",
"y. c #208BEB",
"u. c #2797EA",
"i. c #3297E4",
"p. c #2194F5",
"a. c #2895F7",
"s. c #259AF5",
"d. c #2195F9",
"f. c #219CFB",
"g. c #11B6EC",
"h. c #1FA1FD",
"j. c #30A8E9",
"k. c #22A4FD",
"l. c #29A7FA",
"z. c #25ACFE",
"x. c #29ABFD",
"c. c #35A4FC",
"v. c #26B3FD",
"b. c #2CB6F9",
"n. c #2AB5FD",
"m. c #37B8FB",
"M. c #4B92D0",
"N. c #6899CF",
"B. c #46A5CC",
"V. c #70AAD4",
"C. c #579FF5",
"Z. c #4EACE9",
"A. c #47A4FB",
"S. c #54A6FA",
"D. c #48B9FB",
"F. c #54BAFB",
"G. c #7ABBE9",
"H. c #75B3F9",
"J. c #1FC0F5",
"K. c #27C6F8",
"L. c #34CEF3",
"P. c #2DD6F8",
"I. c #37DBF9",
"U. c #2DEDFB",
"Y. c #38E7FB",
"T. c #3CECFC",
"R. c #3CF4FB",
"E. c #38F8FB",
"W. c #54C8F3",
"Q. c #47D7FA",
"!. c #56D7F9",
"~. c #69C6FC",
"^. c #78C6F0",
"/. c #66D8F8",
"(. c #78D9F7",
"). c #47E5F9",
"_. c #43ECFB",
"`. c #4BECFB",
"'. c #58E5FC",
"]. c #54EDFC",
"[. c #5CEDFC",
"{. c #43F3FB",
"}. c #4CF3FC",
"|. c #44FAFC",
" X c #4CFBFD",
".X c #5CF6F7",
"XX c #54F4FB",
"oX c #5BF5FA",
"OX c #54FAFD",
"+X c #5CFAFB",
"@X c #67E8FD",
"#X c #76E6FD",
"$X c #67F6F7",
"%X c #62F6FA",
"&X c #6DF4FA",
"*X c #63FAFB",
"=X c #6BFAFC",
"-X c #76F7F9",
";X c #959593",
":X c #9E9DA7",
">X c #BA95A7",
",X c #DC9092",
"<X c #CB98B0",
"1X c #E59AAA",
"2X c #D0B5B7",
"3X c #E6AAB4",
"4X c #C4CE94",
"5X c #D0C7B6",
"6X c #D6C8BB",
"7X c #89B4D6",
"8X c #86BBF6",
"9X c #D6B5C6",
"0X c #E6BAC6",
"qX c #A2CFD1",
"wX c #89C8F8",
"eX c #96CBF1",
"rX c #88DBF6",
"tX c #94D8F8",
"yX c #A9C9E5",
"uX c #B2CEE7",
"iX c #AAD9E8",
"pX c #B6D7E9",
"aX c #A4C9FD",
"sX c #A9D5F8",
"dX c #B6D8FD",
"fX c #87E7FB",
"gX c #98E5F6",
"hX c #87F6F8",
"jX c #94F4F9",
"kX c #AAE7F5",
"lX c #B2ECF2",
"zX c #B8E6F8",
"xX c #D7CAC5",
"cX c #DAD2CB",
"vX c #D0CFD0",
"bX c #E6D6CA",
"nX c #EDCFD5",
"mX c #E8D7D6",
"MX c #DFE2C2",
"NX c #F1EBD6",
"BX c #F5E9D9",
"VX c #C9DFF5",
"CX c #EDC9E2",
"ZX c #F2CFE7",
"AX c #F5D6EB",
"SX c #F9D9F2",
"DX c #C9E5ED",
"FX c #C7E9FB",
"GX c #D6E9F1",
"HX c #DAF4FB",
"JX c #E8E6E6",
"KX c #F8EAE5",
"LX c #FBF3E8",
"PX c #E0EBF1",
"IX c #E6FBFD",
"UX c #F2FBFC",
/* pixels */
"B B B B B B B B B B B V V V C C C C C C C C Z C Z Z Z Z Z Z A A A A A A A A A A Z C Z Z C C Z Z C C C C C C V V C V V B V V B B ",
"B B B B B B B B B B V V C C C C C C Z Z Z Z Z Z A A A H H H H H H H H H H H A H H A A H G G Z A A A Z Z Z C Z Z Z C V V V B B B ",
"B B B B B B V V V V C Z Z Z Z Z G A H A A H H H H H H H H H J J K K H H H H J J J J H H H G H H H A A H G G G G G G C Z Z V V B ",
"B B B V B V B V D D G G G G H H H H H G H J J J J T T T T K K T K T T T K K K K K J J J J J J J H J J J J H G G G G G G G G G V ",
"B B m L V m m L m E G G P P L P P L L ! P E U T T T T T T T Y T T T T T T T T T T T T J J J U J J J J J J J G G G G G G G G G V ",
"D D w w m w w 9 e E J J i i p p i W p i p E T pXDXN.( ( T ( uXT $.N._ U 7XT T ` { M.T T T T _ U ( U T U U J J J J F F G G G G G ",
"D D w 9 W e e r e P P P p p i i i W p P p P _ $.yX` #.M.pXN.GXDXM.V.uXyXPXM.$.$.N.M.$.( ( _ _ _ T ( T U ( ( U K J J J J J J F F ",
"F F w w 9 r w t e E E W p e p i p W L e p E ` $.yX$.uXV.GXN.uX7XV.7XuX_ uX_ M._ 3.7X$._ _ _ _ _ ( ( ( ( ( _ U ( ( ( ( K K J J J ",
"F F w w w e i t p Y ( ( i i p p p p p p p Y ` $.yX` ] M.yX7XuX7XV.7XuX` pXM.M.` N.M.M.` _ _ ` ` ` ` _ ' _ _ _ _ ( ( _ _ ^ ^ ^ ^ ",
"^ ^ ! ! E ! ! W E W _ ' ! ! ! W ! E E W E *.{ [ { ] [ [ $.[ { [ [ { { ] { { #.` { M.` ] ] ] ` ` ` ` ` ` ' ' ' _ _ ' ) ) _ _ ^ ^ ",
"^ ^ ^ / ) ) ) ' ) ) ] ] ] ] ] ] ] [ [ [ [ [ [ [ [ [ [ [ [ [ [ [ [ [ [ [ [ [ [ [ [ [ [ ] ] ] [ [ [ ] ] ] ] ] ] ] ] ] ] ] ) ) ) ) ",
"^ ^ ) ) ) ) ] ] ] 2 n ' ..] ....{ [ S [ S { { X.Y X.S { { [ { { Y { X.S [ [ [ [ [ [ [ [ { ..................| | | | | ] ] ] ] ) ",
") ) ) ) | | | | | = c = 2 2 c S c c 2 c c c c n * { * 2 2 * 2 { = c X.S c = c c = c ............................| | | | | | | ] ",
"} } | | | | | | ..S n = c n S Y c c c c n n n 2 2 X.2 c n c n X.c S Y c c = c c = S o.O.o.o.O.O.O.O.o...o.................| | | ",
"}  . . .........o...o.O.X.+.+.X.X.X.@.@.@.@.@.@.@.@.@.@.@.@.@.@.@.@.@.@.@.Y @.+.+.+.+.+.+.+.+.+.+.+.O.O.O.O.O.O.O...o.o.........",
" . .o.o.o.o.o.O.O.+.+.@.+.@.@.R N :.:.&.&.&.@.@.@.&.&.&.&.@.1.@.&.1.&.&.&.&.&.&.@.&.@.@.+.+.+.@.@.+.+.@.@.+.+.+.O.@.+.+.o.o.o.o.",
"o.o.o.o.+.+.@.@.@.@.@.@.@.@.1.R O f 6 3.6.6.6.6.6.6.6.6.6.6.6.6.&.6.&.6.6.6.6.6.6.6.6.&.1.1.6.6.&.&.6.&.&.&.@.@.@.@.@.&.%.%.O.O.",
"o.%.%.%.%.&.&.&.6.&.6.6.6.3.4 :.% O 6 $.6.6.6.1.t.6.6.6.7.6.7.7.5.7.7.7.7.7.5.7.6.6.6.3.N 3.1.1.6.6.6.6.5.6.6.&.&.%.&.%.%.%.%.%.",
"%.%.%.&.&.&.6.5.5.5.6.6.7.3.3 @ O @ :.6.6.7.7.M.M.7.6.6.7.7.7.7.7.7.7.7.7.7.6.6.7.6.1., + N , I 7.7.7.7.5.5.5.5.5.5.5.5.5.5.&.&.",
"&.&.&.5.8.8.5.5.8.8.6.6.7.;.h 4 O O 4 2.3.7.7.t.i.7.7.7.7.7.7.7.7.y.7.y.y.7.7.7.7.7.7.,     M 7.7.7.8.7.7.7.7.8.8.8.8.8.8.8.8.8.",
"8.8.8.8.9.8.8.9.9.9.9.y.3.,.>.f # 6 j 6 6 3.y.9.9.9.y.y.y.y.y.y.y.y.y.y.y.9.9.9.9.7.N ,   > R N :.7.7.9.7.9.9.9.9.9.9.9.9.9.9.8.",
"8.9.8.8.9.9.9.9.9.q.9.9.9.9.2.g # + 3.t.t.y.0.0.9.9.9.9.9.y.y.9.q.0.p.p.0.0.0.w.9.3.4 , #   + :.t.9.9.q.9.q.q.q.9.9.9.q.q.9.9.9.",
"q.q.q.q.q.q.w.w.w.w.w.w.w.0.>.6   O > t.p.w.w.w.0.0.0.0.9.9.9.q.p.p.p.p.p.p.w.w.0.N N @   o @ 0 u.w.w.w.w.w.w.w.w.w.w.w.q.Z.pXpX",
"w.q.w.p.w.w.p.p.p.p.p.w.w.i.g 6 O 0 6 4 w.w.d.p.p.w.w.0.0.0.w.w.w.d.p.d.d.w.d.d.p.:.@ $ o $ + :.3.d.p.w.w.w.w.w.p.p.p.w.Z.UXUXUX",
"e.e.e.e.e.d.d.d.d.d.d.d.d.i.>.6 # 3.N 0 u.e.r.e.d.d.d.d.w.w.w.w.w.w.w.d.d.d.d.d.u.h >.$ o $ 6 % 3.d.d.d.w.e.e.d.d.d.d.a.HXUXUXUX",
"e.r.r.e.r.f.f.f.f.f.f.r.r.2.2.Q > u.N i.d.f.f.f.f.f.f.d.d.w.d.d.w.w.p.w.d.d.d.d.u.:.6 $ % j 0 h 2.f.r.f.r.f.r.r.c.sXkXFXIXUXUXIX",
"r.r.r.r.r.r.r.r.r.r.r.r.r.u.s.i.R s.:.s.f.f.f.f.f.f.f.r.w.w.w.w.p.w.i.w.w.d.p.d.f.u.j f % >.>.u.s.f.f.f.f.c.S.A.eXHXIXHXIXIXHXFX",
"f.f.f.r.h.h.h.h.h.h.h.h.h.k.h.k.M.s.s.f.f.r.f.f.k.k.f.f.d.w.w.w.w.p.i.w.w.d.d.d.f.f.4.j h >.B.j.k.f.c.c.c.S.H.H.8XdXVXVXFXFXVXdX",
"k.f.k.h.h.k.h.h.h.h.h.h.k.h.k.k.M.s.k.k.k.k.h.k.k.k.k.r.<.:XN.Q 8 - ;Xp.d.d.d.d.r.r.h.:.i.M.c.c.c.A.C.C.S.S.H.H.8XaXaXaXsXsXaXaX",
"F.k.k.l.k.l.l.k.k.k.k.k.k.k.k.k.3.i.k.k.h.k.k.k.k.k.k.i.u -.-.. . a s N.w.d.d.f.r.r.f.2.k.c.c.c.c.c.Z.A.A.A.S.H.H.8XwXaXaXaXaXaX",
"zXD.l.x.l.x.x.x.x.k.k.k.k.k.k.k.u.B.z.k.k.k.k.z.z.x.z.~ 5 s a . X cX9X=.i.d.d.f.f.f.k.2.j.l.l.k.k.k.Z.j.k.l.A.S.S.D.F.H.wXwXH.H.",
"FXFX^.D.x.z.z.x.z.z.z.z.z.z.z.z.l.B.x.z.z.z.z.z.z.z.z.M.5 <X5 . s AXZX<X:Xp.d.f.f.f.s.2.4 :.3 4.z.z.z.z.z.z.z.z.z.z.z.z.z.z.z.x.",
"dXFXFXzXeXF.D.m.c.c.x.x.z.z.z.z.v.,.x.z.z.z.z.x.z.z.x.Q 8 a . X CXnX1XnX=.M.d.f.f.k.i.j.;.o f g x.z.z.z.z.z.z.z.z.z.z.z.z.z.z.z.",
"aXdXdXeXwXwXH.F.D.S.A.x.v.v.v.v.v.:.b.v.v.v.z.x.n.n.:.: : ; X =.nX,X3XnX3X*.u.f.k.k.:.j h % % :.v.v.v.v.v.v.v.v.v.v.v.v.v.v.v.v.",
"H.8XwXwXD.D.m.n.n.n.n.v.n.n.n.n.n.2.j.n.n.n.v.v.v.j.8 : X X 5 CX3X0X0X3X0X=.N.k.k.k.2.:.;.6 h >.b.v.n.n.n.n.n.n.n.n.n.n.n.n.n.D.",
"wXwXwXwX~.n.v.v.v.v.v.v.v.v.n.n.v.j.B.v.n.n.n.n.v.Q ; ; ; X >XSXnX1X,XnXAXCXa j.k.4.4.b.N >.4.;.4.v.v.v.v.v.n.n.v.n.n.v.v.b.W.zX",
"FXFXFXdXtXD.n.v.v.n.n.n.n.n.n.n.n.n.,.n.n.n.n.n.4.; : ; ; 5 ZXSX3X3XAXAXAXZX<X<.v.,.b.j.:.B.j.b.2.n.n.v.v.n.n.n.v.n.m.D.~.W.tXzX",
"HXHXIXIXFX^.D.m.m.n.n.n.n.n.n.n.n.n.,.b.n.n.n.b.8 ; ; : : <XSXSXSXSXCX1X1X1X3Xs V.,.m.m.B.D.m.m.m.m.m.m.m.D.D.F.W.tXFXFXzXFXFXFX",
"dXzXFXHXIXHXzXtXrX~.F.D.D.F.D.F.F.F.N.Z.F.F.W.~ X X X X y SXSXSXSXSX=.5 d d d d s V.~.~.V.~.~.~.~.~.~.~.~.~.^.kXHXIXHXHXFXFXdXdX",
"aXaXsXdXFXFXFXzXzXzXwX^.wXwXwXwXwXwX7X7XwXwXwX<.. . . . s ZXZXZXCXCXu . a 5 a <X;XtXtXeX7XtXtXtXtXtXtXtXwXwXFXIXUXHXFXVXdXdXdXdX",
"G.8XwXwXsXsXsXsXeXwX^.^.^.G.G.G.G.G.G.;XG.G.G.V.. X X X =.CXmX2X;X2Xq ; 9   u CXx qXeX:XeXeXeXeXwXwXwXwX^.^.iXpXpXiXeXeXeXwXwXwX",
"v v v b 1 v v v v b b b M b b v 1 < < 6 * * & & ; ; 5 : =.ZXmXxX:X>Xu q a . >XmXx f >.g 6 0 N N N N 3 < < < < < < < < 1 1 < 1 1 ",
"M M M v M M M M N N N N N N N b b b b 3 8 > + + 5 5 5 y y 5X0X9X>Xa u u ;X8 9XcXz l l f k g <.,.,.,.R N b b v v v 1 1 1 1 1 1 1 ",
"K.v.K.K.K.K.L.L.W.W.W.W.W.W.W.W.^.^.qX;X+   o o 5 y a 5 # k <X<Xs 5 5 5 ;X:XxXxX:Xz k g k z ;XiXtX(.!.Q.L.K.K.K.J.g.g.g.g.g.g.g.",
"K.K.L.I.Q.!./.rXtXzXDXGXPXJXJXNX6X4Xg # # o # $ 7 7 a a z z x x k 7 7 7 k l x x z x 4XMXNXBXLXLXLXUXFXgX(.!.Q.Q.Q.I.P.P.P.K.K.K.",
"L.!.(.rXpXvXmXmX6X5X6X6XcXbXcX5X6XbXcX2XxXbXNXNXNXBXBXLXLXLXLXLXBXNXNXNXNXNXNXNXKXKXLXLXLXLXLXLXKXKXKXJXKXJXDXiXtX(.(./.!.!.Q.Q.",
"iXqX5X6XbXbXbX6XxXbXmXmXBXmXmXbXbXbXbXbXmXBXBXBXBXKXKXKXKXLXLXKXKXAXmXnXmXmXJXJXJXmXcXxXcXmXmXmXmXcXxXxXxXvXvXvXvXpXiXtXrX(././.",
"iXvXcXbXcXcXcXcXcXcXbXbXmXmXbXbXcXvXxXxXxXxXcXcXcXcXcXmXmXmXmXnXnXxXxX2X2X2X5XxXvXvXvXDXJXJXPXGXDXiXiXiXgXgXtXtXtXtXtXrX(.(././.",
"(.(.rXgXgXkXkXkXkXkXlXlXlXzXzXzXzXkXkXlXzXzXlXgXpXzXPXPXDXDXDXDXDXDXzXpXpXiXDXGXlXkXgXkXkXkXfXjXfXfXfXfXfXfXfXrXrXrXrXrX(././.W.",
"(.(.(.rXrXrXfXfXfXfXfXfXfXfXfXjXjXjXjXjXjXjXjXhXkXlXlXlXlXlXkXjXjXjXjXfXfXhXhXhX-X&X&X-X&X&X&X&X#X#XfX#X#X#X#X(.#X(././.!.!.Q.Q.",
"'.'.@X@X@X#X#X#X#X@X@X#X#X#X#X#X#X#X#X#X#X&X&X&X&X&X&X&X-XhX-X&X&X-X&X&X-XhX-X-X%XXX}.XXXXXXXX`.].[.[.@X@X@X@X@X'.'.'.!.Q.Q.Q.Q.",
"Q.).'.'.'.'.@X@X@X@X@X@X@X@X@X@X@X@X[.[.[.[.[.].`.].}.}.+X=X*X+X=XhXhXjXjXhXjXhX+XXX}.{.R.T.T.T.T._._._.).`.`.`.'.'.'.).Q.I.I.P.",
"I.Y.Y.).`.'.'.[.[.[.[.oXXXXX].].].`._._.T.T.T.Y.U.U.U.T.R.{.{.|.*XhXhXjXjXjX-X=XXXoXXX}.{.T.T.R.R.T.T.T._._._._.T.T.T.Y.Y.U.I.P.",
"Y.U.Y.Y.Y.).).].].[.].].}.}.}.{.T.R.T.T.T.Y.Y.T.U.U.U.U.Y.Y.T.T.XX&X-XjXhXhX=X=X%X$XoX].].XXXX}.{.}.`._._.`.`.`.).).Y.Y.Y.Y.P.P.",
"L.L.L.I.I.I.).`.XXXX`.}.}.`._._._.{.R.{.T._._._.T.Y.U.T.T.T._.`.oX-X&XhX&X+X*X*X+X+XoXOXoXXX}._.).`.`.).).`.`.}._.T._.Y.I.I.I.P.",
"L.P.P.I.L.I._.}.}.XX].XXXXXXXX].oXXX}.}.XXXXXXoXXXXXXX`.`.`.[.[.+X&X-X-X$X%X.X*X*X=X+XoXoXXXXX`.)._.).).`.XXXX`.`.).`.`._.I.I.I.",
"I.Y.Y._.).{.}.}.`.}.XXXX}.XXXXXXoXXXXXoXXX+XoXOX+XXXXX].].oX%X[.[.$X-X=X=X=X$X+X*X%X&X&X-X&X%XXXXXoXXXXXXX}.`.`.`.XX_._.T.).Y.Y.",
"Y.Y.T._._.{.{.{.}.}.+X+XXXXXOXXX%X*X+X+X*X*X=X*X+XXXoX%X+XoXoX[.[.&X=X+X=X=X=X%X+X%X&X$X&X&XoXXXXXXXXXXX}.{._._.}.XX_._._.T.Y.Y.",
"T.T.T.T.T.{.{.{.{.}.OXOXOX+X+X*X*X*X=X=X*X=X-X*X=X%X$X*X*X*X+XoX*X+X*X%X=X=X=X=X%X%X=X=X+X%X%X*XOXXX{.}.}.{.{.{.|.{._.{.T._.T.Y.",
"Y.R.R.R.T.R.|.|.OX}. X XOX+X-X*X*X-X=X*X+X*X*X+X+X+X+X*X*X*X+XoX*X+X*X.XoX+X%X*XoX+X+X*X*XXXXXOXOX X}.}. X X X{.{.R.R.{.{.T.Y.T.",
"T.Y.R.|.|.|.|.|. X X X XOX+X*X-X-X=X-X=X=X+X+X+X+X+X*X*X*X*X*X%X=X=X+X=X*X*X+X+X*X*X+X*X+X}.OXOX XOX X X|.|.|.|.E.E.R.E.R.R.R.E.",
"U.E.R.|.|.|.{. X X XOX+X=X*X*X=X=X=X=X*X=X=X=X*X=X=X=X=X*X=X*X*X*X=X+X+X*X*X+X+X*X+XOXOXOX X X X X|.|.|.|.|.|.|.E.E.E.E.R.E.R.R.",
"U.E.E.E.{.{.{.|.|. XOXOX*X=X*X=X-X=X*X=X=X*X=X=X=X=X=X*X*X=X*X*X*X=X$X+X+X+XXXOX+X*X+X+X}. X X X X X|.|.{.|.R.R.E.E.E.E.E.E.E.R.",
"U.E.E.R.|.|.R.|. X X X XOX*X*X=X-X=X=X=X=X*X+X+X*X=X*X*X*X*X*X*X*X+X*X+X+X+X+X+X+X+XOX X|. X X|.|. X|.|.|.|.|.R.E.E.E.E.E.U.E.E."
};
