/* XPM */
static char *ea99dbf3cd3b4db0cafc74a5557d86f5f8epW9WqMmE6su6T[] = {
/* columns rows colors chars-per-pixel */
"64 64 101 2 ",
"   c #0A7E07",
".  c #0A7D06",
"X  c #067201",
"o  c #056F00",
"O  c #057001",
"+  c #097C06",
"@  c #067101",
"#  c #0A7B07",
"$  c #0C5B03",
"%  c #0D5302",
"&  c #0C5502",
"*  c #066B00",
"=  c #066C00",
"-  c #0C5702",
";  c #0D5803",
":  c #0A7906",
">  c #097D06",
",  c #0C5A03",
"<  c #0D5202",
"1  c #057101",
"2  c #0A7D07",
"3  c #0A7F07",
"4  c #067001",
"5  c #066D00",
"6  c #066E01",
"7  c #097906",
"8  c #0A7A06",
"9  c #057000",
"0  c #0A7806",
"q  c #0C5D03",
"w  c #0D5602",
"e  c #0C5802",
"r  c #076C01",
"t  c #067202",
"y  c #066A00",
"u  c #0B5802",
"i  c #0C5A02",
"p  c #0A7606",
"a  c #0B5F03",
"s  c #0C5E03",
"d  c #0A7705",
"f  c #0C5F03",
"g  c #0B7206",
"h  c #0B7706",
"j  c #0B7606",
"k  c #0A7706",
"l  c #097B06",
"z  c #097805",
"x  c #0D5A03",
"c  c #0A7605",
"v  c #0B5D02",
"b  c #0B5A02",
"n  c #076801",
"m  c #0C5C03",
"M  c #0B5C02",
"N  c #097605",
"B  c #0D5702",
"V  c #0A7A07",
"C  c #0D5903",
"Z  c #0C5602",
"A  c #0D5703",
"S  c #0B7506",
"D  c #0A7506",
"F  c #0A7C06",
"G  c #0C5B02",
"H  c #0C5902",
"J  c #0B7406",
"K  c #076E01",
"L  c #0A7505",
"P  c #0D5402",
"I  c #066F01",
"U  c #0B5D03",
"Y  c #076D01",
"T  c #067302",
"R  c #0B5902",
"E  c #066D01",
"W  c #097A05",
"Q  c #097A06",
"!  c #066C01",
"~  c #097905",
"^  c #0B5B01",
"/  c #056E00",
"(  c #0B5B02",
")  c #076800",
"_  c #076900",
"`  c #076F01",
"'  c #097806",
"]  c #0C6003",
"[  c #0B7205",
"{  c #0B5E02",
"}  c #097B05",
"|  c #0A7B06",
" . c #0B7306",
".. c #076B01",
"X. c #0A7405",
"o. c #077202",
"O. c #076901",
"+. c #076A00",
"@. c #0C5C02",
"#. c #076E02",
"$. c white",
/* pixels */
"      . X o o O +     + @ o o @ +     # $ % % & * o o @ +             . X o o o o o o = - % % ; :     . X o o o o o o o o o o o ",
"      . X o o O +     + @ o o @ +     # $ % % & * o o @ +             . X o o o o o o = - % % ; :     . X o o o o o o o o o o o ",
"      . X o o O +     > @ o o @ +     # , < % & * o o 1 +             2 X o o o o o o = - % % ; : 3   2 X o o o o o o o o o o o ",
"      . 4 5 5 6 7 # # 8 X 9 9 @ 8 # # 0 q w w e r 9 9 @ : # # # # # # 8 t 9 O 9 5 5 5 y u & & i p # # 8 t 9 O 9 5 5 5 5 9 O O O ",
"      # a e e e , $ , s d + + d f , , q g h j k l l + z f x $ $ $ $ , q c + + z v e e b n y y n m x , q c + + z v e e M N + l l ",
"      # x < % % % % < B 0 3 3 : ; < < w h 3           V C < % % % % < w j 3   V C < < Z * 9 9 = Z < < w j 3   V C < < A 0 3     ",
"      # x < % % % % < B 0 3 3 : ; % % w j 3         3 V C < % % % % % w j 3   V x < % Z * o o = Z % % w h 3   V x % % A 0       ",
"      # q & & Z B B B , S # # j ; % % w D . . F # V V p G & & & & & & e p . . : q w B H = o o = i B B C J # V h C % % B k . . . ",
"      2 K y * r L h k J s C x C P % % & r X @ I U C x $ n * * * * * * * 4 @ @ t c h h p 4 o o 4 c h k S f C x C P % % Z Y X @ @ ",
"      . X o o 1 + 3 3 V C < % % % % % & y o o = - < < Z * 9 o o o o o o o o o O + 3 3 > @ o o @ > 3 3 # , < % % % % % Z * o o o ",
"      2 X o o O +     8 C < % % % % % & y o o = - % % Z * o o o o o o o o o o O +     . @ o o @ +     # , < % % % % % Z * o o o ",
"+ + . + T O O X +     8 $ Z Z Z Z Z Z e r 1 1 6 b Z Z R E 1 @ O o o o o 5 = = 6 W . . l 6 = = 6 Q . > 8 s B A B Z Z Z u = o o o ",
"@ @ @ X W + + +       F K * * * * * * ! ~ + + Q K * * E W + + W @ o o 5 ^ - - R Y @ @ 6 b - - b 6 @ @ X d 0 0 k Y * * = / o o o ",
"o o o 9 l             + @ o o o o o o O +     . X o o 1 +     + @ o o 5 e < % & y o o = - < % Z * o o 9 + 3   . X o o o o o o o ",
"o o o O l             + @ o o o o o o 9 l     . @ o o @ +     + @ o o 5 e < % & * 9 o = - % % Z = o o O l     . @ o o o o o o o ",
"o o o 9 W + + +       . T @ @ @ @ @ @ X W + + l @ o o O W + + l X @ @ I ( Z Z e ) = = _ Z % % Z _ = = E ~ + + l T @ @ @ @ @ @ @ ",
"o o o o O @ @ X +       + + + + + + + l T @ @ @ o o o o @ @ @ X l + + l ` * = y b Z Z Z % % % % Z Z Z e r @ @ X W + + + + + + + ",
"o o o o o o o O +                     2 X o o o o o o o o o o @ +     2 X o o 5 - < % % % % % % % % % & y o o O +               ",
"o o o o o o o O +                     2 X o o o o o o o o o o @ +     2 X o o 5 - % % % % % % % % % % & y o o O +               ",
"5 5 5 5 9 O 9 @ 7 # # # 2 . . 2 # # # 8 I 5 5 5 o o o o 9 O 9 @ 8 # # 8 I 5 5 * i w w w w w w w w w w e * o o O 7 # # #         ",
"e e e ( L + + ' ] x x q K X X ` q x $ , e e e b * o o O W l + d f , $ , e e e ( [ h j j j j j j j j j p 4 o o 5 { x , s :       ",
"% % < w h 3   V C < < & * o o * Z < % % % % % & * o o @ +   3 : ; < % % % % < B 0 3                 3 2 X o o = - < < B 0       ",
"% % % w h 3   V x % % Z * o o = Z % % % % % % & * o o O +     : ; % % % % % % B k                     2 X o o 5 - < < B 0       ",
"B B B C J # V h C % % Z * o o = i B B B Z & & e r 1 O X l . . 0 i & & & & & & H 0       . . . F # V V : @ o o 5 G B B $ k . . . ",
"k k k S f C x C P % % Z * o o 4 c h k p Y y * r ~ + + } T @ @ @ * * * * * * * r l     . T @ X ` q x x $ * o o O c h h k t @ @ @ ",
"    3 # , < % % % % % Z * o o @ > 3 3 2 X o o 1 +     . @ o o o o o o o o o o 1 +     + @ o o * Z < < & y o o O + 3 3 > @ o o o ",
"      # x < % % % % % Z * o o @ +     2 X o o O +     > @ o o o o o o o o o o O +     . @ o o = Z < % & y o o O +     . @ o o o ",
"      # q & Z Z B A A i Y 1 O X l . . l @ o o O z V V : t O @ O o o o o O @ O X } . . l @ o o = i A A H r 1 O X } . . l X O @ @ ",
"      2 K * * ! c 0 0 0 l + + } t @ @ @ o o o 5 M C C q k + + W @ o o 9 W + + l T @ @ @ o o o 4 k 0 0 0 | + + l T @ @ X W + + + ",
"      . X o o 1 + 3           + @ o o o o o o 5 - < < B 0 3   + @ o o O l     . @ o o o o o o @ > 3           . @ o o O +       ",
"      2 X o o O +             + @ o o o o o o 5 - % % A 0 3   + @ o o 9 l     . X o o o o o o @ +             . @ o o O +       ",
"+ + + l T @ @ X +       + + + l X @ @ 4 5 = = _ - % % B J : : 0 t @ @ X W + + l 6 * = = o o o 4 0 : : : : : : 0 t @ @ X } + + + ",
"@ @ @ X W + + +       . T @ @ X l + + : q Z Z Z P % % P A ; ; m 0 + + l T @ @ 6 b Z Z R = o o = G ; ; ; ; ; ; $ k > + l t @ @ @ ",
"o o o 9 l             + @ o o @ +     # x < % % % % % % % % < ; :     2 X o o = - < % Z * o o = Z < % % % % < w h 3   . @ o o o ",
"o o o 9 +             > @ o o @ +     # , < % % % % % % % % < ; : 3   2 X o o = - % % Z * o o = Z % % % % % % B k     + @ o o o ",
"O O 9 @ 7 # # # # # # 8 @ o o @ l 2 2 8 q w w w w w w w w w w $ j # # 8 t 9 O 6 R & & e ! O O E e & & & w w w x 0     . X 9 O O ",
"l l + 7 ] x $ $ $ $ x q = o o o @ X X t c j j j j j j j j j h  .s , , q c + l W Y y y r ~ + l ~ r y y ..X.h j k 2       + l l l ",
"      # x < % % % % < & * o o o o o o 9 + 3                 3 : ; < < w j 3   . X o o 1 +     + @ o o 9 + 3                     ",
"      # x < % % % % % Z * o o o o o o O l                     : ; < % w j 3   . @ o o O +     + @ o o 9 +                       ",
"      # q & & & & & & e E 1 O O 5 5 = 6 W . . .         . . . 0 $ w B x p . . + t O O X l . . l X O O @ ' V V V F . . F # V V V ",
"      2 K y * * * * * r ~ + + d M - - R Y X @ t +     . T @ @ t k h k k o.@ @ t W + + } T @ @ T W + + 7 ] C x m K X X I q x x x ",
"      . X o o o o o o 1 +     : ; < % & y o o O +     + @ o o @ > 3 3 2 X o o O +     . @ o o @ +     # x < < & y o o = Z < % % ",
"      2 X o o o o o o @ +     : ; < % & y o o O +     . @ o o @ +     2 X o o O +     > @ o o @ +     # , < % & * o o = - < % % ",
"+ + . + T O @ O o o o @ +     : G Z Z e r 1 O X } . . l @ o o @ l . . + T O O @ 0 V V 0 4 o o @ l . > 8 s B A H O.= = +.i A A A ",
"@ @ @ X W + + l @ o o @ +     F Y * * ! ~ + + l T @ @ @ o o o o @ @ @ X W + + : s C C G = o o o @ @ @ X d 0 0 S @.- - i J 0 0 0 ",
"o o o 9 l     . @ o o @ +     + @ o o O +     . @ o o o o o o o o o o 9 l     V C < < Z * o o o o o o 9 + 3 3 # x < < A 0 3     ",
"o o o 9 l     . @ o o O +     + @ o o 9 + 3   . @ o o o o o o o o o o 9 + 3 3 # x < % Z * o o o o o o 9 l     V C < < B 0 3     ",
"@ @ @ X W + + l T @ @ X } + + l X @ @ @ d : : 0 t @ @ @ o o o o @ @ @ @ d : : j @.Z Z R _ = = = 4 @ @ X +     # s ; ; m k > + + ",
"+ + + l T @ @ X W + + l t @ @ X l + + 8 f ; ; $ k > + l @ o o @ } + + 8 f ; ; i O.= = _ R Z Z G 0 + + +         8 : : 0 t @ @ @ ",
"      2 X o o O +     . @ o o @ +     # , < < w h 3   . @ o o @ +     # , < % & * 9 o = - % < ; :                     > @ o o o ",
"      2 X o o O +     > @ o o @ +     # , < % B k     + @ o o @ +     # $ % % & * o o = - % < ; : 3                   + @ o o o ",
". . 2 + t 9 9 @ 7 # # : I 5 5 I : # # 0 q w w x 0     . X 9 9 X l 2 2 8 , % % & _ 5 5 * H w w $ j # # # 2 . . 2       . X 9 O O ",
"X X X t W l + ' ] x $ , e e e e , $ , q g h j k 2       + l l W T X X I e % % % - e e ( g h h  .s , x m #.X X T +       + l l l ",
"o o o 9 l     V C < % % % % % % % % < w h 3                   + @ o o 5 e % % % % % < A 0 3 3 : ; < < & y o o O +               ",
"o o o 9 +     V x < % % % % % % % % % w j 3                   + @ o o 5 e % % % % % < B 0     : ; % % & y o o O +               ",
"O O O @ ' V V k $ & & & % % % % w B B x p . . . . . . F # V V : 4 o o 5 b & & Z B B B $ k . . 0 i & & - y o o O ' V V V F . . . ",
"+ + + 7 ] C x $ n * * ) Z % % A  .0 k k o.@ @ @ @ @ X I q x x @.= o o o * * * r L h h k t @ @ @ * * * * / o o 5 v x x m K X @ @ ",
"      # x < < & * 9 o = - % % ; : 3 3 2 X o o o o o o = Z < < Z = o o o o o o 1 + 3 3 > @ o o o o o o o o o o = - < < & * o o o ",
"      # x < % & * o o = - % < ; :     2 X o o o o o o = - < < Z = o o o o o o O +     . @ o o o o o o o o o o 5 - % % Z * o o o ",
"+ + > 8 q & Z e r 1 1 6 b Z Z G 0 > . l I = = = = = = +.i A A i = o o o O @ O X } . . l 6 = = 5 4 @ @ O o o o 5 b Z Z R E 1 @ @ ",
"@ @ @ @ = * * E ~ + + W Y * * = 4 @ @ I ( - - - - - - i J 0 0 k 4 o o 9 W + + l T @ @ 6 b - - G k + + l @ o o o = * * E W + + + ",
"o o o o o o o 1 +     . @ o o o o o o 5 e < % % % % < A 0 3 3 > @ o o O l     . @ o o = - < < ; :     2 X o o o o o o 1 +       ",
"o o o o o o o O +     + @ o o o o o o 5 e % % % % % % A 0     + @ o o O l     . @ o o = - % % ; :     . X o o o o o o @ +       ",
"o o o o o o o O +     + @ o o o o o o 5 e % % % % % % A 0     + @ o o O l     . @ o o = - % % ; :     . X o o o o o o @ +       "
};
