/* XPM */
static char *_7022af95cdd41b1efb6dc498995e46aQS6YgwYGwSVsCA9O[] = {
/* columns rows colors chars-per-pixel */
"64 64 223 2 ",
"   c #010102",
".  c #090708",
"X  c #0C0B0A",
"o  c #130E0D",
"O  c #141312",
"+  c #1C1613",
"@  c #231815",
"#  c #2C1C15",
"$  c #2C1C1A",
"%  c #30151A",
"&  c #2B251E",
"*  c #1F2C3B",
"=  c #2D2522",
"-  c #262628",
";  c #332D24",
":  c #353226",
">  c #3B3729",
",  c #3B253B",
"<  c #461A1C",
"1  c #511E18",
"2  c #4D3117",
"3  c #523418",
"4  c #733619",
"5  c #401E33",
"6  c #6B1F31",
"7  c #493B2B",
"8  c #5B2533",
"9  c #533632",
"0  c #692B2F",
"q  c #5D432F",
"w  c #4A4533",
"e  c #524C34",
"r  c #564E39",
"t  c #5B543B",
"y  c #774929",
"u  c #7B5027",
"i  c #69493B",
"p  c #794D37",
"a  c #66573A",
"s  c #645A38",
"d  c #765C38",
"f  c #72663D",
"g  c #152A50",
"h  c #162A5D",
"j  c #37264D",
"k  c #2C3449",
"l  c #383D45",
"z  c #2C3850",
"x  c #323F5D",
"c  c #172C62",
"v  c #14316E",
"b  c #28396B",
"n  c #32386D",
"m  c #49324D",
"M  c #553944",
"N  c #6B2B55",
"B  c #503766",
"V  c #3E4944",
"C  c #28437C",
"Z  c #4B4D49",
"A  c #5A4344",
"S  c #595A45",
"D  c #454754",
"F  c #634943",
"G  c #655846",
"H  c #775B49",
"J  c #7B4757",
"K  c #745352",
"L  c #6D6943",
"P  c #6E6648",
"I  c #756846",
"U  c #797448",
"Y  c #7D734E",
"T  c #796756",
"R  c #7B6C53",
"E  c #7B7353",
"W  c #797652",
"Q  c #41486A",
"!  c #5A5B7C",
"~  c #725661",
"^  c #736B75",
"/  c #8A2A13",
"(  c #A22C1A",
")  c #8D3E29",
"_  c #964F19",
"`  c #9D5419",
"'  c #A5520E",
"]  c #B9570E",
"[  c #A74B19",
"{  c #B74915",
"}  c #A9561B",
"|  c #B85A14",
" . c #9D661D",
".. c #BA7319",
"X. c #974F28",
"o. c #B24D22",
"O. c #A55623",
"+. c #8F6428",
"@. c #AA702E",
"#. c #C3460F",
"$. c #CC5D0E",
"%. c #D25E0D",
"&. c #C75413",
"*. c #D76307",
"=. c #D6630A",
"-. c #DA650C",
";. c #DA6A0C",
":. c #DE740D",
">. c #D06412",
",. c #D86E14",
"<. c #CE741A",
"1. c #DB7215",
"2. c #E57D0F",
"3. c #E57C12",
"4. c #C36936",
"5. c #875B46",
"6. c #995C45",
"7. c #A15641",
"8. c #8A644E",
"9. c #867A4A",
"0. c #976D58",
"q. c #877957",
"w. c #8A7F54",
"e. c #AE7A59",
"r. c #8A7266",
"t. c #94796C",
"y. c #A57B69",
"u. c #B7822B",
"i. c #DE921F",
"p. c #E78612",
"a. c #EB8511",
"s. c #F18D12",
"d. c #F49715",
"f. c #FB9E12",
"g. c #FCA00E",
"h. c #FCA012",
"j. c #C18125",
"k. c #E49424",
"l. c #968D4E",
"z. c #89835A",
"x. c #948B54",
"c. c #968957",
"v. c #9C945E",
"b. c #BE845C",
"n. c #9C9665",
"m. c #8C9077",
"M. c #9C9B78",
"N. c #A88266",
"B. c #B58A6B",
"V. c #A49B65",
"C. c #A39B69",
"Z. c #A58575",
"A. c #B38F79",
"S. c #B9997E",
"D. c #B5A966",
"F. c #B4A969",
"G. c #BDB26B",
"H. c #BBB579",
"J. c #C3805D",
"K. c #CA8C64",
"L. c #CE9269",
"P. c #D19269",
"I. c #D39870",
"U. c #CBBD6E",
"Y. c #C8BA76",
"T. c #D1BF76",
"R. c #E3A67C",
"E. c #CFC176",
"W. c #D2C674",
"Q. c #D2C479",
"!. c #D6CA7B",
"~. c #DACC78",
"^. c #E4D47B",
"/. c #E9D77D",
"(. c #EBD97D",
"). c #F0DD7F",
"_. c #F5E37E",
"`. c #FAE67F",
"'. c #173B87",
"]. c #1A418C",
"[. c #1C4696",
"{. c #214984",
"}. c #354D85",
"|. c #264895",
" X c #1E4DA8",
".X c #234EA9",
"XX c #647192",
"oX c #6D7AA4",
"OX c #7079A3",
"+X c #9B7E81",
"@X c #7887AF",
"#X c #978E8F",
"$X c #8C889B",
"%X c #AB908F",
"&X c #9398B3",
"*X c #B8ADAA",
"=X c #C19E8B",
"-X c #DBAA83",
";X c #DBAD8B",
":X c #DBB08F",
">X c #E7AA81",
",X c #E5B38D",
"<X c #E7BA93",
"1X c #D6BCAB",
"2X c #E6D784",
"3X c #ECDC83",
"4X c #F1DF85",
"5X c #F5E282",
"6X c #FAE681",
"7X c #FAE885",
"8X c #F1E18E",
"9X c #FAE78D",
"0X c #F7E88B",
"qX c #F9E98A",
"wX c #F5E591",
"eX c #F3C8A5",
"rX c #F3CAA4",
"tX c #FAD3AE",
"yX c #EBCAB0",
"uX c #FAD4B3",
"iX c #99A9CD",
"pX c #A9B1D2",
"aX c #C0C5DD",
/* pixels */
"w.6X6X6X6X6X6X6X6X6X6X6X6X6X6X6X6X6X6X6X6X6X6X6X6X6X6X6X6X6X6X6X6X6X6X6X6X6X6X6X6X6X6X6X6X6X6X6X6X6X6X6X6X6X6X6X6X6X6X6X6X6X6X6X",
"6X6X6X6X6X6X6X6X6X6X6X6X6X6X6X6X6X6X6X6X6X6X6X6X6X6X6X6X6X6X6X6X6X6X6X6X6X6X6X6X6X6X6X6X6X6X6X6X6X6X6X6X6X6X6X6X6X6X6X6X6X6X6X6X",
"6X6X6X6X6X6X6X6X6X6X6X6X6X6X6X6X6X6X6X6X6X6X6X6X6X6X6X6X6X6X6X6X6X6X6X6X6X6X6X6X6X6X6X6X6X6X6X6X6X6X6X6X6X6X6X6X6X6X6X6X6X6X6X6X",
"6X6X6X6X6X6X6X6X6X6X6X6X6X6X6X6X6X6X6X6X6X6X6X6X6X6X6X6X6X6X6X6X6X6X6X6X6X6X6X6X6X6X6X6X6X6X6X6X6X6X6X6X6X6X6X6X6X6X6X6X6X6X6X6X",
"6X6X6X6X6X6X6X6X6X6X6X6X6X6X6X6X6X6X6X6X6X6X6X6X6X6X6X6X6X6X6X6X6X6X6X6X6X6X6X6X6X6X6X6X6X6X6X6X6X6X6X6X6X6X6X6X6X6X6X6X6X6X6X6X",
"6X6X6X6X6X6X6X6X6X6X6X6X6X6X6X6X6X6X6X6X6X6X6X6X6X6X6X6X6X6X6X6X6X6X6X6X6X6X6X6X6X6X6X6X6X6X6X6X6X6X6X6X6X6X6X6X6X6X6X6X6X6X6X6X",
"6X6X6X6X6X6X6X6X6X6X6X6X6X6X6X6X6X6X6X6X6X6X6X6X6X6X6X6X6X6X6X6X6X6X6X6X6X6X6X6X6X6X6X6X6X6X6X6X6X6X6X6X6X6X6X6X6X6X6X6X6X6X6X6X",
"6X6X6X6X6X6X6X6X6X6X6X6X6X6X6X6X6X6X6X6X6X6X6X6X6X6X6X6X6X6X6X6X6X6X6X6X6X6X6X6X6X6X6X6X6X6X6X6X6X6X6X6X6X6X6X6X6X6X6X6X6X6X6X6X",
"6X6X6X6X6X6X6X6X6X6X6X6X6X6X6X6X6X6X6X6X6X6X6X6X6X6X6X6X6X6X6X6X6X6X6X6X6X6X6X6X6X6X6X6X6X6X6X6X6X6X6X6X6X6X6X6X6X6X6X6X6X6X6X6X",
"6X6X6X6X6X6X6X6X6X6X6X6X6X6X6X6X6X6X6X6X6X6X6X6X6X6X6X6X6X6X6X6X6X6X6X6X6X6X6X6X6X6X6X6X6X6X6X6X6X6X6X6X6X6X6X6X6X6X6X6X6X6X6X6X",
"6X6X6X6X6X6X6X6X6X6X6X6X6X6X6X6X6X6X6X6X6X6X6X6X6X6X6X6X6X6X6X6X6X6X6X6X6X6X6X6X6X6X6X6X6X6X6X6X6X6X6X6X6X6X6X6X6X6X6X6X6X6X6X6X",
"6X6X6X6X6X6X6X6X6X6X6X6X6X6X6X6X6X6X6X6X6X6X6X6X6X6X6X6X6X6X6X6X6X6X6X6X6X6X6X6X6X6X6X6X6X6X6X6X6X6X6X6X6X6X6X6X6X6X6X6X6X6X6X6X",
"6X6X6X6X6X6X6X6X6X6X6X6X6X6X6X6X6X6X6X6X6X6X6X6X6X6X6X6X6X6X6X6X6X6X6X6X6X6X6X6X6X6X6X6X6X6X6X6X6X6X6X6X6X6X6X6X6X6X6X6X6X6X6X6X",
"6X6X6X6X6X6X6X6X6X6X6X6X6X6X6X6X6X6X6X6X6X6X6X6X6X6X6X6X6X6X6X6X6X6X6X6X6X6X6X6X6X6X6X6X6X6X6X6X6X6X6X6X6X6X6X6X6X6X6X6X6X6X6X6X",
"6X6X6X6X6X6X6X6X6X6X6X6X6X6X6X6X6X6X6X6X6X6X6X6X6X6X6X6X6X6X6X6X6X6X6X6X6X6X6X6X6X6X6X6X6X6X6X6X6X6X6X6X6X6X6X6X6X6X6X6X6X6X6X6X",
"6X6X6X6X6X6X6X6X6X6X6X6X6X6X6X6X6X6X6X6X6X6X6X6X6X6X6X6X6X6X6X6X6X6X6X6X6X6X6X6X6X6X6X6X6X6X6X6X6X6X6X6X6X6X6X6X6X6X6X6X6X6X6X6X",
"6X6X6X6X6X6X6X6X6X6X6X6X6X6X6X6X6X6X6X6X6X6X6X6X6X6X6X6X6X6X6X6X6X6X6X6X6X6X6X6X6X6X6X6X6X6X6X6X6X6X6X6X6X6X6X6X6X6X6X6X6X6X6X6X",
"6X6X6X6X6X6X6X6X6X6X6X6X6X6X6X6X6X6X6X6X6X6X6X6X6X6X6X6X6X6X6X6X6X6X6X6XqX9XqX6X6X6X6X6X6X6X6X6X6X6X6X6X6X6X6X6X6X6X6X6X6X6X6X6X",
"6X6X6X6X6X6X6X6X6X6X6X6X6X6X6X6X6X6X6X6X6X6X6X6X6X6X6X6X6X6X6X6X6X6X^.D.+ X Y 6X`.6X6X6X6X6X6X6X6X6X6X6X6X6X6X6X6X6X6X6X6X6X6X6X",
"6X6X6X6X6X6X6X6X6X6X6X6X6X6X6X6X6X6X6X6X6X6X6X6X6X6X6X6X6X6X6X6X6XqXr     t 4X6X6X6X6X6X6X6X6X6X6X6X6X6X6X6X6X6X6X6X6X6X6X6X6X6X",
"6X6X6X6X6X6X6X6X6X6X6X6X6X6X6X6X6X6X6X6X6X6X6X6X6X6X6X6X6X6X6X6X^.e     O D.6X6X6X6X6X6X6X6X6X6X6X6X6X6X6X6X6X6X6X6X6X6X6X6X6X6X",
"6X6X6X6X6X6X6X6X6X6X6X6X6X6X6X6X6X6X6X6X6X6X6X6X6X6X6X6X6X6X6X6Xe       7 qXQ.s s s 9.6X6X6X6X6X6X6X6X6X6X6X6X6X6X6X6X6X6X6X6X6X",
"6X6X6X6X6X6X6X6X6X6X6X6X6X6X6X6X6X6X6X6X6X6X6X6X6X6X6X6X6X6XD.D.X       ; r X   O w 2X6X6X6X6X6X6X6X6X6X6X6X6X6X6X6X6X6X6X6X6X6X",
"6X6X6X6X6X6X6X6X6X6X6X6X6X6X6X6X6X6X6X6X6X6X6X6X6X6X6X`.Q.G .                   V.`.7X6X6X6X6X6X6X6X6X6X6X6X6X6X6X6X6X6X6X6X6X6X",
"6X6X6X6X6X6X6X6X6X6X6X6X6X6X6X6X6X6X6X6X6X6X6X6X6X6X`.Q.O                   o V.6X6X6X6X6X6X6X6X6X6X6X6X6X6X6X6X6X6X6X6X6X6X6X6X",
"6X6X6X6X6X6X6X6X6X6X6X6X6X6X6X6X6X6X6X6X6X6X6X6X6X6XT.=                     + s w.qX6X6X`.6X6X6X6X6X6X6X6X6X6X6X6X6X6X6X6X6X6X6X",
"6X6X6X6X6X6X6X6X6X6X6X6X6X6X6X6X6X6X6X6X6X`.6X`.^.D.9.            +             . o V.~.6X6X6X6X6X6X6X6X6X6X6X6X6X6X6X6X6X6X6X6X",
"6X6X6X6X6X6X6X6X6X6X6X6X6X6X6X6X6X6X6X6X6X7X7Xn.w           @ $   H o                 > 3X6X6X6X6X6X6X6X6X6X6X6X6X6X6X6X6X6X6X6X",
"6X6X6X6X6X6X6X6X6X6X6X6X6X6X6X6X6X6X6X6XD.e o .             = 8.. t.Z.. i     = P 3X(.3X6X6X6X6X6X6X6X6X6X6X6X6X6X6X6X6X6X6X6X6X",
"6X6X6X6X6X6X6X6X6X6X6X6X6X6X6X6X6X6X6X7Xl.x.l.>             + $   q.:X$ &   & Q.7X`.6X6X`.6X6X6X6X6X6X6X6X6X6X6X6X6X6X6X6X6X6X6X",
"6X6X6X6X6X6X6X6X6X6X6X6X6X6X6X6X6X6X6X6X6X6X6XY.E       =   = ^ $X$ ;X1XO   . > w.W.U.6X6X6X6X6X6X6X6X6X6X6X6X6X6X6X6X6X6X6X6X6X",
"6X6X6X6X6X6X6X6X6X6X6X6X6X6X6X6X6X6X6X6X6X7XP =         0.# B.*X*X8.tXyXH . w.E.W.R t.G.6X6X6X6X6X6X6X6X6X6X6X6X6X6X6X6X6X6X6X6X",
"6X6X6X6X6X6X6X6X6X6X6X6X6X6X6X6X6X6X6X6X6X7X(././.Y.X   y.L.>XeXeXuXuX-XN.9.7X6XG.; 0.Y 5X6X6X6X6X6X6X6X6X6X6X6X6X6X6X6X6X6X6X6X",
"6X6X6X6X6X6X6X6X6X6X6X6X6X6X6X6X6X6X6X6X6X6X6X7XL &     + i K.eX,X<XuXeXR E.6X0X9.e.,XG ^.6X6X6X6X6X6X6X6X6X6X6X6X6X6X6X6X6X6X6X",
"6X6X6X6X6X6X6X6X6X6X6X6X6X6X6X6X6X6X6X6X6X6X6X6X!.Z h k 0 @ e.K.<X<XS.i # U U.U e.K.I.G ^.6X6X6X6X6X6X6X6X6X6X6X6X6X6X6X6X6X6X6X",
"6X6X6X6X6X6X6X6X6X6X6X6X6X6X6X6X6X6X6X6X6X6X6X`.F.g x <.@.K e.J.P.r.+.} B v k z.H L.tXG ^.6X6X6X6X6X6X6X6X6X6X6X6X6X6X6X6X6X6X6X",
"6X6X6X6X6X6X6X6X6X6X6X6X6X6X6X6X6X6X6X6X6X6X6X6Xx.g Z f.u.h +X%X#Xc k.d  X$XA.z.* ^ #Xz.6X6X6X6X6X6X6X6X6X6X6X6X6X6X6X6X6X6X6X6X",
"6X6X6X6X6X6X6X6X6X6X6X6X6X6X6X6X6X6X6X6X6X7X7XV.5.Z.A 2.i.D ]..X'.G d.F }.=XtXN.~ {.{.x.`.6X6X6X6X6X6X6X6X6X6X6X6X6X6X6X6X6X6X6X",
"6X6X6X6X6X6X6X6X6X6X6X6X6X6X6X6X6X6X6X6X/.Y 7 z A.R.7.#.-.p v '.|.X.=.A Q R.,XP.,XyXS 5X6X6X6X6X6X6X6X6X6X6X6X6X6X6X6X6X6X6X6X6X",
"6X6X6X6X6X6X6X6X6X6X6X6X6X6X6X6X6X6X6X7XE e.K.y.b 0.3 / ;.p.I [.6.*.=.) - 8.I.P.eXeXt 6X6X6X6X6X6X6X6X6X6X6X6X6X6X6X6X6X6X6X6X6X",
"6X6X6X6X6X6X6X6X6X6X6X6X6X6X6X6X6X6X6X7XP 1X;Xb.K l W < &.p.d.k.=.=.&.< Q.x.B.R.eXT !.6X6X6X6X6X6X6X6X6X6X6X6X6X6X6X6X6X6X6X6X6X",
"6X6X6X6X6X6X6X6X6X6X6X6X6X6X6X6X6X6X6X6X~.E ;X<Xa E # j 0 >.3.,.>.{ M 5 x.7Xz.a a 9.3X6X6X6X6X6X6X6X6X6X6X6X6X6X6X6X6X6X6X6X6X6X",
"6X6X6X6X6X6X6X6X6X6X6X6X6X6X6X6X6X6X6X`.6X3Xs : z._ &.[ m n C b b b M ( [ 3 F.Y.^.3X6X6X6X6X6X6X6X6X6X6X6X6X6X6X6X6X6X6X6X6X6X6X",
"6X6X6X6X6X6X6X6X6X6X6X6X6X6X6X6X6X6X6X6X6X6XW.u ` a.3.=.$.X.A j c M >.a.a.p. .f x.7X7X6X6X6X6X6X6X6X6X6X6X6X6X6X6X6X6X6X6X6X6X6X",
"6X6X6X6X6X6X6X6X6X6X6X6X6X6X6X6X6X6X6X6X6X!.y p.f.f.f.a.%.&.5.N n ~ >.d.h.h.h.d.j.x._.6X6X6X6X6X6X6X6X6X6X6X6X6X6X6X6X6X6X6X6X6X",
"6X6X6X6X6X6X6X6X6X6X6X6X6X6X6X6X6X6X6X`.Q.u 1.g.h.h.g.h.%.( |.j , .Xo.:.a.f.h.h.h...x.6X6X6X6X6X6X6X6X6X6X6X6X6X6X6X6X6X6X6X6X6X",
"6X6X6X6X6X6X6X6X6X6X6X6X6X6X6X6X6X6X6X6Xx.' :.f.h.h.g.d.$.y |.m.V ].O.*.=.;.:.s.g.h.` v.`.6X6X6X6X6X6X6X6X6X6X6X6X6X6X6X6X6X6X6X",
"6X6X6X6X6X6X6X6X6X6X6X6X6X6X6X6X6X6X6X7X2 a.2.a.f.f.d.;.2 v.C M.H.v R [ =.=.2.2.f.s.' x.6X6X6X6X6X6X6X6X6X6X6X6X6X6X6X6X6X6X6X6X",
"6X6X6X6X6X6X6X6X6X6X6X6X6X6X6X6X6X6X6X7X2 =.s.:.;.;.-.| w 4Xg M.H.g G.y =.=.=.=.-.;...x.6X6X6X6X6X6X6X6X6X6X6X6X6X6X6X6X6X6X6X6X",
"6X6X6X6X6X6X6X6X6X6X6X6X6X6X6X6X6X6X6X7X9.' 3.3.*.=.] # V.7XW n.H.S 4XL 4 =.=.=.=.1.u U.6X6X6X6X6X6X6X6X6X6X6X6X6X6X6X6X6X6X6X6X",
"6X6X6X6X6X6X6X6X6X6X6X6X6X6X6X6X6X6X6X6XD.1 4.} =.] 4 n.6X6X_.).5X3X6X3Xq { $.O.6.8 I 6X`.6X6X6X6X6X6X6X6X6X6X6X6X6X6X6X6X6X6X6X",
"6X6X6X6X6X6X6X6X6X6X6X6X6X6X6X6X6X6X6X6XF.7 t.'.F = C.`.`.`.`.6X6X6X6X6X~.d 9 v ! y x.6X6X6X6X6X6X6X6X6X6X6X6X6X6X6X6X6X6X6X6X6X",
"6X6X6X6X6X6X6X6X6X6X6X6X6X6X6X6X6X6X6X!.z &X! 6.6 % 3X7X6X6X6X6X6X6X6X6X6XL 8 6 J &XC q._.6X6X6X6X6X6X6X6X6X6X6X6X6X6X6X6X6X6X6X",
"6X6X6X6X6X6X6X6X6X6X6X6X6X6X6X6X6X6X6Xs @XaXiXiXOXk 3X6X6X6X6X6X6X6X6X6X6XL XXoXoXpX@Xl ^.6X6X6X6X6X6X6X6X6X6X6X6X6X6X6X6X6X6X6X",
"6X6X6X6X6X6X6X6X6X6X6X6X6X6X6X6X6X6X6X/.8X9XwX9X8X2X`.6X6X6X6X6X6X6X6X6X6X/.4X8X8X8X8X2X`.6X6X6X6X6X6X6X6X6X6X6X6X6X6X6X6X6X6X6X",
"6X6X6X6X6X6X6X6X6X6X6X6X6X6X6X6X6X6X6X6X`.6X6X6X6X6X6X6X6X6X6X6X6X6X6X6X6X6X`.6X6X6X6X6X6X6X6X6X6X6X6X6X6X6X6X6X6X6X6X6X6X6X6X6X",
"6X6X6X6X6X6X6X6X6X6X6X6X6X6X6X6X6X6X6X6X6X6X6X6X6X6X6X6X6X6X6X6X6X6X6X6X6X6X6X6X6X6X6X6X6X6X6X6X6X6X6X6X6X6X6X6X6X6X6X6X6X6X6X6X",
"6X6X6X6X6X6X6X6X6X6X6X6X6X6X6X6X6X6X6X6X6X6X6X6X6X6X6X6X6X6X6X6X6X6X6X6X6X6X6X6X6X6X6X6X6X6X6X6X6X6X6X6X6X6X6X6X6X6X6X6X6X6X6X6X",
"6X6X6X6X6X6X6X6X6X6X6X6X6X6X6X6X6X6X6X6X6X6X6X6X6X6X6X6X6X6X6X6X6X6X6X6X6X6X6X6X6X6X6X6X6X6X6X6X6X6X6X6X6X6X6X6X6X6X6X6X6X6X6X6X",
"6X6X6X6X6X6X6X6X6X6X6X6X6X6X6X6X6X6X6X6X6X6X6X6X6X6X6X6X6X6X6X6X6X6X6X6X6X6X6X6X6X6X6X6X6X6X6X6X6X6X6X6X6X6X6X6X6X6X6X6X6X6X6X6X",
"6X6X6X6X6X6X6X6X6X6X6X6X6X6X6X6X6X6X6X6X6X6X6X6X6X6X6X6X6X6X6X6X6X6X6X6X6X6X6X6X6X6X6X6X6X6X6X6X6X6X6X6X6X6X6X6X6X6X6X6X6X6X6X6X",
"6X6X6X6X6X6X6X6X6X6X6X6X6X6X6X6X6X6X6X6X6X6X6X6X6X6X6X6X6X6X6X6X6X6X6X6X6X6X6X6X6X6X6X6X6X6X6X6X6X6X6X6X6X6X6X6X6X6X6X6X6X6X6X6X",
"6X6X6X6X6X6X6X6X6X6X6X6X6X6X6X6X6X6X6X6X6X6X6X6X6X6X6X6X6X6X6X6X6X6X6X6X6X6X6X6X6X6X6X6X6X6X6X6X6X6X6X6X6X6X6X6X6X6X6X6X6X6X6X6X",
"6X6X6X6X6X6X6X6X6X6X6X6X6X6X6X6X6X6X6X6X6X6X6X6X6X6X6X6X6X6X6X6X6X6X6X6X6X6X6X6X6X6X6X6X6X6X6X6X6X6X6X6X6X6X6X6X6X6X6X6X6X6X6X6X"
};
