/* XPM */
static char *_83c728606564554c1fbf23fe1e6815dRqNbc8mDgMKNW8nu[] = {
/* columns rows colors chars-per-pixel */
"64 64 256 2 ",
"   c #1C1C15",
".  c #181B0A",
"X  c #271D18",
"o  c #301E1A",
"O  c #1B2518",
"+  c #1A3310",
"@  c #29241C",
"#  c #242519",
"$  c #27381A",
"%  c #2F3317",
"&  c #282922",
"*  c #352826",
"=  c #2B3523",
"-  c #37362B",
";  c #1F2921",
":  c #463929",
">  c #4F362E",
",  c #77372A",
"<  c #65321C",
"1  c #0A4D02",
"2  c #184A05",
"3  c #055501",
"4  c #0C5401",
"5  c #045C00",
"6  c #0A5A01",
"7  c #0F550C",
"8  c #125403",
"9  c #125A02",
"0  c #185A0B",
"q  c #195615",
"w  c #194A16",
"e  c #26570A",
"r  c #34560C",
"t  c #294818",
"y  c #275B16",
"u  c #2F5112",
"i  c #046301",
"p  c #0C6402",
"a  c #046D01",
"s  c #0A6C02",
"d  c #0C640B",
"f  c #0B6B0A",
"g  c #076A09",
"h  c #136404",
"j  c #126A04",
"k  c #13630B",
"l  c #1A630B",
"z  c #136A0B",
"x  c #1B6B0C",
"c  c #1D6806",
"v  c #037201",
"b  c #0B7303",
"n  c #057C04",
"m  c #0B7C04",
"M  c #0C740B",
"N  c #067D0A",
"B  c #0C7C0A",
"V  c #06720B",
"C  c #13740B",
"Z  c #127B0C",
"A  c #157608",
"S  c #1C6B13",
"D  c #186813",
"F  c #0C7C12",
"G  c #0A7813",
"H  c #147412",
"J  c #1C7413",
"K  c #137A11",
"L  c #1C7B1A",
"P  c #1A7B16",
"I  c #25680C",
"U  c #286916",
"Y  c #386819",
"T  c #267717",
"R  c #35751B",
"E  c #31680C",
"W  c #344927",
"Q  c #365725",
"!  c #385A33",
"~  c #2C5227",
"^  c #2A6726",
"/  c #366626",
"(  c #2B7926",
")  c #377625",
"_  c #377234",
"`  c #1D7022",
"'  c #484F17",
"]  c #724C1B",
"[  c #45651B",
"{  c #516A1C",
"}  c #495828",
"|  c #484639",
" . c #50572E",
".. c #715031",
"X. c #466726",
"o. c #586C2B",
"O. c #467829",
"+. c #547A2A",
"@. c #466A35",
"#. c #536937",
"$. c #567735",
"%. c #487832",
"&. c #676A39",
"*. c #657639",
"=. c #726E33",
"-. c #505142",
";. c #73544A",
":. c #4F6944",
">. c #676748",
",. c #677543",
"<. c #747945",
"1. c #676955",
"2. c #79665A",
"3. c #72704D",
"4. c #787166",
"5. c #993C35",
"6. c #8C3B2E",
"7. c #B13A33",
"8. c #D03535",
"9. c #884729",
"0. c #994836",
"q. c #905231",
"w. c #A54739",
"e. c #B74638",
"r. c #AA5637",
"t. c #996B3C",
"y. c #88693A",
"u. c #A8723D",
"i. c #C74338",
"p. c #CC3742",
"a. c #974A42",
"s. c #91544B",
"d. c #AB4943",
"f. c #B0524A",
"g. c #876945",
"h. c #966E45",
"j. c #887649",
"k. c #95734C",
"l. c #9C734C",
"z. c #9A7649",
"x. c #986656",
"c. c #9A7653",
"v. c #9C7B54",
"b. c #9D7D59",
"n. c #957853",
"m. c #876C57",
"M. c #A47B4C",
"N. c #A77847",
"B. c #A37C54",
"V. c #A37D5A",
"C. c #A67A55",
"Z. c #B6774C",
"A. c #887468",
"S. c #92766F",
"D. c #A6766B",
"F. c #C37E55",
"G. c #D66862",
"H. c #058204",
"J. c #0B8105",
"K. c #06810B",
"L. c #0C820A",
"P. c #0C890B",
"I. c #11840B",
"U. c #0E8212",
"Y. c #178214",
"T. c #298219",
"R. c #328528",
"E. c #1E8720",
"W. c #548835",
"Q. c #6B8638",
"!. c #518946",
"~. c #758647",
"^. c #728C51",
"/. c #768B67",
"(. c #6BAC60",
"). c #88874B",
"_. c #87914D",
"`. c #8A8954",
"'. c #9D835A",
"]. c #978757",
"[. c #889757",
"{. c #99955B",
"}. c #96864E",
"|. c #A58255",
" X c #AC8354",
".X c #A3825B",
"XX c #AA845C",
"oX c #AA8C5B",
"OX c #B48A56",
"+X c #B3855A",
"@X c #B58B5B",
"#X c #BB8D5C",
"$X c #B88657",
"%X c #A8985B",
"&X c #BC925D",
"*X c #B7945C",
"=X c #AA844C",
"-X c #9C8A66",
";X c #948A74",
":X c #AA8662",
">X c #AD8A63",
",X c #A58762",
"<X c #BB8C62",
"1X c #B58B64",
"2X c #A89766",
"3X c #BD9462",
"4X c #BA9766",
"5X c #A9887B",
"6X c #B59279",
"7X c #90A96D",
"8X c #ABA566",
"9X c #BAA268",
"0X c #A5AE75",
"qX c #97A15A",
"wX c #C38A5A",
"eX c #C3945D",
"rX c #C7824B",
"tX c #C48B63",
"yX c #C39463",
"uX c #C49A65",
"iX c #C49C6A",
"pX c #CA9C6A",
"aX c #C99767",
"sX c #D49A6D",
"dX c #CD9471",
"fX c #C5A46C",
"gX c #CCA673",
"hX c #9A8E86",
"jX c #B79789",
"kX c #B4958D",
"lX c #AFA590",
"zX c #BAAFA7",
"xX c #C9998B",
"cX c #D19A92",
"vX c #C5A597",
"bX c #D2AA9A",
"nX c #F0A49D",
"mX c #D5ABA4",
"MX c #CBB3AC",
"NX c #D9B4AA",
"BX c #CFB3B0",
"VX c #E8ACA4",
"CX c #E6B6AB",
"ZX c #F0B7B0",
"AX c #FF9E99",
"SX c #B1C397",
"DX c #CECBB1",
"FX c #E8C4B8",
"GX c #F4C3BA",
"HX c #CFD8AC",
"JX c #F2CFC8",
"KX c #FBE9D7",
"LX c #FCEBE3",
"PX c #FCF8E7",
"IX c #FFF9F6",
"UX c #D7DEC3",
/* pixels */
"K.N N B v v v v m m m m a v v v n J.m M i 5 5 7 S S k k J P G N H.J.M Z v v s s v v a s 5 5 3 5 V B N N v b a b v v v v s s b a ",
"L.N N B a v v a m m m m a v v v m L.L.M 5 3 3 7 ( D 0 l U J H K b b P H V V b s a v a s 5 4 4 5 M L.N m v s s a v a v a s a b v ",
"m m B Z a b b v M B B B v v b b m m m C p 4 4 7 q ^ ^ 2 2 y ( ` ( S W.R.f g a b v b f d 5 3 4 6 V B B M b b s b s s v a v a v v ",
"m m B Z s s f f H H C M a v a a Z Z C z 8 2 q ^ _ ~ ~ ! $ + w _ ^ q @.!.U H a a s s d d 6 5 6 6 C K C b s s s s s s s a v v v v ",
"J.m m C i 5 6 6 5 5 5 i b B B B i 5 5 l y t $ + $ $ ! -.| = + + | W $ Q _ ( F B i 6 8 7 d d s p 5 6 5 i M B F G i 5 6 i M m m B ",
"H.J.m C 5 3 4 4 4 4 5 5 M B m M i 3 4 y @.:.-.| O O O = = = & & = | % $ /._ L B 5 4 4 6 d f b s 6 6 4 5 M N G G 5 3 3 5 C Z L.I.",
"H.H.m C 5 6 4 4 4 4 3 5 C Z Z H 3 q ~ t $ # O O O O O   O # @ & O - & @ /./ ( P 5 6 6 5 f a v s 4 4 4 5 M F F G 5 6 4 6 C Z B I.",
"H.J.B C 5 5 3 6 6 6 5 5 C C C D q ~ W $ # # # O O O O   # @ X X &   & - >.W ( H i 5 5 5 g a v s 6 6 5 5 M G G H 6 8 4 6 C C B I.",
"J.m m Z s s g g M C C C 5 5 6 4 q t $ # @ @ & O O O O #   @ X   O O ; & | t _ f M Z A b b s s s C C C C 5 5 6 6 4 4 4 6 p s v N ",
"m m B Z a v v v B B Z C 5 5 4 8 ~ ~ ! :.-.- & & O O #   @ X   @ # # # & - $ ^ f M m m m b s s s B F F M 5 6 8 8 8 6 4 6 p s v n ",
"B B B B v v v v m B Z C 5 5 4 4 w ! :.! = & &   X X & X X * * o o o X X # W ^ f B H.J.m b a s g B F F M 5 3 4 4 4 3 3 5 p s v n ",
"N N m n v v v v n m m M i 5 6 7 _ ! W $ O # # X o * * S.lXA.S.vXD.;.: o # W ^ d m n m m a s f f M N N b i i 5 6 5 5 5 5 p s v m ",
"v v v v n m m m m m m Z s s p D _ $ O # # O   O @ -.BXNXkXS.A.mXCXmXxX;.# $ ^ 6 s a s s i 5 5 5 s s v v b b b b s s s s s s a M ",
"v v v v B B B m m m m B a g s D w + # X X & O O | lXFXZX;.NXCXjXZXVX5XkX= ! 1 4 h h l h 5 3 4 6 s s a v B B B Z s s s s s s s M ",
"b b b a Z N N N N N N N v v s k + O @ @ X & X * A.CXJXZXbXZXGXbXZXbXxX5X~ w q 8 e X.$.X.y 8 1 6 s b s a Z m m B a s a a v v v M ",
"a s s s Z N N N L.N N B v b a k + = -.- X X o : 5XJXZXGXZXmXmXCXCXCXCXlX~ 1 q 2 ^.0XSXlX^.Q 2 8 p s s s A m m m b b b v v v v m ",
"b a a b a b v v N B B B N N B H ^ ! W @ X X o > cXZXZXZXmXLXLXvXFXFXbX0Xe l y #.6XNXjXvXvX;Xu 8 8 8 4 5 s v v v M Z M Z m B n J.",
"b v v v a s b v Z U.Z m H.L.B J ^ t $ # X * A.m.VXZXZXGXkXPXIXhXFXjXKX>.y U :.3.;XNXjXbXvX;Xu 8 8 9 4 5 s v a v M Z m Z m B n J.",
"b v v v v a b a M b N L.L.m A R t $ # X X > A.5XVXZXVXmXBXJXLXJXNXFXJX4. ././.1.;XvX5X,X;X^.y 8 4 3 3 5 s v v v m I.L.L.N K.N B ",
"s s a a v v b b B K N v m Z I y = : 1.* @ > 5XD.VXVXVXmXBXzXMXJXBXBXMXhX4.lX4.2.4.A.n.>.,./ 9 3 5 i 5 i a v v v M C M N B N N B ",
"9 6 5 i M M m M 5 5 i s s k / ,.;X2.-.#   * S.jXVXZXCXFXDXzXlXlXzXMXMXS.BXBX2.1.>.>.>.#.U D C Z b b b b v v v s 9 9 6 p M B B J.",
"4 4 4 3 H M B B p 3 3 5 i ( (.HXDX2.. & O & ..5XcXVXcX2.: - : : : 2.2.S.CXCXkXA.1.#.#.%.( L K m J.J.Z A v a g f 8 8 4 5 M N J.m ",
"4 4 6 4 J C m m 5 6 9 3 f !.(.7X/.' $ W - : > ..x.6XmXA.> : ..: : ..;.vXCXcXjXjX;X^./.^.(.W.T.m n n A A a a f f 7 6 6 5 M N m m ",
"5 5 6 4 J C M C 6 1 8 9 i L _ / } } } >.A.S.D.a.0.s.D.5XA.m.m.g.q...s.cXxXxXlX^.@.%.O.O.W.W.x K B M A A s s s s 5 5 5 i N N m m ",
"m Z H J 6 6 5 4 4 8 1 4 z z 0 y / #.A.vXZXnXG.d.0.a.D.xX5XS.m.x.0.w.d.f.xX5X^./ T x T I E E x z 6 6 4 6 j s a v Z m Z B v a b s ",
"H.m Z H 6 6 6 8 1 7 4 7 j p I %.^.1.;XCXnXAXG.7.5.a.x.xXD.S.5Xs.5.7.f.5.s.>.Q 0 I I E { Q.Q.( k 4 8 6 6 p s a v m n m m v b V a ",
"H.K.F H 6 4 4 4 7 7 3 5 p h +.7X/.1.A.vXVXnXG.7.7.5.0.s.D.;..., 5.f.d.6... .} r [ *.y.N.=X_.Y d 7 4 3 5 s b b a Z m Z Z a a v v ",
"H.K.F G 5 5 6 6 3 5 5 i s T ^.SX/.1.4.;XjXxXZ.w.w.d.s.D.m.;.;., a.a., < , , ....] t.Z.N.y.{ 0 D 6 6 6 p h j j h j A A A b a v N ",
"H.H.N B a a a a B Z N N n A +.[./.1.:.@.@.,.&...s.x.ZXLXLXFXm.s.a.s.s.6.6.e.e.e.e.0.9.] r c j s H H C I R R O.O.R I h s N N J.P.",
"J.N N B v v v v m m J.H.J.Z R %.^.~._ U q y } -XbXJXMXhXhXMXjXD.cXx.6.9.d.8.8.8.8.7.0...e p j x J T R +.^.7X0X0X[.W.E h M L.L.L.",
"Z m N B a a v a N B B B m B H J h c z k z S !.UXKXLXzX4.4.2.x., 5.w.0.0.d.7.i.8.8.8.e.9.{ [ E r { _.qX%X9XfX9X9XgX8XQ.Y x Z B L.",
"A Z B F a v v v M C J J J J H H b s s f z ( !.zXUXS.hXlXhXMXs.0.r.r.wXsXtXw.7.i.i.i.e.9.%X8XqX).=.%XfX&XuXpXeXpXyXgX8XQ.R C Z Y.",
"s a v a B n N B Z T I Y Y r y U I J D S !.UXPXKXzX2.zXLXPXFXa.d.F.sXsXsXaXsXsXq.r.r.tXaX3X4X9X4X3XN.*XuX3X3XyXyXaXiX9X{.[ h j C ",
"b a a a B B U.P x O.[ &.*.*.,.#.O.) ^ / @.HXPXLXCXx.kXLXKXs.6.0.aXuX&XpXgXyXpXgXq.$XsXaXpXaX&XyXyX#XfXuX*X&XyX#XyXyXiX8X+.c j A ",
"v a a v B Z L R X.&.g.g.&.3.<.,.&.<.&.#.' &...0.d.d.x.JXx...<XdXpXuXpXpXyXpXpX$XN.wXwX#XaXyXyXpXyXeXuXOXOXOX#X@Xt.iXgX%XW.x s Z ",
"v v v b M J ) #.&.&.&... .} % ' ......y.g.g.w.i.p.7.f.q.9.<XpXiXiXuXpXpXOXN.t.$X<XC.$XyXyXeXeX=Xt.yX&X3X=XuX&X&XOX XuX8XW.z M v ",
"m m m M p 0 Q  .&. .} @./ y y r ' ] q.] , 6.d.p.p.7.0.] q.iXpXpXuXuXpX#XM.3X<X<X Xh.<X3X+X#X#XN.yXiX@XOXOXeXuXyX@X@X4X%XO.x P U.",
"J.J.B H 4 2 Q  . .} u e e r [ =.=XN.rXF.Z.0.7.7.7.7.9.<Xh.uXpXeX&XM.OX+Xt.XX4X1XB.h.1X<X<X+XOX+X3X&X3XOXyXyX3X Xh.iX@X=.X.x M Y.",
"H.N F P 7 y Q @.Q t u ' ] u.Z.F.Z.rXu.q.N.$XtXF.f.0.dX+X@XiXaXsXpX#Xz.z.z.XXB.XXl.B.XX4X3XOXN. Xt.@XyX&Xt.yX3X1X4X1X X'._.O.J P ",
"H.H.N K 4 8 q q q / X.j.OXF.rXZ.q.t.N.yX#X4X4X4X<Xt.tXaXM.iXpXyXyXuX@XoXk.c.v.b.g.V.c.XXz.XXOX#X1Xz.uX3X@XM.+X+XoXv.l.oX8X$.U L ",
"J.J.m B s h k 0 0 0 [ _.}.=.=.{  .n.XXtX<X XXXM.<XN.#X&XyXuXpXuXuXiXiX1XB.v.c.k.n.v.V.c.XX@XM.B. XXX3XgXgXoXh.y.y.h.C.>X2X_.U k ",
"m m H.J.v s s j j h I +.+.Y R E o.].1X<XXXM.@X1XOXN.OX&XpXpX*X*X XOX1X>X.Xb.b.c.b.n.v.k.>XB.B.B.XX:X4XiX9X1XXXB.b.v.V.XX2X).e k ",
"H.H.H.J.v v a s s s s A A A A c [ `.<XtX+XB.|.XXB.l.oXOXyXyXOX*X|.|.XX|.V..X,X.Xn.n.g.c.:Xc.B.|.V.V.:X>X,X,XV.V..Xv.XXXX2X=.e 9 ",
"N N m n v v v v a b v v N L.N x r j. X$X+XB.l.h.B.XXoX XOX$X3XoX|.B..X|..XXX:X,X:X:Xv..X.X.Xb.V.V..X.X'.'.'.V.V.n.b.:XoX{.o.e 9 ",
"s s s b n n n n v s s a m J.n J o.}. X$XyXwXOXOXOX3X1X1X|.B.6X.X.Xb.V.XX:X:X.Xc.1X>X>Xc.b..X.Xb.V.V.b.b.].'..XV.b.,XXX,X_.Y I T ",
"s s s s B L.K.H.v s s s m m B R ~.oX+X$X#X#X#XeXwXeX+XiX1Xc.6X.XXXb.b..XXX:X.Xv.:X:X.Xh.g.b.b.V.V.b.n.n.n.v.b.'..X.XB.{.~.U J T.",
"v v b a Z m N N v v v v B Z L ) ).+XwXwX3X@XOX#XwXwX#XuX3XM.#X+X:Xb.b.V.V..XXX|.XX1X.Xb.g.v.n.'.V.b.n.n.v.v.v.'.b.B..X`.R.K Z Y.",
"v v v v Z M M B v b v b M C J Y ). X$X#X*X@X@X#XwXwXyX&X#XM.OX@XV.b.V..X.X'.|.|..XXX|..Xn.j.b.'.b.b.n.b.b.v.].'.'.oX2X~.x F B K ",
"m m n K.v v f s M N N m M s s R *.k..X>X1X@X$X$XwXwXyXOX=Xt.3XXXc.b.b.b.'.'.'..X.XXXV.V.b.y.j.b.b.b.b.n.b.b.'.].{.[.~.R M v V G ",
"m m H.K.v v s s Y.m L.B a s j I &.g.k.XX+XM.N.#XeX#X&XM.M.h.|.:XV.V.V..X'.'.'.'..Xc.V.V.V.k.;.g.k.c.V.:Xc.n.=.=.*.+.R.T.K M V G ",
"K.K.K.K.v v a a b L.L.n a s x Y j.h.h.M.C.h.N.$X#X@X3XB.|.l.l.<X:X:XV.V.V.b.B.|.|.B.|.XX,XV.g.k.=.g.g.g.g.,X{.o.) ) T T.J T H M ",
"N N N m v v v b m B M M C 9 Y _.4X+XN.t.t.N.C.<X+XXXXXM.B.B.h.XX:X:XXX|.B.B.B.B.XX>XV.:X,X,X:X,X-X-Xb.,X>X2X[.O.( P Z Z j T T C ",
"f f s b m m m b i 5 i 6 1 r ).9X&XeX#X$X$XwX$XZ.+XC.C.C.B.B.l.h.l.B.B.B.C.B.C.k.:X>X.X,Xv.c.V..X'.,X:X>X2X0X%.( E.M N N B C T.T.",
"s s s s m m B Z 5 6 8 2 [ _.4XuXuXeXeXwXwX$X$X+XC.C.B.B.c.B.XXl.h.z.k.h.h.l.C.l.k.g.n.v.v.XXb..X,X.X,X2X0X$.!.( Y.B U.K.U.Z T.T ",
"v v s a B N B G 6 8 u *.{.4X*XuXeXeXyXyX#X XM.B.c.c.b.b.v.k..X.Xb.c.l.l.c.C.C.V.V.h.v.b.'..Xv.v..X].{.^.O.W.( T.P K U.n N B T T ",
"v v v a Z M H S 0 Y <.2X9XiXuXeXyXyX+X X|.v.v.v..X].'.'.,Xb.v.v.v.k.k.v.B.c.v.V..Xc.k.b.XX'.>X.X{.).r e R.R.J L R.P M M Z Z T.R.",
"H.H.n M i 9 2 r o.].4X4XiXpXyX<X<X+XC.B.v.}.n.j.}.{.].'..XXXC.c.c.j.y.n.v.,Xn.'.XXc.B.>X'.'.oX2X[.X.e p L f M f p 5 6 4 I R.R.P ",
"n L.N K 4 2 { ).2XfXiXyXaXyX#X<XC.B.|.].).*.o.[ o.~.`.].].n.c.:Xv.k.j.<.`.`.].].}.{.2X{.).{.[.~.Y 9 z C E.M M g 3 6 9 I R.( H M ",
"Z Y.J T Y ~.{.4XiX3XeXuXaX<XC.v.b.].`.~.%.U D S S I Y $.&.<.].].'.].].].`.*.^.7X[.7X[.*.Y Y U l z s s s b a v g 5 1 8 0 S z g V ",
"I I Y Q._.8X4XuX3XuXuX&X X|.'.].`.<.#.Y 0 d d g f p l e 2 r *.~.`.[.~.*.X.e y E Y U U U 0 l D L M M b s a a b s 5 4 9 9 p s M v ",
"[ *.).%X3XuXiXfXfX*X@XOX XoX`.~.O.U l 0 6 6 6 3 6 9 4 9 U I x T U ) 0 I S T J x z l l x x U S D P Z m m b b j s i f s i K M n N ",
").%XfXpXaXsXpX4X*X|.|.oX{._.$.E h s f d 5 3 4 6 4 9 1 3 L K B U.f f i b M v B Z s s s k k S U T T K B m v a s s M s g a Z N J.L.",
"fX*X#XeXpX3X@XoX.X'.{.).$.Y c j A s s s 5 6 4 4 4 4 4 5 C B L.n a b b a n I.I.m v v s z 5 4 1 0 H M Z Z m v v v v i v m m m J.n ",
"*XeXuXeX#XOX X|..Xn.&.X.y k s a a a b s 5 3 4 4 4 9 4 5 Z N H.H.v v v v m J.n m v v a s 5 4 7 l T Z Z b v v v v v v v a m m m J."
};
