/* XPM */
static char *_60471a122974279aeab1ebd2418077eOamwGpjjDjnmbL21[] = {
/* columns rows colors chars-per-pixel */
"64 64 172 2 ",
"   c #795548",
".  c #775347",
"X  c #61433A",
"o  c #5D4037",
"O  c #593D35",
"+  c #422A25",
"@  c #3E2723",
"#  c #3D2622",
"$  c #47302B",
"%  c #927971",
"&  c #A28980",
"*  c #A1887F",
"=  c #9D8379",
"-  c #7F5C50",
";  c #5A3D35",
":  c #422A26",
">  c #452E2A",
",  c #90776F",
"<  c #9D847A",
"1  c #7F5D51",
"2  c #795447",
"3  c #775447",
"4  c #755245",
"5  c #614339",
"6  c #5B3E36",
"7  c #573B33",
"8  c #412A25",
"9  c #66473C",
"0  c #62443A",
"q  c #62433A",
"w  c #5E4137",
"e  c #5A3E35",
"r  c #472E29",
"t  c #432B26",
"y  c #442B27",
"u  c #3F2823",
"i  c #5C4037",
"p  c #3D2623",
"a  c #462F2B",
"s  c #A38A80",
"d  c #9D837A",
"f  c #452E29",
"g  c #A38A81",
"h  c #9E847B",
"j  c #583C34",
"k  c #49312C",
"l  c #472F2B",
"z  c #4E3732",
"x  c #8C736B",
"c  c #998078",
"v  c #998077",
"b  c #957B72",
"n  c #7B594D",
"m  c #765346",
"M  c #4D3531",
"N  c #8A716A",
"B  c #988077",
"V  c #957C73",
"C  c #7C5A4E",
"Z  c #4B332E",
"A  c #876E66",
"S  c #927A71",
"D  c #58413B",
"F  c #4D3631",
"G  c #503832",
"H  c #5F4139",
"J  c #8C746C",
"K  c #59423D",
"L  c #4F3732",
"P  c #5E4138",
"I  c #48312C",
"U  c #947B73",
"Y  c #3C2521",
"T  c #402924",
"R  c #9B8279",
"E  c #4F3733",
"W  c #402824",
"Q  c #48302C",
"!  c #937B72",
"~  c #412925",
"^  c #593D34",
"/  c #9A8179",
"(  c #4F3833",
")  c #5E4037",
"_  c #513A35",
"`  c #957C74",
"'  c #A1877E",
"]  c #442C27",
"[  c #563B33",
"{  c #513934",
"}  c #91776F",
"|  c #9E837A",
" . c #967C73",
".. c #563A32",
"X. c #9F867D",
"o. c #836155",
"O. c #7E5C4F",
"+. c #452D28",
"@. c #816054",
"#. c #5F4239",
"$. c #462D28",
"%. c #9C8278",
"&. c #7D5B4E",
"*. c #785447",
"=. c #3D2723",
"-. c #775346",
";. c #5B3E35",
":. c #9C8279",
">. c #7E5B4F",
",. c #987D73",
"<. c #7D5A4E",
"1. c #7A5649",
"2. c #3F2824",
"3. c #745245",
"4. c #5F4138",
"5. c #48302B",
"6. c #755246",
"7. c #442D29",
"8. c #8A7169",
"9. c #4C3530",
"0. c #5F4238",
"q. c #482F2A",
"w. c #856D65",
"e. c #90786F",
"r. c #846C64",
"t. c #503833",
"y. c #947C73",
"u. c #48312D",
"i. c #9A8178",
"p. c #937B73",
"a. c #977D74",
"s. c #8B726A",
"d. c #4A322D",
"f. c #92786F",
"g. c #503934",
"h. c #7C5B4E",
"j. c #573C34",
"k. c #90766D",
"l. c #826155",
"z. c #7F5D50",
"x. c #472F29",
"c. c #917971",
"v. c #937A72",
"b. c #9E847A",
"n. c #997E74",
"m. c #3F2723",
"M. c #836256",
"N. c #4C3430",
"B. c #7E5C50",
"V. c #5B433E",
"C. c #533B35",
"Z. c #735045",
"A. c #704E42",
"S. c #7A5548",
"D. c #402925",
"F. c #6C4B40",
"G. c #745145",
"H. c #4A302B",
"J. c #8D746C",
"K. c #62473F",
"L. c #583B33",
"P. c #422B26",
"I. c #9D847B",
"U. c #694D44",
"Y. c #5D3F36",
"T. c #9C837A",
"R. c #5C3F36",
"E. c #997D73",
"W. c #987E74",
"Q. c #684C43",
"!. c #63453B",
"~. c white",
/* pixels */
"              . X o o o o o o O + @ @ @ @ @ # $ % & * = -                     . X o o ; : @ @ @ @ @ @ > , & * < 1 2             ",
"              . X o o o o o o O + @ @ @ @ @ # $ % & * = -                     . X o o ; : @ @ @ @ @ @ > , & * < 1 2             ",
"              . X o o o o o o O + @ @ @ @ @ # $ % & * = -                     . X o o ; : @ @ @ @ @ @ > , & * < 1 2             ",
"        3 . 3 4 5 o o o 6 6 6 7 8 @ @ @ @ @ # $ % & * = -               3 . 3 4 5 o o ; : @ @ @ @ @ @ > , & * < 1 2             ",
"      3 9 0 0 q w o o e r t y t u @ @ @ @ @ # $ % & * = -             3 9 0 0 q w o o ; : @ @ @ @ @ @ > , & * < 1 2             ",
"      . 0 i o o o o o ; : p @ @ @ @ @ @ @ @ # $ % & * = -             . 0 i o o o o o ; : @ @ @ @ @ @ > , & * < 1 2             ",
"      3 0 o o o o o o ; + # # # # # # # # # # a % s & d -             3 0 o o o o o o ; + # # # # # # f , g & h 1               ",
". . . 4 q o o o 6 e e j k l $ $ $ $ $ $ $ $ a z x c v b n m . . . . . 4 q o o o 6 e e j k l $ $ $ $ a M N c B V C m . . . . . . ",
"X X X 5 w o o 6 r t : Z A S % % % % % % % % % x D M F G H q X X X X X 5 w o o 6 r t : Z A S % % % % % J K M F L P q X X X X X X ",
"o o o o o o o e t p # I U g & & & & & & & & s c M Y # T j o o o o o o o o o o e t p # I U g & & & & & R E Y # W j o o o o o o o ",
"o o o o o o o e : # # Q ! & * * * * * * * * & v F # @ ~ ^ o o o o o o o o o o e : # # Q U & * * * * & / ( # @ ~ j ) o o o o o o ",
"; ; ; ; ; ; ; j Z I Q _ ` & * ' d = = = = = d b G T ~ ] [ e ; ; ; ; ; ; ; ; ; j Z I Q { } | = = = = d  .{ T ~ t ..e ; ; ; ; ; ; ",
": : : : : : + k A U ! ` X.* * = o.O.- - - - - n H j ^ [ +.: : : : : : : : : + k A U U } @.O.- - - - - C #.j ^ 7 $.: : : : : : : ",
"@ @ @ @ @ @ # l S g & & * * * %.&.*.          m q o o e : =.@ @ @ @ @ @ @ @ # l S g & | O.*.          -.0 o o ;.t =.@ @ @ @ @ @ ",
"@ @ @ @ @ @ # $ % & * * * * & :.>.            . X o o ; : @ @ @ @ @ @ @ @ @ # $ % & * = -             . 0 o o e t @ @ @ @ @ @ @ ",
"@ @ @ @ @ @ # $ % & * ' = %.:.,.<.            . X o o ; : @ @ @ @ @ @ @ @ @ # $ % & * = -             . 0 o o e t @ @ @ @ @ @ @ ",
"@ @ @ @ @ @ # $ % & * d o.&.>.<.1.            . X o o ; : @ @ @ @ @ @ @ @ @ # $ % & * = -             . 0 o o e t @ @ @ @ @ @ @ ",
"@ @ @ @ @ @ # $ % & * = O.*.                  . X o o ; : @ @ @ @ @ @ @ @ @ # $ % & * = -             . 0 o o e t @ @ @ @ @ @ @ ",
"@ @ @ @ @ @ # $ % & * = -                     . q o o ; + # @ @ @ @ @ @ @ @ # a % & & d -             3 0 o o e t @ @ @ @ @ @ @ ",
"> > > f 2.@ # $ % & * = -               3 . 3 3.4.e 6 ^ 5.> > > > > > > > > f M J R /  .C -.. . . . 3 6.q o o e t @ @ 2.7.> > > ",
", , , 8.9.# # $ % & * = -             3 9 0 0 0.q.t t Z w.e., , , , , , , , , N K E ( { #.0 0 0 0 0 0 q P o o e t @ # a r.e., , ",
"& & s R t.# # $ % & * = -             . 0 i o e t p # I y.g & & & & & & & & g c M Y # T j o o o o o o o o o o e t @ # u.y.g & & ",
"* * & i.( # # l % s & d -             3 0 o o e : # # I p.& * * * * * * * * & B F # @ ~ ^ o o o o o o o o o o e : # # I ! & * * ",
"< < h a.{ W T I s.c v b n m . . . . . 3.0.e e ^ d.l a t.f.h < < < < < < < < h V L W ~ t 7 ;.e ;.o o o o 6 e e ^ d.l a g.V & * * ",
"1 1 1 h.#.j j j.L F F G H q X X X X q 4.q.t : d.w.S % k.l.z.1 1 1 1 1 1 1 1 1 C P j j ..$.t t $.; o o 6 x.t : d.w.S c.v.X.* * * ",
"2 2   -.0 o o e + # # T j o o o o o o e t p # l S g & b.O.*.2 2 2 2 2 2 2 2   m q o ) e : =.=.8 O o o 6 t p # l S g & & * * * * ",
"      . 0 o o e t @ @ 8 ^ o o o o o o 6 t # # a % & & d -                     . X o o ; : @ @ + O o o 6 y @ # $ % & * * * * * * ",
"      . 0 o o e t @ @ ~ ..e ; ; ; ; ; ^ Z I I t.k.b.d n.>.                    . X o o ; : @ @ 8 [ e e j t @ # $ % & * ' d = = = ",
"      . 0 o o e t @ @ @ + : : : : : + 5.w.y.p.f.l.O.- >.1.                    . X o o ; : @ @ m.+ : : : u @ # $ % & * d M.O.- - ",
"      . 0 o o e t @ @ @ @ @ @ @ @ @ # > e.g & h z.*.                          . X o o ; : @ @ @ @ @ @ @ @ @ # $ % & * = O.*.    ",
"      . 0 o o e t @ @ @ @ @ @ @ @ @ @ > , & * < 1 2                           . X o o ; : @ @ @ @ @ @ @ @ @ # $ % & * = -       ",
"      . 0 o o e t @ @ @ @ @ @ @ @ @ @ > , & * < 1 2                           . X o o ; : @ @ @ @ @ @ @ @ @ # $ % & * = -       ",
"      . 0 o o e t @ @ @ @ @ @ @ @ @ @ > , & * < 1 2                           . X o o ; : @ @ @ @ @ @ @ @ @ # $ % & * = -       ",
"      . 0 o o e t @ @ @ @ @ @ @ @ @ @ > , & * < 1 2                           . X o o ; : @ @ @ @ @ @ @ @ @ # $ % & * = -       ",
"      . 0 o o e t @ @ @ @ @ @ @ @ @ # f , s & h 1 2                           . X o o ; : @ @ @ @ @ @ @ @ @ # $ % & * = -       ",
"      . 0 o o e t @ @ 2.7.> > > > > f N.s.R i.a.B.                      3 . 3 4 5 o o ; : @ @ @ @ @ @ @ @ @ # $ % & * = -       ",
"      . 0 o o e t @ # a r.e., , , , , s.V.E ( C.Z.                    3 9 0 0 q w o o ; : @ @ @ @ @ @ @ @ @ # $ % & * = -       ",
"      . 0 o o e t @ # u.y.g & & & & s R E Y # + A.S.                  . 0 i o o o o o ; : @ @ @ @ @ @ @ @ @ # $ % & * = -       ",
"      3 0 o o e : # # I ! & * * * * & i.( # =.t A.1.                  3 0 o o o o o o ; + # # # # # # p @ @ # l % s & d -       ",
". . . 3.0.e e ^ d.l a g.V & * ' h d h a.{ W D.+.F.G.G.G.m . . . . . . 4 q o o o 6 e e j k l $ $ $ $ $ a : ~ T I s.c v b n m . . ",
"X X q 4.q.t : d.w.S c.v.X.* * = M.z.1 h.#.j j 7 H.r r H.) q X X X X X 5 w o o 6 r t : Z A S % % % % % J.K.L.j j.L F F G H q X X ",
"o o o e t p # l S g & & * * * %.&.*.  -.0 o o ;.P.# # ~ j o o o o o o o o o o e t p # I U g & & & & & I.U.Y.o e + # # T j o o o ",
"o o o 6 y @ # $ % & * * * * & :.>.    . 0 o o e t @ @ 8 ^ o o o o o o o o o o e : # # Q U & * * * * & T.U.R.o e t @ @ 8 ^ o o o ",
"; ; e j t @ # $ % & * ' d = d E.<.    . 0 o o e t @ @ ~ ..e ; ; ; ; ; ; ; ; ; j Z I Q { } | = = = = d W.Q.R.o e t @ @ ~ ..e ; ; ",
": : : : u @ # $ % & * d M.O.- >.1.    . 0 o o e t @ @ @ + : : : : : : : : : + k A U U } @.O.- - - - - C !.o o e t @ @ @ + : : : ",
"@ @ @ @ @ @ # $ % & * = O.*.          . 0 o o e t @ @ @ @ @ @ @ @ @ @ @ @ @ # l S g & | O.*.          -.0 o o e t @ @ @ @ @ @ @ ",
"@ @ @ @ @ @ # $ % & * = -             . 0 o o e t @ @ @ @ @ @ @ @ @ @ @ @ @ # $ % & * = -             . 0 o o e t @ @ @ @ @ @ @ ",
"@ @ @ @ @ @ # $ % & * = -             . 0 o o e t @ @ @ @ @ @ @ @ @ @ @ @ @ # $ % & * = -             . 0 o o e t @ @ @ @ @ @ @ ",
"@ @ @ @ @ @ # $ % & * = -             . 0 o o e t @ @ @ @ @ @ @ @ @ @ @ @ @ # $ % & * = -             . 0 o o e t @ @ @ @ @ @ @ ",
"@ @ @ @ @ @ # $ % & * = -             . 0 o o e t @ @ @ @ @ @ @ @ @ @ @ @ @ # $ % & * = -             . 0 o o e t @ @ @ @ @ @ @ ",
"@ @ @ @ @ @ # a % & & d -             3 0 o o e t @ @ @ @ @ @ @ @ @ @ @ @ @ # a % & & d -             3 0 o o e t @ @ @ @ @ @ @ ",
"> > > > > > f M J R /  .C -.. . . . 3 6.q o o e t @ @ 2.7.> > > > > > > > > f M J R /  .C -.. . . . 3 6.q o o e t @ @ 2.7.> > > ",
", , , , , , , N K E ( { #.0 0 0 0 0 0 q P o o e t @ # a r.e., , , , , , , , , N K E ( { #.0 0 0 0 0 0 q P o o e t @ # a r.e., , ",
"& & & & & & g c M Y # T j o o o o o o o o o o e t @ # u.y.g & & & & & & & & g c M Y # T j o o o o o o o o o o e t @ # u.y.g & & ",
"* * * * * * & B F # @ ~ ^ o o o o o o o o o o e : # # I ! & * * * * * * * * & B F # @ ~ ^ o o o o o o o o o o e : # # I p.& * * ",
"< < < < < < h V L W ~ t 7 ;.e e e e e e e e e ^ d.l a g.V & * ' h d < < < < h V L W ~ t 7 ;.e e e e e e e e e ^ d.l a t.f.h < < ",
"1 1 1 1 1 1 1 C P j j ..$.t t t t t t t t t : d.w.S c.v.X.* * = M.z.1 1 1 1 1 C P j j ..$.t t t t t t t t t : d.w.S % k.l.z.1 1 ",
"2 2 2 2 2 2   m q o ) e : =.@ @ @ @ @ @ @ @ # l S g & & * * * %.&.*.2 2 2 2   m q o ) e : =.@ @ @ @ @ @ @ @ # l S g & b.O.*.2 2 ",
"              . X o o ; : @ @ @ @ @ @ @ @ @ # $ % & * * * * & :.>.            . X o o ; : @ @ @ @ @ @ @ # # # a % & & d -       ",
"              . X o o e +.~ 8 ~ @ @ @ @ @ @ # $ % & * ' d = d E.<.            . X o o ; : @ @ @ @ @ @ 2.a u.I t.k.b.d n.>.      ",
"              . X o o o O ^ ^ ..8 @ @ @ @ @ # $ % & * d M.O.- >.1.            . X o o ; : @ @ @ @ @ @ 7.r.y.p.f.l.O.- >.1.      ",
"              . X o o o o o ) ; + @ @ @ @ @ # $ % & * = O.*.                  . X o o ; : @ @ @ @ @ @ > e.g & h z.*.            ",
"              . X o o o o o o O + @ @ @ @ @ # $ % & * = -                     . X o o ; : @ @ @ @ @ @ > , & * < 1 2             ",
"              . X o o o o o o O + @ @ @ @ @ # $ % & * = -                     . X o o ; : @ @ @ @ @ @ > , & * < 1 2             "
};
