/* XPM */
static char *_d235bed708e4bdeaad9a4f02265b977YMAzmtjFd7o0Rhk4[] = {
/* columns rows colors chars-per-pixel */
"64 64 164 2 ",
"   c #191615",
".  c #1B1B1B",
"X  c #1F1B17",
"o  c #241912",
"O  c #2B1D14",
"+  c #321E12",
"@  c #26221E",
"#  c #2B221B",
"$  c #3C2718",
"%  c #1E1F20",
"&  c #222324",
"*  c #2B2C2D",
"=  c #2B2724",
"-  c #312F2F",
";  c #3B2E25",
":  c #3B312B",
">  c #3A3735",
",  c #3B3C3D",
"<  c #323334",
"1  c #462916",
"2  c #4A301C",
"3  c #51321A",
"4  c #5B3519",
"5  c #593317",
"6  c #60381A",
"7  c #6B3919",
"8  c #483426",
"9  c #553923",
"0  c #583D29",
"q  c #4B3E35",
"w  c #653E22",
"e  c #6F401D",
"r  c #71421E",
"t  c #44403D",
"y  c #544234",
"u  c #55463B",
"i  c #58473A",
"p  c #694224",
"a  c #674226",
"s  c #4C4D4D",
"d  c #444443",
"f  c #584D44",
"g  c #5D544D",
"h  c #515252",
"j  c #575858",
"k  c gray35",
"l  c #5F5955",
"z  c #635C56",
"x  c #605C59",
"c  c #626364",
"v  c #67696A",
"b  c #6D6C6B",
"n  c #716C68",
"m  c #75716F",
"M  c #747474",
"N  c #787776",
"B  c #7D7976",
"V  c #757778",
"C  c #7C7C7B",
"Z  c #FB1722",
"A  c #FB1A22",
"S  c #FB2424",
"D  c #FC2B25",
"F  c #FC3226",
"G  c #FC3927",
"H  c #FC3B28",
"J  c #824A1F",
"K  c #8E4E1E",
"L  c #9D561F",
"P  c #A65A1F",
"I  c #9E4C20",
"U  c #8F5021",
"Y  c #9D5721",
"T  c #9F5824",
"R  c #A25A23",
"E  c #A95E25",
"W  c #BF5726",
"Q  c #B56626",
"!  c #BE6725",
"~  c #BD6926",
"^  c #B86728",
"/  c #BE6A29",
"(  c #C05825",
")  c #D75628",
"_  c #DE5729",
"`  c #DF582A",
"'  c #FD4229",
"]  c #FD4C2B",
"[  c #E05A2A",
"{  c #FD542C",
"}  c #FE5A2D",
"|  c #CA6F29",
" . c #C1682A",
".. c #D7622A",
"X. c #CC712C",
"o. c #D5752B",
"O. c #D8772C",
"+. c #DC7A2E",
"@. c #DF7C30",
"#. c #E9642D",
"$. c #E16D2E",
"%. c #FE642F",
"&. c #FE6C30",
"*. c #FE7331",
"=. c #FE7B33",
"-. c #E88031",
";. c #F48734",
":. c #FF8334",
">. c #F78834",
",. c #FF8D36",
"<. c #FE8F39",
"1. c #F38A39",
"2. c #FF903B",
"3. c #F68F40",
"4. c #FF9543",
"5. c #FF994A",
"6. c #FF9F57",
"7. c #FFA35C",
"8. c #FFA765",
"9. c #FFAA68",
"0. c #FFB275",
"q. c #FFB379",
"w. c #FFB87F",
"e. c #7E7F80",
"r. c #808080",
"t. c #888786",
"y. c #8B8B8B",
"u. c #8F9091",
"i. c #9B9C9C",
"p. c #939393",
"a. c #9FA0A1",
"s. c #A2A3A4",
"d. c #ACACAC",
"f. c #AEAFB0",
"g. c #AFB0B0",
"h. c #B3B3B4",
"j. c #BABBBB",
"k. c #FFB780",
"l. c #FFBE8E",
"z. c #FFC396",
"x. c #FFCBA3",
"c. c #FFCEAB",
"v. c #FFD4B3",
"b. c #FFDABE",
"n. c #C2C2C2",
"m. c #C5C7C8",
"M. c #CACBCB",
"N. c #C7C9CA",
"B. c #D3D4D4",
"V. c #DCDCDD",
"C. c #FFE5D3",
"Z. c #FFEBDB",
"A. c #DFE0E1",
"S. c #E3E3E4",
"D. c #E6E7E8",
"F. c #EBEBEC",
"G. c #FFEEE2",
"H. c #FFF3EC",
"J. c #EFF0F1",
"K. c #F4F4F4",
"L. c #FFF7F2",
"P. c #FFF9F6",
"I. c #FFFFFF",
"U. c #FFFFFF",
/* pixels */
"I.I.I.I.I.I.I.I.I.I.I.I.I.I.I.I.I.I.I.I.I.I.I.I.I.I.I.I.I.I.I.I.I.I.I.I.I.I.I.I.I.I.I.I.I.I.I.I.I.I.I.I.I.I.I.I.I.I.I.I.I.I.I.I.",
"I.I.I.I.I.I.I.I.I.I.I.I.I.I.I.I.I.I.I.I.I.I.I.I.I.I.I.I.I.I.I.I.I.I.I.I.I.I.I.I.I.I.I.I.I.I.I.I.I.I.I.I.I.I.I.I.I.I.I.I.I.I.I.I.",
"I.I.I.I.I.I.I.I.I.I.I.I.I.I.I.I.I.I.I.I.I.I.I.I.I.I.I.I.I.I.I.I.I.I.I.I.I.I.I.I.I.I.I.I.I.I.I.I.I.I.I.I.I.I.I.I.I.I.I.I.I.I.I.I.",
"I.I.I.I.I.I.I.I.I.I.I.I.I.I.I.I.I.I.I.I.I.I.I.I.I.I.I.I.I.I.I.I.I.I.I.I.I.I.I.I.I.I.I.I.I.I.I.I.I.I.I.I.I.I.I.I.I.I.I.I.I.I.I.I.",
"I.I.I.I.I.I.I.I.I.I.I.I.I.I.I.I.I.I.I.I.I.I.I.I.I.I.I.I.I.I.I.I.I.I.I.I.I.I.I.I.I.I.I.I.I.I.I.I.I.I.I.I.I.I.I.I.I.I.I.I.I.I.I.I.",
"I.I.I.I.I.I.I.I.I.I.I.I.I.I.I.I.I.I.I.I.I.I.I.I.I.I.I.I.I.I.I.I.I.I.I.I.I.I.I.I.I.I.I.I.I.I.I.I.I.I.I.I.I.I.I.I.I.I.I.I.I.I.I.I.",
"I.I.I.I.I.I.I.I.I.I.I.I.I.I.I.I.I.I.I.I.I.I.I.I.I.I.I.I.I.I.I.I.I.I.I.I.I.I.I.I.I.I.I.I.I.I.I.I.I.I.I.I.I.I.I.I.I.I.I.I.I.I.I.I.",
"I.I.I.I.I.I.I.I.I.I.I.I.I.I.I.I.I.I.I.I.I.I.I.I.I.I.I.I.I.I.I.I.I.I.I.I.I.I.I.I.I.I.I.I.I.I.I.I.I.I.I.I.I.I.I.I.I.I.I.I.I.I.I.I.",
"I.I.I.I.I.I.I.I.I.I.I.I.I.I.I.I.I.I.I.I.I.I.I.I.I.I.I.I.I.I.I.I.I.I.I.I.I.I.I.I.I.I.I.I.I.I.I.I.I.I.I.I.I.I.I.I.I.I.I.I.I.I.I.I.",
"I.I.I.I.I.I.I.I.I.I.I.I.I.I.I.I.I.I.I.I.I.I.I.I.I.I.I.I.I.I.I.I.I.I.I.I.I.I.I.I.I.I.I.I.I.I.I.I.I.I.I.I.I.I.I.I.I.I.I.I.I.I.I.I.",
"I.I.I.I.I.I.I.I.I.I.I.I.I.I.I.I.I.I.I.I.I.I.I.I.I.I.I.I.I.I.I.I.I.I.I.I.I.I.I.I.I.I.I.I.I.I.I.I.I.I.I.I.I.I.I.I.I.I.I.I.I.I.I.I.",
"I.I.I.I.I.I.I.I.I.I.I.I.I.I.I.I.I.I.I.I.I.I.I.I.I.I.I.I.I.I.I.I.I.I.I.I.I.I.I.I.I.I.I.I.I.I.I.I.I.I.I.I.I.I.I.I.I.I.I.I.I.I.I.I.",
"I.I.I.I.I.I.I.I.I.I.I.I.I.I.I.I.I.I.I.I.I.I.I.I.I.I.I.I.I.P.J.D.D.J.P.I.I.I.I.I.I.I.I.I.I.I.I.I.I.I.I.I.I.I.I.I.I.I.I.I.I.I.I.I.",
"I.I.I.I.I.I.I.I.I.I.I.I.I.I.I.I.I.I.I.I.I.I.I.I.I.I.A.d.C z f u u f l N s.V.P.I.I.I.I.I.I.I.I.I.I.I.I.I.I.I.I.I.I.I.I.I.I.I.I.I.",
"I.I.I.I.I.I.I.I.I.I.I.I.I.I.I.I.I.I.I.I.I.I.I.U.N.M y r Y ~ o.+.+.o.~ Y e y b j.K.I.I.I.I.I.I.I.I.I.I.I.I.I.I.I.I.I.I.I.I.I.I.I.",
"I.I.I.I.I.I.I.I.I.I.I.I.I.I.I.I.I.I.I.I.I.I.V.C 0 L +.<.,.,.,.,.,.,.,.,.,.+.Y 9 b M.P.I.I.I.I.I.I.I.I.I.I.I.I.I.I.I.I.I.I.I.I.I.",
"I.I.I.I.I.I.I.I.I.I.I.I.I.I.I.I.I.I.I.I.I.j.u K -.7.x.c.4.,.,.,.,.,.,.,.,.,.,.-.K q a.F.I.I.I.I.I.I.I.I.I.I.I.I.I.I.I.I.I.I.I.I.",
"I.I.I.I.I.I.I.I.I.I.I.I.I.I.I.I.I.I.I.I.i.0 ! 5.x.H.L.v.4.,.,.,.,.,.,.,.,.,.,.,.,.~ 8 C S.I.I.I.I.I.I.I.I.I.I.I.I.I.I.I.I.I.I.I.",
"I.I.I.I.I.I.I.I.I.I.I.I.I.I.I.I.I.I.I.i.9 O.9.C.P.v.7.2.,.,.,.,.,.,.,.,.,.,.,.,.,.,.O.3 V S.I.I.I.I.I.I.I.I.I.I.I.I.I.I.I.I.I.I.",
"I.I.I.I.I.I.I.I.I.I.I.I.I.I.I.I.I.I.f.9 O.q.H.G.q.<.,.,.,.,.,.,.,.,.,.,.,.,.,.,.,.,.,.O.2 e.D.I.I.I.I.I.I.I.I.I.I.I.I.I.I.I.I.I.",
"I.I.I.I.I.I.I.I.I.I.I.I.I.I.I.I.I.B.y | 0.H.C.7.,.,.,.,.,.,.,.,.,.,.,.,.,.,.,.,.,.,.,.,.X.8 i.K.I.I.I.I.I.I.I.I.I.I.I.I.I.I.I.I.",
"I.I.I.I.I.I.I.I.I.I.I.I.I.I.I.I.K.b L 7.G.Z.6.,.,.,.,.,.,.,.,.,.,.,.,.,.,.,.,.,.,.,.,.,.,.Y t n.P.I.I.I.I.I.I.I.I.I.I.I.I.I.I.I.",
"I.I.I.I.I.I.I.I.I.I.I.I.I.I.I.I.h.w 1.b.H.8.,.,.,.,.,.,.,.,.,.,.,.,.,.,.,.,.,.,.,.,.,.,.,.;.4 b S.I.I.I.I.I.I.I.I.I.I.I.I.I.I.I.",
"I.I.I.I.I.I.I.I.I.I.I.I.I.I.I.K.z ! w.P.l.,.,.,.,.&.&.,.,.,.,.,.,.,.,.%.*.,.,.,.,.,.,.,.,.,./ : d.K.I.I.I.I.I.I.I.I.I.I.I.I.I.I.",
"I.I.I.I.I.I.I.I.I.I.I.I.I.I.I.j.p 3.C.C.4.,.,.,.,.H H ,.,.,.,.,.,.,.:.F ] ,.,.,.,.,.,.,.,.,.>.6 v V.I.I.I.I.I.I.I.I.I.I.I.I.I.I.",
"I.I.I.I.I.I.I.I.I.I.I.I.I.I.I.B P 0.P.k.,.,.:.{ ' A A ' { :.,.,.=.{ H A S ' } :.,.,.,.,.,.,.,.E > j.P.I.I.I.I.I.I.I.I.I.I.I.I.I.",
"I.I.I.I.I.I.I.I.I.I.I.I.I.I.D.i +.v.Z.5.,.,.:.] A A A A ] :.,.,.:.H A A A A { ,.,.,.,.,.,.,.,.+.$ y.F.I.I.I.I.I.I.I.I.I.I.I.I.I.",
"I.I.I.I.I.I.I.I.I.I.I.I.I.I.N.a >.x.z.,.,.,.,.:.F Z Z F :.,.,.,.,.=.D Z Z G ,.,.,.,.,.,.,.,.,.>.4 c V.I.I.I.I.I.I.I.I.I.I.I.I.I.",
"I.I.I.I.I.I.I.I.I.I.I.I.I.I.s.J ,.2.<.,.,.,.,.:.F S S F :.,.,.,.,.=.S D S H ,.,.,.,.,.,.,.,.,.,.J d m.I.I.I.I.I.I.I.I.I.I.I.I.I.",
"I.I.I.I.I.I.I.I.I.I.I.I.I.I.y.R ,.,.,.,.,.,.,.=.{ =.=.{ :.,.,.,.,.=.{ =.*.{ :.,.,.,.,.,.,.,.,.,.R - g.P.I.I.I.I.I.I.I.I.I.I.I.I.",
"I.I.I.I.I.I.I.I.I.I.I.I.I.I.C Q ,.,.,.,.,.,.,.,.,.,.,.,.,.,.,.,.,.,.,.,.,.,.,.,.,.,.,.,.,.,.,.,.Q = i.K.I.I.I.I.I.I.I.I.I.I.I.I.",
"I.I.I.I.I.I.I.I.I.I.I.I.I.I.n ~ ,.,.,.,.,.,.,.,.,.,.,.,.,.,.,.,.,.,.,.,.,.,.,.,.,.,.,.,.,.,.,.,./ @ u.K.I.I.I.I.I.I.I.I.I.I.I.I.",
"I.I.I.I.I.I.I.I.I.I.I.I.I.I.n ~ ,.,.,.,.,.,.,.,.,.,.,.,.,.,.,.,.,.,.,.,.,.,.,.,.,.,.,.,.,.,.,.,./ @ y.F.I.I.I.I.I.I.I.I.I.I.I.I.",
"I.I.I.I.I.I.I.I.I.I.I.I.I.I.B Q ,.,.,.,.,.,.,.,.,.,.,.,.,.,.,.,.,.,.,.,.,.,.,.,.,.,.,.,.,.,.,.,.^ @ y.F.I.I.I.I.I.I.I.I.I.I.I.I.",
"I.I.I.I.I.I.I.I.I.I.I.I.I.I.t.R ,.,.,.,.,.,.,.,.,.,.,.=.&.,.,.,.,.,.,.,.,.*.*.,.,.,.,.,.,.,.,.,.R & p.K.I.I.I.I.I.I.I.I.I.I.I.I.",
"I.I.I.I.I.I.I.I.I.I.I.I.I.I.a.J ,.,.,.,.,.,.,.,.,.,.,.] F :.,.,.,.,.,.,.,.' H ,.,.,.,.,.,.,.,.,.J * a.K.I.I.I.I.I.I.I.I.I.I.I.I.",
"I.I.I.I.I.I.I.I.I.I.I.I.I.I.m.a >.,.,.,.,.,.,.,.:.%.] S A H { =.,.,.:.} ' A A ' } :.,.,.,.,.,.>.5 , h.P.I.I.I.I.I.I.I.I.I.I.I.I.",
"I.I.I.I.I.I.I.I.I.I.I.I.I.I.D.i +.,.,.,.,.,.,.,.,.{ A A A Z G =.,.,.:.' A A A A ' :.,.,.,.,.,.@.+ h N.I.I.I.I.I.I.I.I.I.I.I.I.I.",
"I.I.I.I.I.I.I.I.I.I.I.I.I.I.I.m E ,.,.,.,.,.,.,.,.,.H Z Z S =.,.,.,.,.:.F Z Z D :.,.,.,.,.,.,.E X M V.I.I.I.I.I.I.I.I.I.I.I.I.I.",
"I.I.I.I.I.I.I.I.I.I.I.I.I.I.I.h.p >.,.,.,.,.,.,.,.,.H A S S =.,.,.,.,.:.F S S F :.,.,.,.,.,.>.4 * i.K.I.I.I.I.I.I.I.I.I.I.I.I.I.",
"I.I.I.I.I.I.I.I.I.I.I.I.I.I.I.D.g ~ ,.,.,.,.,.,.,.:.] &.*.] =.,.,.,.,.:.] *.*.{ =.,.,.,.,.,. .o s n.P.I.I.I.I.I.I.I.I.I.I.I.I.I.",
"I.I.I.I.I.I.I.I.I.I.I.I.I.I.I.I.s.w ;.,.,.,.,.,.,.,.,.,.,.,.,.,.,.,.,.,.,.,.,.,.,.,.,.,.,.;.5 & r.S.I.I.I.I.I.I.I.I.I.I.I.I.I.I.",
"I.I.I.I.I.I.I.I.I.I.I.I.I.I.I.I.D.x Y ,.,.,.,.,.,.,.,.,.,.,.,.,.,.,.,.,.,.,.,.,.,.,.,.,.,.T   s j.P.I.I.I.I.I.I.I.I.I.I.I.I.I.I.",
"I.I.I.I.I.I.I.I.I.I.I.I.I.I.I.I.I.j.8 | ,.,.,.,.,.,.,.,.,.,.,.,.,.,.,.,.,.,.,.,.,.,.,.,.X.O * y.S.I.I.I.I.I.I.I.I.I.I.I.I.I.I.I.",
"I.I.I.I.I.I.I.I.I.I.I.I.I.I.I.I.I.K.u.2 O.,.,.,.,.,.,.,.,.,.,.,.,.,.,.,.,.,.,.,.,.,.,.O.1 % b M.P.I.I.I.I.I.I.I.I.I.I.I.I.I.I.I.",
"I.I.I.I.I.I.I.I.I.I.I.I.I.I.I.I.I.I.D.V 3 O.:.] :.,.,.,.,.,.,.,.,.,.,.,.,.,.,.:.&.,.O.1 . j j.K.I.I.I.I.I.I.I.I.I.I.I.I.I.I.I.I.",
"I.I.I.I.I.I.I.I.I.I.I.I.I.I.I.I.I.I.I.S.M 2 ( } %.} *.:.,.,.,.,.,.,.,.,.,.,.&.*.*. .$ . h d.F.I.I.I.I.I.I.I.I.I.I.I.I.I.I.I.I.I.",
"I.I.I.I.I.I.I.I.I.I.I.I.I.I.I.I.I.I.I.I.V.e.; K #.] H ] *.=.=.=.=.,.=.*.&.=.&.#.U o & j d.D.I.I.I.I.I.I.I.I.I.I.I.I.I.I.I.I.I.I.",
"I.I.I.I.I.I.I.I.I.I.I.I.I.I.I.I.I.I.I.I.I.S.i.d 2 I [ %.&.{ ' ' ] *.%.} { $.Y 1   < M j.F.I.I.I.I.I.I.I.I.I.I.I.I.I.I.I.I.I.I.I.",
"I.I.I.I.I.I.I.I.I.I.I.I.I.I.I.I.I.I.I.I.I.I.F.n.V > $ 7 I W ) _ ` ..W I 7 +   * j p.B.K.I.I.I.I.I.I.I.I.I.I.I.I.I.I.I.I.I.I.I.I.",
"I.I.I.I.I.I.I.I.I.I.I.I.I.I.I.I.I.I.I.I.I.I.I.P.S.h.C s * @ # # O O X . & , c p.n.D.P.I.I.I.I.I.I.I.I.I.I.I.I.I.I.I.I.I.I.I.I.I.",
"I.I.I.I.I.I.I.I.I.I.I.I.I.I.I.I.I.I.I.I.I.I.I.I.I.K.S.N.d.y.V v c c b C p.h.B.F.P.I.I.I.I.I.I.I.I.I.I.I.I.I.I.I.I.I.I.I.I.I.I.I.",
"I.I.I.I.I.I.I.I.I.I.I.I.I.I.I.I.I.I.I.I.I.I.I.I.I.I.I.I.K.D.S.V.B.B.V.S.F.K.I.I.I.I.I.I.I.I.I.I.I.I.I.I.I.I.I.I.I.I.I.I.I.I.I.I.",
"I.I.I.I.I.I.I.I.I.I.I.I.I.I.I.I.I.I.I.I.I.I.I.I.I.I.I.I.I.I.I.I.I.I.I.I.I.I.I.I.I.I.I.I.I.I.I.I.I.I.I.I.I.I.I.I.I.I.I.I.I.I.I.I.",
"I.I.I.I.I.I.I.I.I.I.I.I.I.I.I.I.I.I.I.I.I.I.I.I.I.I.I.I.I.I.I.I.I.I.I.I.I.I.I.I.I.I.I.I.I.I.I.I.I.I.I.I.I.I.I.I.I.I.I.I.I.I.I.I.",
"I.I.I.I.I.I.I.I.I.I.I.I.I.I.I.I.I.I.I.I.I.I.I.I.I.I.I.I.I.I.I.I.I.I.I.I.I.I.I.I.I.I.I.I.I.I.I.I.I.I.I.I.I.I.I.I.I.I.I.I.I.I.I.I.",
"I.I.I.I.I.I.I.I.I.I.I.I.I.I.I.I.I.I.I.I.I.I.I.I.I.I.I.I.I.I.I.I.I.I.I.I.I.I.I.I.I.I.I.I.I.I.I.I.I.I.I.I.I.I.I.I.I.I.I.I.I.I.I.I.",
"I.I.I.I.I.I.I.I.I.I.I.I.I.I.I.I.I.I.I.I.I.I.I.I.I.I.I.I.I.I.I.I.I.I.I.I.I.I.I.I.I.I.I.I.I.I.I.I.I.I.I.I.I.I.I.I.I.I.I.I.I.I.I.I.",
"I.I.I.I.I.I.I.I.I.I.I.I.I.I.I.I.I.I.I.I.I.I.I.I.I.I.I.I.I.I.I.I.I.I.I.I.I.I.I.I.I.I.I.I.I.I.I.I.I.I.I.I.I.I.I.I.I.I.I.I.I.I.I.I.",
"I.I.I.I.I.I.I.I.I.I.I.I.I.I.I.I.I.I.I.I.I.I.I.I.I.I.I.I.I.I.I.I.I.I.I.I.I.I.I.I.I.I.I.I.I.I.I.I.I.I.I.I.I.I.I.I.I.I.I.I.I.I.I.I.",
"I.I.I.I.I.I.I.I.I.I.I.I.I.I.I.I.I.I.I.I.I.I.I.I.I.I.I.I.I.I.I.I.I.I.I.I.I.I.I.I.I.I.I.I.I.I.I.I.I.I.I.I.I.I.I.I.I.I.I.I.I.I.I.I.",
"I.I.I.I.I.I.I.I.I.I.I.I.I.I.I.I.I.I.I.I.I.I.I.I.I.I.I.I.I.I.I.I.I.I.I.I.I.I.I.I.I.I.I.I.I.I.I.I.I.I.I.I.I.I.I.I.I.I.I.I.I.I.I.I.",
"I.I.I.I.I.I.I.I.I.I.I.I.I.I.I.I.I.I.I.I.I.I.I.I.I.I.I.I.I.I.I.I.I.I.I.I.I.I.I.I.I.I.I.I.I.I.I.I.I.I.I.I.I.I.I.I.I.I.I.I.I.I.I.I.",
"I.I.I.I.I.I.I.I.I.I.I.I.I.I.I.I.I.I.I.I.I.I.I.I.I.I.I.I.I.I.I.I.I.I.I.I.I.I.I.I.I.I.I.I.I.I.I.I.I.I.I.I.I.I.I.I.I.I.I.I.I.I.I.I."
};
